<?xml version="1.0" encoding="utf-8" ?><svg xmlns="http://www.w3.org/2000/svg" xmlns:xlink="http://www.w3.org/1999/xlink" width="1014" height="582" viewBox="0 0 1014 582"><path fill="#F2CFB6" d="M456.348 328.673C436.75 326.885 421.155 322.717 405.163 310.651C385.279 295.792 372.254 273.513 369.057 248.89C358.33 169.523 450.013 116.34 513.779 165.008C536.677 182.484 547.162 205.817 550.729 233.925C559.596 218.393 566.453 210.299 582.509 202.708C589.032 199.046 595.435 193.949 600.596 188.607C608.523 180.404 611.852 168.836 617.807 159.722C626.098 161.322 623.389 191.385 621.747 197.749C621.486 197.492 621.175 197.185 620.813 196.829C620.578 190.6 621.896 184.211 621.445 177.978C621.372 176.977 621.155 178.589 621.444 177.095C620.749 178.445 620.628 181.831 620.481 183.526C620.434 176.098 620.525 170.02 618.614 162.742C610.23 181.997 600.996 196.76 581.846 206.159C577.518 208.283 572.662 211.026 568.956 214.078C561.753 220.783 552.399 234.108 549.232 243.246C550.847 260.728 541.211 281.598 530.232 294.797C516.862 310.868 494.577 325.214 473.396 327.239C469.5 327.611 465.081 327.837 461.139 328.079C456.272 331.355 447.73 341.417 443.405 346.012C439.325 350.288 434.82 354.139 429.96 357.503C430.025 356.15 430.733 356.214 430.115 354.284C430.567 353.691 433.763 351.095 434.46 350.602C443.009 344.556 448.896 335.523 456.348 328.673Z"/><path fill="#F2CFB6" d="M461.139 328.079C475.274 313.513 488.22 296.967 501.971 281.978C504.675 279.031 509.934 269.255 512.318 267.837C517.159 268.392 516.776 278.082 520.614 279.293C533.104 283.236 544.602 250.101 548.968 243.631L549.232 243.246C550.847 260.728 541.211 281.598 530.232 294.797C516.862 310.868 494.577 325.214 473.396 327.239C469.5 327.611 465.081 327.837 461.139 328.079Z"/><path fill="white" d="M550.729 233.925C559.596 218.393 566.453 210.299 582.509 202.708C589.032 199.046 595.435 193.949 600.596 188.607C608.523 180.404 611.852 168.836 617.807 159.722C626.098 161.322 623.389 191.385 621.747 197.749C621.486 197.492 621.175 197.185 620.813 196.829C620.578 190.6 621.896 184.211 621.445 177.978C621.372 176.977 621.155 178.589 621.444 177.095C620.749 178.445 620.628 181.831 620.481 183.526C620.434 176.098 620.525 170.02 618.614 162.742C610.23 181.997 600.996 196.76 581.846 206.159C577.518 208.283 572.662 211.026 568.956 214.078C561.753 220.783 552.399 234.108 549.232 243.246L548.968 243.631C544.602 250.101 533.104 283.236 520.614 279.293C516.776 278.082 517.159 268.392 512.318 267.837C509.934 269.255 504.675 279.031 501.971 281.978C488.22 296.967 475.274 313.513 461.139 328.079C456.272 331.355 447.73 341.417 443.405 346.012C439.325 350.288 434.82 354.139 429.96 357.503C430.025 356.15 430.733 356.214 430.115 354.284C430.567 353.691 433.763 351.095 434.46 350.602C443.009 344.556 448.896 335.523 456.348 328.673C457.781 326.306 459.121 325.706 460.843 323.783C475.319 307.625 491.611 291.63 503.88 273.633C520.912 248.647 514.721 277.904 525.559 275.189C529.552 272.014 547.306 240.434 550.729 233.925Z"/><path fill="white" d="M620.481 183.526C620.628 181.831 620.749 178.445 621.444 177.095C621.155 178.589 621.372 176.977 621.445 177.978C621.896 184.211 620.578 190.6 620.813 196.829C621.175 197.185 621.486 197.492 621.747 197.749C616.077 249.728 577.334 277.689 544.363 313.371C526.286 332.934 507.112 351.359 498.835 377.42C515.859 366.355 535.528 342.1 549.761 326.945C577.119 297.817 611.876 272.294 626.686 234.14C630.931 223.198 631.718 210.791 636.498 200.205C636.908 199.308 637.276 199.499 638.159 199.407C642.157 201.14 645.056 209.639 646.681 213.602C651.092 224.364 654.889 235.952 661.93 245.384C667.432 252.754 676.51 256.93 683.754 262.277C708.565 280.046 731.14 302.763 747.835 328.381C754.912 339.242 760.013 350.488 767.58 361.342C769.135 359.702 770.446 358.202 772.315 356.904L774.201 358.621L769.413 363.27C783.762 385.44 808.861 406.136 827.574 424.788C836.139 433.325 845.856 441.383 853.282 450.856C857.197 455.85 859.779 466.692 852.679 469.936C837.14 477.035 814.92 473.995 798.525 471.258C762.864 463.239 740.689 438.297 721.97 408.651L715.135 413.541L713.064 412.012C715.692 410.637 718.65 408.48 721.139 406.774C715.026 394.186 708.606 382.63 702.815 369.579C695.533 353.166 690.001 336.101 682.715 319.783C679.974 313.646 674.491 306.347 670.541 300.844C668.292 297.711 661.687 295.513 658.585 293.061C655.405 290.774 651.258 284.778 647.386 285.119C643.019 287.369 638.143 299.596 636.23 304.32L634.3 304.14C636.467 298.755 640.345 287.616 645.002 284.08C649.716 280.501 655.631 288.455 659.2 291.027C664.773 295.043 672.35 298.191 676.1 304.37C686.784 321.963 692.435 342.204 700.384 361.074C706.67 376.381 714.282 390.381 722.785 404.556C737.759 392.879 752.653 377.638 765.496 363.686C758.979 353.58 753.512 342.048 747.131 331.873C735.913 313.984 718.429 294.003 702.553 279.933C696.806 274.807 690.765 270.02 684.462 265.596C679.279 261.969 673.934 258.655 668.768 254.949C655.629 245.525 650.055 230.084 644.183 215.701C642.326 211.151 640.966 206.259 638.633 201.903L637.934 201.722C635.51 205.101 633.253 229.075 629.63 236.338C624.023 247.579 616.901 259.596 609.011 269.27C592.817 289.125 573.903 305.876 555.983 323.845C540.36 340.027 525.702 357.156 509.656 372.924C506.875 375.657 501.624 380.575 497.513 378.92C496.742 377.859 496.476 375.892 496.963 374.649C521.859 311.113 599.36 279.414 616.652 211.75C619.069 202.293 619.913 193.111 620.481 183.526ZM723.393 407.206C744.854 439.575 770.117 468.3 811.492 471.873C821.314 472.775 844.248 473.804 853.042 467.543C859.936 462.636 849.108 448.955 845.126 444.992C828.786 427.358 810.707 411.165 793.227 394.667C784.345 386.241 775.363 373.657 767.008 365.116C754.662 377.411 743.469 390.348 729.958 401.426C727.76 403.228 725.545 405.316 723.393 407.206Z"/><path fill="white" d="M0 481.908C6.12864 481.292 13.6283 481.341 19.9928 480.948C30.2922 480.238 40.5648 479.181 50.7931 477.78C105.075 470.321 157.039 450.953 202.966 421.06C222.602 408.017 241.612 394.053 259.93 379.214C269.881 371.237 284.107 358.277 294.34 352.132C297.664 350.135 301.629 348.896 305.526 348.949C319.583 349.141 345.754 383.41 355.522 393.691C381.151 383.034 407.804 370.89 430.115 354.284C430.733 356.214 430.025 356.15 429.96 357.503C414.837 368.842 394.361 379.298 377.169 387.39C370.655 390.457 363.769 393 357.303 395.979L356.327 397.604C355.068 396.838 355.423 397.08 353.73 397.065C353.083 396.517 352.342 396.205 351.581 395.823L352.314 395.488C350.83 390.698 328.555 367.473 323.911 363.072C320.235 359.589 316.26 355.656 311.723 353.313C308.925 351.868 304.569 350.646 301.452 351.593C293.517 354.004 261.408 381.757 252.826 388.416C193.356 434.559 136.956 466.548 61.9282 479.01C41.5333 482.398 20.6901 484.503 0 484.145L0 481.908Z"/><path fill="white" d="M351.581 395.823C352.342 396.205 353.083 396.517 353.73 397.065C347.327 398.998 341.104 402.242 334.87 404.713C314.685 412.713 295.355 422.548 275.381 431.017C257.336 438.667 239.668 448.112 223.286 458.882C218.902 461.752 213.553 465.324 209.884 469.03C219.658 465.833 228.316 461.297 237.741 457.336C252.01 451.364 266.907 447.019 282.148 444.382C298.557 441.635 316.744 442.5 332.263 448.988C340.116 452.271 346.292 456.286 354.849 458.919C375.598 465.303 404.374 468.789 425.76 466.799C422.21 463.916 418.516 461.799 414.816 459.144C397.023 446.379 383.05 429.271 368.833 412.822C365.56 409.034 358.691 401.749 356.327 397.604L357.303 395.979C363.076 404.028 371.554 413.2 378.266 420.696C390.93 434.443 402.75 449.953 418.945 459.747C421.392 461.227 428.656 464.267 428.53 466.877C426.363 469.142 419.172 469.069 416.028 469.066C391.605 469.048 366.284 466.071 343.657 456.433C335.865 453.092 327.51 447.988 319.026 446.553C304.078 444.023 287.215 444.832 272.453 447.983C262.636 450 253.014 452.871 243.698 456.566C235.658 459.723 227.777 463.272 220.083 467.197C216.301 469.118 204.214 476.294 200.734 475.254L200.749 474.515C203.801 470.037 213.874 462.863 218.466 459.736C247.689 439.837 280.002 425.566 312.57 412.128C325.477 406.803 338.588 400.945 351.581 395.823Z"/><path fill="white" d="M491.896 482.695C485.899 482.752 455.643 484.248 452.717 480.523C452.182 475.504 454.898 471.701 458.57 468.547C506.307 427.536 562.998 397.204 607.421 351.989C621.295 337.868 626.506 321.439 634.3 304.14L636.23 304.32C634.332 313.544 625.11 333.327 619.522 340.854C602.384 363.937 579.585 381.326 556.913 398.591C532.105 417.484 506.426 434.398 481.593 453.286C473.683 459.303 463.447 466.76 456.749 474.326C455.865 475.325 455.022 478.486 454.675 479.841C459.049 480.193 464.755 480.387 468.927 480.856L464.9 481.358C474.722 482.752 482.062 482.726 491.896 482.695Z"/><path fill="white" d="M772.315 356.904C784.663 345.041 799.889 339.172 815.002 350.251C865.408 387.201 900.261 446.803 959.663 471.865C970.798 476.533 982.47 479.796 994.411 481.58C997.043 481.948 1009.98 482.905 1011.11 484.147C1008.41 486.06 992.045 483.797 988.106 483.194C943.498 476.37 907.402 442.349 876.601 411.358L844.315 378.868C837.935 372.456 832.101 367.045 825.324 361.118C806.453 344.615 794.587 340.357 774.201 358.621L772.315 356.904Z"/><path fill="white" d="M713.064 412.012L715.135 413.541C697.565 425.058 681.897 432.876 662.944 441.795C634.683 455.094 608.968 466.28 578.502 473.264L577.66 471.253C579.237 470.962 580.914 470.431 582.483 470.031C620.76 460.279 656.217 442.13 691.493 424.808C698.794 421.223 705.678 415.515 712.672 412.195L713.064 412.012Z"/><path fill="white" d="M468.927 480.856C507.602 481.458 540.032 480.194 577.66 471.253L578.502 473.264C553.994 479.915 517.287 482.46 491.896 482.695C482.062 482.726 474.722 482.752 464.9 481.358L468.927 480.856Z"/></svg>