<?xml version="1.0" encoding="utf-8" ?><svg xmlns="http://www.w3.org/2000/svg" xmlns:xlink="http://www.w3.org/1999/xlink" width="1016" height="563" viewBox="0 0 1016 563"><clipPath id="cl_4"><rect width="1016" height="563"/></clipPath><g clip-path="url(#cl_4)"><path fill="#33241B" transform="translate(0 -91)" d="M202.379 566.494C184.73 571.44 168.075 570.432 150.885 563.984C127.363 555.16 98.7197 535.667 87.9085 512.18C86.366 508.829 84.1752 502.65 83.9154 498.987C81.5063 465.018 89.0138 424.083 100.407 392.172C105.99 376.535 118.019 358.409 132.752 351.023C139.119 347.831 147.436 345.352 153.945 342.406C158.88 340.173 167.863 334.634 169.732 329.627C172.253 322.875 171.747 310.325 172.927 302.648C174.174 294.536 174.957 289.258 177.829 281.504C181.463 271.693 186.879 262.961 196.684 258.406C205.091 254.501 216.295 254.764 225.074 258.541C237.538 263.904 259.273 278.177 265.617 290.42C267.411 293.884 267.534 301.061 266.079 304.623C264.525 308.43 259.771 308.902 255.917 310.21C254.197 318.664 256.057 328.551 257.158 337.084C255.615 338.012 251.299 340.373 250.284 341.612C245.851 346.922 245.381 355.907 239.8 360.428C223.391 373.721 211.834 343.563 206.878 332.936C202.319 332.946 180.181 333.942 182.063 325.969C184.84 322.35 192.509 322.222 196.641 322.798C201.352 323.456 204.924 325.771 208.893 328.188C214.807 324.917 222.335 316.415 227.271 311.36C237.912 300.461 238.776 302.673 252.564 302.688C250.593 288.208 238.022 278.386 224.257 275.257C216.581 273.512 205.467 273.482 198.768 278.085C188.688 285.009 186.154 299.362 182.441 310.226C180.645 315.637 178.026 323.145 176.912 328.529C180.776 343.623 195.992 350.899 208.174 357.876C231.641 371.316 252.795 383.335 262.722 409.998C268.439 425.356 273.699 438.292 266.925 454.584C273.893 468.925 271.584 473.977 274.827 487.725C281.514 476.089 282.318 463.085 291.735 454.124C295.202 450.824 303.553 446.441 308.558 446.737C312.041 446.944 313.895 449.548 315.929 452.052C315.741 463.455 301.232 499.984 296.657 512.361C293.606 520.613 287.71 529.564 279.114 532.873C271.595 535.768 258.967 536.017 251.686 532.596C228.882 521.882 237.809 492.364 229.203 470.31C224.868 484.914 226.739 518.123 231.383 533.14C233.505 540.001 236.473 544.962 242.92 548.316C252.996 548.366 262.865 545.582 273.161 543.737C303.465 538.43 338.231 532.129 367.489 544.87C383.563 551.87 379.643 565.7 373.385 578.182C403.542 581.708 422.471 592.091 450.323 602.156C475.319 611.545 501.075 615.524 527.569 610.413C546.381 606.784 569.143 602.43 576.284 581.854C567.55 574.534 547.688 572.116 536.646 573.735C529.872 574.729 520.739 578.57 514.339 581.194C501.431 586.485 488.61 591.251 474.607 592.622C452.391 594.469 434.147 592.421 416.221 578.022C406.597 570.292 389.716 548.644 412.58 544.331C421.293 542.687 434.668 547.709 443.928 547.641C454.222 547.566 453.038 536.724 452.551 529.594C447.086 533.575 439.315 534.618 433.768 529.907C431.346 527.85 430.21 523.308 430.519 520.194C431.464 510.655 436.296 501.772 436.707 492.014C437.379 475.536 434.336 458.323 434.417 441.93C434.484 428.424 433.119 409.574 443.431 399.414C451.781 391.188 462.508 391.551 473.195 391.535C477.191 384.544 482.68 377.868 485.104 370.176C489.597 356.7 480.343 333.921 489.286 322.395C501.829 306.555 526.648 293.63 545.294 307.067C563.105 319.902 552.529 339.604 551.179 356.766C550.682 363.078 553.745 370.799 552.549 377.45C551.155 385.201 544.224 389.888 541.878 397.216C539.622 404.161 542.369 421.427 538.575 425.033C526.213 436.785 493.954 395.766 477.829 396.359C476.457 396.501 475.136 397.388 474.385 398.449C471.288 402.876 471.971 410.809 478.168 412.141C486.755 413.986 495.495 414.887 504.021 417.067C512.22 419.163 520.886 424.778 527.202 430.398C536.575 438.738 545.669 438.352 553.262 428.339C554.417 417.19 547.764 406.554 548.885 396.966C549.129 394.882 549.95 392.901 551.708 391.651C554.723 389.507 559.064 389.932 562.51 390.491C571.777 391.997 582.654 399.739 588.089 407.436C597.823 421.221 583.847 465.429 579.815 481.675C577.711 490.151 575.966 498.652 574.435 507.249C591.282 491.817 615.271 497.119 632.09 481.908C637.717 476.82 648.365 462.168 641.477 454.88C639.651 454.109 640.399 454.154 638.623 454.55C634.485 457.726 635.807 468.929 632.077 469.767C631.019 468.232 630.571 464.662 629.803 462.688C627.359 456.402 622.176 450.769 617.039 446.579C612.362 460.407 611.54 481.074 595.426 488.367C591.308 490.231 587.785 486.867 587.041 483.01C584.592 470.328 587.847 445.918 593.808 434.704C602.766 439.059 602.958 439.314 613.088 439.48C614.848 434.052 615.751 422.574 618.423 417.96C624.506 407.453 634.404 408.986 640.953 396.331L634.963 388.933C635.228 368.766 640.848 335.134 624.063 318.69C615.054 309.862 589.664 308.591 580.819 319.53C574.898 324.556 572.703 330.538 570.897 337.835C573.665 336.246 575.591 335.135 578.195 333.241C582.252 330.224 586.661 326.898 591.024 331.554C597.285 338.236 605.115 338.385 613.218 342.76C613.158 339.105 613.036 335.344 613.368 332.058C614.036 325.457 620.826 324.794 624.177 329.388C629.507 336.696 630.713 354.347 630.063 362.8C629.182 374.248 620.26 386.741 611.7 393.761C598.252 405.048 594.243 391.425 587.82 382.2L586.391 382.007C576.515 380.626 578.646 376.802 580.629 368.733C577.474 364.237 572.546 360.577 570.163 356.974C565.156 349.401 568.971 348.489 560.917 342.224C560.46 340.886 559.698 338.62 559.682 337.246C559.579 328.584 563.375 317.791 569.039 311.401C577.198 302.196 590.696 296.648 602.746 295.688C617.579 294.507 624.175 303.277 629.892 315.463C632.01 320.13 634.638 325.389 636.111 330.292C639.374 341.153 639.771 346.391 648.635 354.198C653.789 353.681 674.859 352.167 672.76 362.754C671.155 370.841 649.213 355.004 648.031 363.677C647.23 369.554 644.504 387.409 646.946 392.264C652.963 396.913 663.236 380.881 667.259 376.772C689.062 354.502 713.334 387.927 723.449 405.532C734.529 424.817 747.603 442.905 758.351 462.311C764.733 474.026 761.901 480.527 752.939 489.126C754.445 490.569 756.11 492.558 758.283 491.116C768.041 484.638 778.001 479.026 788.249 473.358C778.191 459.194 780.418 449.408 772.517 438.278C767.287 436.164 754.744 434.59 751.987 429.239C749.614 424.636 760.1 421.644 762.947 420.596C762.194 418.227 759.187 412.705 759.965 410.852C763.338 403.663 771.179 409.043 774.405 413.334C776.331 415.896 777.715 418.15 779.187 420.964C784.866 431.824 790.298 442.799 795.982 453.66C793.815 443.581 776.202 389.058 791.931 381.793C797.586 379.181 807.323 391.454 813.414 394.974L813.935 395.27C825.883 395.036 833.991 390.696 841.864 381.941C834.793 384.748 820.441 391.514 813.262 389.565C807.752 388.069 808.694 379 805.372 373.127L805.069 372.599C797.765 369.57 796.331 370.008 798.402 361.185C798.564 359.598 799.696 356.323 799.522 354.813C798.468 345.707 795.342 340.076 795.314 330.561C789.567 323.966 787.123 317.89 794.585 310.946C803.28 302.856 818.072 298.422 829.76 298.264C845.115 297.639 856.458 309.963 857.133 325.135C857.782 339.726 857.576 361.56 866.185 374.222C872.993 384.235 895.63 378.67 903.901 388.94C909.601 396.019 914.659 405.072 915.656 414.357C915.32 426.325 909.537 438.767 905.691 450.159C897.7 473.824 895.491 499.098 895.768 523.963C895.877 533.711 900.195 538.518 898.568 550.444C897.285 559.849 887.845 567.251 887.789 570.163C891.891 576.306 918.453 578.42 925.463 579.917C936.863 582.352 1007.08 580.499 1012.41 584.586L1012.39 585.321C1009.98 586.45 1003.43 586.617 1000.54 586.497C967.251 585.107 932.96 586.913 900.275 579.55C894.136 578.167 888.416 575.203 882.966 572.365C873.077 575.459 865.628 580.061 854.649 581.601C809.822 587.888 763.68 578.055 720.64 565.809C706.141 561.683 692.912 554.874 678.266 551.504C650.162 544.988 646.686 573.566 626.973 585.943C612.046 595.315 594.92 585.919 579.661 582.754C575.268 599.585 562.368 604.331 547.372 609.909C534.088 614.85 520.25 615.111 506.241 615.07C496.077 615.04 485.147 615.382 475.067 613.711C441.179 606.446 409.396 585.085 374.637 582.496C368.068 582.007 359.389 589.408 353.236 592.18C347.357 594.828 343.522 596.547 337.049 598.106C304.409 606.36 270.29 605.383 237.099 604.919C196.633 604.353 160.76 596.4 122.435 583.98C104.05 578.022 83.4291 571.432 64.314 569.109C48.0703 567.135 29.6186 569.063 13.6843 572.701C11.271 573.262 3.77387 575.259 1.77463 574.066L1.56548 573.146C3.60682 569.822 15.8326 568.432 20.1026 567.41C56.5865 558.712 95.6102 570.686 130.115 582.283C178.663 598.961 227.528 603.259 278.549 600.881C310.448 599.393 335.902 599.727 363.665 581.628C354.315 581.301 343.981 582.949 334.234 583.617C302.601 585.786 263.112 591.951 232.453 582.492C220.55 578.819 212.304 572.388 202.379 566.494ZM464.086 394.587C451.905 397.014 442.002 401.327 439.902 415.371C436.889 435.519 439.28 456.821 439.764 477.119C439.918 481.952 440.747 490.001 440.375 494.39C439.428 505.563 434.78 511.661 434.215 523.569C438.14 529.369 442.924 531.561 448.521 527.048C453.749 522.832 449.763 499.887 449.009 493.867L444.924 461.33C444.278 455.987 441.882 442.508 445.239 438.394C449.798 435.977 454.824 442.091 456.386 445.757C468.463 474.1 456.469 508.372 456.244 537.441C456.007 568.016 414.623 536.538 405.084 553.067C399.495 562.75 427.768 583.1 435.931 585.128C445.117 588.504 450.323 589.224 459.959 589.804C486.185 589.361 505.703 580.933 529.449 570.78C533.382 569.098 553.019 570.416 558.133 570.889C563.232 571.362 570.94 574.7 576.135 575.977C575.447 565.238 572.613 554.634 570.815 544.049C566.281 517.35 573.949 491.362 579.949 465.578C583.586 449.946 588.485 433.419 587.499 417.235C586.847 405.194 568.56 394.366 557.677 394.365C556.203 394.365 554.486 394.938 553.293 395.84C549.179 403.1 567.906 432.776 545.681 439.044C530.218 443.405 522.814 429.065 510.287 423.662C504.567 421.195 499.148 419.625 493.079 418.528C485.916 416.837 471.635 417.829 469.287 409.297C468.249 405.528 470.092 398.415 470.928 394.534C468.866 394.539 466.082 394.461 464.086 394.587ZM173.467 332.404C164.911 341.083 156.281 346.729 144.431 350.269C113.213 359.595 102.513 393.746 95.3158 421.788C88.7513 447.364 87.2144 471.08 87.7235 497.379C87.9698 510.101 97.718 522.357 106.295 531.134C130.033 553.543 164.83 572.35 198.384 563.953C196.741 560.986 184.642 542.651 198.769 546.71C205.682 548.695 207 557.202 206.85 563.837C237.455 593.956 301.06 581.446 339.691 579.238C349.008 578.705 358.168 578.696 367.395 578.311C386.685 553.462 367.579 545.969 343.847 542.46C325.989 539.82 307.835 541.779 290.098 544.362C274.71 546.498 252.612 554.554 238.016 550.004C221.276 544.786 219.076 469.795 228.741 465.136C242.284 468.888 230.411 523.464 254.523 529.411C289.831 538.119 292.117 512.143 302.414 486.542C304.748 480.742 312.556 457.516 310.992 452.648C306.561 447.57 297.154 454.836 293.45 457.772C286.571 463.223 282.449 489.705 274.677 491.539C266.375 488.65 272.079 460.321 261.694 457.878C256.209 456.587 236.849 457.591 234.444 450.534C235.616 447.038 241.316 446.065 244.859 446.005C250.468 445.911 256.79 447.785 261.781 450.487C262.475 450.863 262.853 450.963 263.567 451.133C267.632 447.879 266.022 437.506 265.434 432.887C263.516 417.207 256.249 402.022 246.266 389.889C235.236 376.482 217.687 368.219 202.889 359.532C188.845 351.288 181.618 347.024 173.467 332.404ZM685.12 443.337C687.826 436.202 692.906 417.037 698.555 413.913C702.86 413.759 702.683 420.962 702.772 423.706C703.208 437.067 695.461 440.724 687.434 448.53C682.977 452.865 678.271 465.758 673.067 470.664C660.72 486.394 645.312 503.64 626.743 512.061C615.664 517.085 598.144 519.064 586.016 519.518C581.696 519.68 577.538 518.316 573.754 516.321C570.677 531.469 575 545.292 577.801 560.256C578.879 566.011 579.747 571.271 580.742 577.003C587.832 582.364 606.452 587.653 615.191 586.339C629.643 584.165 638.643 568.714 647.183 558.102C661.869 539.854 684.128 548.256 702.19 555.285C704.802 556.19 707.375 557.058 709.938 558.102C706.683 555.276 697.156 544.145 703.002 539.663C711.246 533.342 725.271 532.198 734.532 526.729C743.607 521.833 759.698 508.318 765.076 500.58C762.042 498.853 761.272 498.555 757.937 497.585L757.377 497.872C748.057 502.718 739.377 512.375 729.868 517.988C704.427 533.008 670.144 545.236 640.331 541.682C635.869 541.15 633.727 535.424 635.703 531.992C644.679 516.396 664.244 504.179 679.31 494.748C687.834 489.806 704.67 495.74 714.708 495.556C725.306 495.362 735.171 493.175 744.627 488.978C741.812 484.926 738.516 481.147 736.134 476.86C729.824 465.507 727.169 451.177 724.121 438.779C719.454 419.798 715.973 398.331 692.069 396.825C683.87 396.309 676.349 396.499 668.229 396.679C663.786 397.057 659.712 397.43 655.251 397.472C652.326 401.754 649.498 408.003 647.529 412.865C635.187 443.342 661.407 448.838 685.12 443.337ZM478.171 391.418C484.355 394.15 490.442 396.566 496.152 400.212C502.638 404.353 508.574 409.433 514.884 413.777C544.222 434.483 534.572 419.764 538.157 397.902C539.01 392.703 546.478 383.308 549.323 378.02C548.45 370.505 547.2 361.106 547.806 353.786C548.974 339.663 557.747 321.344 543.858 310.545C537.939 305.942 531.689 304.795 524.346 305.326C513.267 306.643 501.121 314.081 493.936 322.68C482.719 336.104 493.619 353.135 489.458 369.396C486.9 379.396 481.39 383.491 478.171 391.418ZM761.405 494.322C763.475 495.323 765.378 496.328 767.589 496.969L768.142 496.752C773.629 494.55 778.809 490.162 784.677 487.662C806.349 478.428 828.99 488.586 849.313 496.673C857.654 499.993 866.241 504.145 874.242 508.4C882.902 513.597 884.439 515.689 891.942 522.041C892.562 506.428 892.809 490.728 895.454 475.317C898.253 459.005 903.563 444.032 909.284 428.608C910.66 424.9 914.247 413.739 911.398 410.56C910.931 411.073 908.38 424.735 907.343 427.615C897.939 453.732 878.88 486.955 848.046 489.71C840.065 490.423 813.918 485.85 827.888 474.097C839.742 464.125 850.98 452.589 860.415 440.33C870.265 427.631 877.015 411.578 888.951 401.055C892.942 397.537 900.545 396.566 905.686 396.183C904.133 394.48 901.772 391.758 899.869 390.397C889.829 383.22 872.509 387.141 864.061 377.774C857.65 370.666 856.296 354.642 852.935 346.09C852.652 346.052 852.37 346.014 852.087 345.976C850.098 346.434 847.474 346.847 845.885 347.959C842.969 352.938 850.003 362.641 849.716 367.468C848.835 382.277 837.276 394.589 823.148 398.343C809.5 402.271 803.316 390.097 793.352 383.82C788.462 390.884 788.693 394.833 789.216 403.376C789.646 410.394 800.984 462.758 804.64 465.259C810.646 460.449 806.257 409.363 810.31 405.987C811.814 406.552 812.546 407.745 813.148 409.242C820.296 427.017 819.087 449.368 813.809 467.506C810.132 480.141 800.846 474.623 793.534 476.28C785.563 478.086 767.287 488.741 761.405 494.322ZM811.39 543.528C830.468 554.768 847.056 571.201 870.525 565.659C872.183 565.267 873.276 564.766 874.385 563.448C874.528 561.347 871.086 549.579 870.431 547.038C868.317 538.837 866.067 521.521 856.494 518.814C832.482 512.026 806.593 510.771 782.212 504.943C779.16 504.214 773.738 502.852 770.796 502.492C766.323 505.471 762.5 509.537 758.572 513.187C750.662 520.537 742.185 527.298 732.35 531.898C728.407 533.742 724.253 535.337 720.082 536.578C716.463 537.654 712.215 538.229 708.919 540.037C707.338 540.905 705.896 542.134 705.562 543.992C705.156 546.252 706.487 548.682 707.805 550.435C711.963 555.966 719.484 557.982 726.012 558.809C758.05 562.869 773.799 535.158 794.373 537C800.526 537.551 806.098 540.553 811.39 543.528ZM632.017 456.011C633.99 453.588 635.703 450.903 639.099 450.661C645.012 450.239 647.055 457.395 646.938 462.048C646.718 470.778 641.677 478.314 635.465 484.074C630.957 488.284 627.551 490.487 621.887 492.855C617.075 494.867 612.621 495.792 607.827 497.265C600.835 499.415 578.118 503.265 577.655 512.111C578.919 516.361 583.334 515.594 586.906 515.604C595.305 515.458 603.986 513.975 612.223 512.444C641.983 506.912 668.159 473.577 682.468 449.318L681.904 449.19C669.042 446.398 652.552 452.609 642.734 437.789L642.585 437.562C641.89 429.443 641.451 421.293 643.003 413.168C643.798 409.004 650.395 400.048 649.85 397.345C648.515 396.722 647.584 396.889 646.11 396.931C643.408 399.294 639.717 405.2 637.793 406.529C619.769 418.976 620.411 419.648 617.097 441.043C621.916 445.804 627.246 451.535 632.017 456.011ZM821.409 579.902C836.698 580.35 862.981 578.592 877.395 570.27C878.233 569.787 878.264 569.046 878.377 568.16C876.814 567.369 865.734 570.495 862.399 570.898C838.264 573.819 810.279 539.503 789.749 540.483C783.79 541.649 778.373 544.656 773.314 547.941C757.202 558.402 745.407 564.115 725.628 563.377C754.696 572.405 790.932 578.492 821.409 579.902ZM836.053 485.056C871.217 494.277 901.657 445.322 906.4 416.079C907.363 410.14 909.024 401.389 901.409 399.454C897.076 400.859 893.108 402.376 889.732 405.603C881.524 413.45 875.881 424.293 869.657 433.689C861.601 445.85 852.671 457.097 841.93 466.987C837.097 471.471 831.542 475.448 826.934 480.147C830.209 482.438 832.326 483.532 836.053 485.056ZM641.521 538.262C676.355 541.298 720.961 523.466 747.036 500.654C748.839 499.077 751.273 497.035 751.662 494.616C751.003 492.883 749.815 491.891 747.831 491.755C732.414 496.524 721.124 500.758 704.548 498.35C699.172 497.568 692.629 495.204 687.256 496.037C677.254 497.587 645.272 522.269 640.283 531.505C639.427 533.09 638.868 534.596 639.129 536.425C640.276 537.954 639.675 537.451 641.521 538.262ZM608.635 391.641C617.969 384.127 625.261 372.812 627.071 360.843C628.429 351.858 622.318 350.166 615.508 347.175C608.587 344.135 601.79 341.584 594.542 339.547C591.364 338.654 590.453 332.845 585.142 333.364C557.196 348.013 575.506 352.277 584.799 368.226C584.047 371.109 583.251 374 582.684 376.924C587.729 377.662 589.437 377.798 592.63 382.119C597.404 388.58 598.474 397.815 608.635 391.641ZM875.603 552.884C876.603 556.087 876.98 560.095 881.034 559.311C888.466 554.137 890.188 535.885 891.506 527.527C874.599 511.063 859.786 504.013 837.564 496.059C824.592 491.415 811.587 487.002 797.586 487.948C788.885 489.142 780.174 493.093 773.243 498.481C790.407 504.416 811.084 505.901 828.941 509.255C842.299 511.764 861.606 511.108 868.269 525.362C872.277 533.936 873.079 543.899 875.603 552.884ZM743.051 480.648C745.512 483.513 746.231 484.205 749.152 486.504C758.522 480.337 760.348 473.975 754.795 464.095C742.334 441.926 727.589 420.471 714.413 398.703C707.933 387.998 694.251 372.464 680.899 372.704C673.53 374.857 662.7 385.713 659.248 392.303C671.321 392.789 694.174 392.006 704.856 395.788C708.393 397.041 711.557 399.206 714.077 401.979C728.224 417.545 728.103 459.454 743.051 480.648ZM834.824 380.471C837.296 379.09 838.78 378.267 841.019 376.567C839.844 371.477 836.862 358.231 832.575 355.914C824.592 351.601 821.403 344.171 814.606 339.287C812.14 337.515 801.947 333.751 798.901 333.157C799.15 340.31 800.958 343.109 802.403 349.674C803.314 353.813 802.08 362.389 801.542 366.884C811.393 369.052 811.408 377.447 812.444 386.091C823.703 384.539 823.577 385.463 834.824 380.471ZM882.731 566.579C889.145 562.989 893.186 556.863 895.327 549.926C896.115 547.373 896.647 540.549 894.473 538.661C892.525 545.219 891.166 550.845 887.591 556.823C885.938 559.587 882.008 563.727 881.884 565.911L882.731 566.579ZM820.513 302.831C812.762 304.046 793.594 310.421 793.912 321.195C793.969 323.131 796.081 325.257 797.365 326.699C802.337 321.251 808.137 314.673 814.017 310.251C826.746 300.677 830.399 320.718 832.276 328.611C833.183 332.687 836.867 350.111 838.886 351.835C842.233 349.688 841.584 337.412 853.307 333.049C854.46 319.02 849.167 303.846 832.837 302.588C829.337 302.318 824.007 302.457 820.513 302.831ZM691.475 440.85C695.799 435.84 699.261 430.733 698.823 423.737C698.717 422.033 698.753 420.292 697.776 419.144C696.639 422.056 690.308 438.133 691.132 440.545L691.475 440.85ZM624.776 342.936C625.269 338.045 623.719 331.033 618.05 330.063C615.926 341.916 617.297 337.701 624.776 342.936ZM804.05 469.533L799.085 466.431C797.659 468.389 796.374 469.877 795.827 472.257C808.202 477.274 810.733 465.616 812.45 456.631C813.472 450.238 813.686 443.405 814.031 436.915C814.283 433.29 814.321 430.591 813.509 427.031L813.196 427.021C812.92 428.916 813.074 430.19 813.156 432.097C812.796 440.121 812.295 446.616 811.297 454.614C810.324 460.535 810.412 467.145 804.05 469.533ZM845.691 372.772C846.029 368.538 844.983 358.72 840.836 356.441C839.667 361.01 842.1 369.795 845.691 372.772ZM199.18 329.856C200.833 329.615 201.076 329.903 201.816 328.954C200.206 326.351 193.479 325.304 190.541 325.599C188.834 326.115 187.61 326.102 186.859 327.299C188.474 328.982 196.568 329.611 199.18 329.856ZM233.303 321.657C235.541 319.499 237.898 316.848 236.346 313.614C235.562 313.072 235.142 312.73 234.238 312.373C230.346 314.66 228.414 321.732 233.303 321.657ZM640.537 352.093C640.013 359.127 637.003 385.242 640.77 389.649L641.381 389.525L641.976 388.204C643.147 379.54 643.327 370.767 644.989 362.152C645.278 360.656 645.583 358.899 645.791 357.4C644.346 355.935 641.989 353.381 640.537 352.093ZM849.03 342.595C850.364 341.413 851.278 340.897 851.611 339.195L851.133 338.33C849.72 339.491 848.891 339.918 848.364 341.641C848.544 341.922 848.807 342.393 849.03 342.595ZM614.481 300.89C608.2 299.884 602.644 299.698 596.293 300.522C579.336 302.99 561.303 319.64 563.648 337.819C563.829 339.221 563.869 339.404 564.888 340.18C565.738 339.756 566.161 339.729 566.501 338.72C568.936 331.496 570.897 325.769 575.433 319.497C591.161 301.833 605.38 307.732 624.786 312.595C622.231 307.629 618.548 304.649 614.481 300.89ZM601.372 478.999C606.224 470.889 608.249 464.945 610.75 455.955C615.476 438.965 607.656 445.088 595.295 440.778C593.015 447.578 584.823 481.176 593.115 485.026C596.567 485.158 599.404 481.472 601.372 478.999ZM655.302 357.369C660.599 359.299 663.613 360.66 669.326 360.73C664.88 357.724 660.647 357.104 655.302 357.369ZM446.64 439.887C447.371 449.643 452.436 500.967 455.381 505.846L456.195 505.295C457.493 490.82 458.146 476.369 456.977 461.855C456.181 451.978 454.105 446.378 446.64 439.887ZM251.971 307.798C247.554 306.606 244.584 305.985 239.964 306.209C238.193 306.793 237.651 306.598 236.913 307.902C241.587 314.957 243.129 317.805 234.802 324.93C230.592 328.532 227.617 321.483 226.163 318.287C222.149 322.263 215.665 329.068 211.622 332.62C213.813 337.978 217.962 347.881 221.372 352.67C224.01 356.202 226.38 358.974 231.052 359.565C241.748 360.918 241.35 346.41 246.088 340.442C247.823 338.257 250.864 336.037 253.008 334.327C251.588 324.596 251.309 317.594 251.971 307.798ZM175.785 319.14C184.696 290.985 185.042 269.942 219.728 270.553C234.119 272.177 249.391 281.531 254.876 295.408C256.187 298.726 255.06 305.283 259.296 306.34C263.426 305.236 264.22 297.848 263.168 294.369C261.715 289.56 257.614 285.216 253.716 282.075C239.784 270.847 227.178 259.765 208.614 259.222C181.203 261.158 175.141 297.321 175.785 319.14ZM194.88 549.25C195.897 552.524 199.941 559.516 203.462 560.48C203.209 555.277 200.147 550.503 194.88 549.25ZM763.816 410.846C764.475 414.098 766.877 420.493 765.316 422.81C763.057 426.165 756.167 424.7 755.744 428.027C759.716 432.703 772.483 430.974 776.852 437.776C782.382 446.387 783.304 458.253 788.027 466.702C789.357 468.101 790.802 469.684 792.168 471.02C794.783 465.804 795.52 464.11 793.41 458.368C790.866 451.448 787 444.821 783.579 438.284C779.396 430.293 773.542 412.325 763.816 410.846ZM819.879 311.552C813.61 314.665 805.245 322.77 801.262 328.388C808.149 334.888 814.845 331.951 824.153 342.932C827.365 346.951 828.901 348.971 833.144 352.056C832.307 346.14 826.869 311.905 819.879 311.552ZM255.547 454.126L256.712 453.785L256.609 453.019C254.527 451.682 251.795 451.039 249.388 450.336L248.785 451.239C250.441 452.665 253.303 453.261 255.547 454.126Z"/><path fill="#33241B" transform="translate(0 -91)" d="M440.261 439.737L441.248 440.39C442.744 443.212 441.972 450.715 441.782 454.125C440.328 452.815 441.405 444.069 440.261 439.737Z"/><path fill="#33241B" transform="translate(0 -91)" d="M811.297 454.614L812.45 456.631C810.733 465.616 808.202 477.274 795.827 472.257C799.075 469.525 799.933 470.899 805.089 469.722L804.05 469.533C810.412 467.145 810.324 460.535 811.297 454.614Z"/><path fill="#33241B" transform="translate(0 -91)" d="M255.547 454.126C251.621 454.168 243.954 452.733 240.893 450.362L241.109 449.868C244.053 449.348 246.565 449.273 249.388 450.336L248.785 451.239C250.441 452.665 253.303 453.261 255.547 454.126Z"/><path fill="#33241B" transform="translate(0 -91)" d="M813.156 432.097C813.513 433.751 813.859 435.221 814.031 436.915C813.686 443.405 813.472 450.238 812.45 456.631L811.297 454.614C812.295 446.616 812.796 440.121 813.156 432.097Z"/><path fill="#33241B" transform="translate(0 -91)" d="M655.302 357.369C660.647 357.104 664.88 357.724 669.326 360.73C663.613 360.66 660.599 359.299 655.302 357.369Z"/><path fill="#33241B" transform="translate(0 -91)" d="M249.388 450.336C251.795 451.039 254.527 451.682 256.609 453.019L256.712 453.785L255.547 454.126C253.303 453.261 250.441 452.665 248.785 451.239L249.388 450.336Z"/><path fill="#33241B" transform="translate(0 -91)" d="M813.156 432.097C813.074 430.19 812.92 428.916 813.196 427.021L813.509 427.031C814.321 430.591 814.283 433.29 814.031 436.915C813.859 435.221 813.513 433.751 813.156 432.097Z"/><path fill="#33241B" transform="translate(0 -91)" d="M851.133 338.33L851.611 339.195C851.278 340.897 850.364 341.413 849.03 342.595C848.807 342.393 848.544 341.922 848.364 341.641C848.891 339.918 849.72 339.491 851.133 338.33Z"/><path fill="#33241B" transform="translate(0 -91)" d="M428.553 588.605C429.848 589.441 431.137 589.801 431.77 590.964L429.828 591.59C429.365 591.514 427.468 590.583 426.975 590.349L426.908 589.634L428.553 588.605Z"/><path fill="#33241B" transform="translate(0 -91)" d="M822.71 391.906L822.91 391.791L823.102 391.982C821.166 392.704 819.517 392.953 817.494 393.332C817.022 393.1 817.011 392.991 816.619 392.59C817.722 391.831 821.186 391.95 822.71 391.906Z"/></g></svg>