<svg xmlns="http://www.w3.org/2000/svg" xmlns:xlink="http://www.w3.org/1999/xlink" width="500" zoomAndPan="magnify" viewBox="0 0 375 374.999991" height="500" preserveAspectRatio="xMidYMid meet" version="1.2"><defs><clipPath id="c4d9f0ae78"><path d="M 97.695312 0.0976562 L 295.246094 0.0976562 L 295.246094 203.042969 L 97.695312 203.042969 Z M 97.695312 0.0976562 "/></clipPath></defs><g id="4685114932"><rect x="0" width="375" y="0" height="374.999991" style="fill:#ffffff;fill-opacity:1;stroke:none;"/><rect x="0" width="375" y="0" height="374.999991" style="fill:#ffffff;fill-opacity:1;stroke:none;"/><g clip-rule="nonzero" clip-path="url(#c4d9f0ae78)"><path style=" stroke:none;fill-rule:nonzero;fill:#797b6c;fill-opacity:1;" d="M 196.292969 0.0976562 C 266.472656 3.09375 298.015625 53.984375 295.054688 126.128906 C 294.042969 150.722656 281.203125 168.976562 263.171875 182.515625 C 259.140625 185.542969 253.871094 186.722656 250.761719 181.214844 C 248.011719 176.335938 252.597656 173.71875 255.449219 171.476562 C 286.617188 146.992188 289.222656 113.660156 279.59375 76.398438 C 270.105469 39.660156 243.175781 17.367188 203.53125 13.546875 C 171.0625 10.417969 141.699219 28.925781 127.386719 61.53125 C 104.648438 113.320312 116.449219 156.332031 159.050781 176.953125 C 196.363281 195.011719 240.5625 159.96875 236.527344 115.449219 C 235.863281 108.167969 234.722656 100.929688 233.648438 93.695312 C 231.289062 77.800781 224.050781 66.316406 209.1875 63.09375 C 194.183594 59.839844 180.484375 63.898438 171.527344 78.039062 C 162.425781 92.414062 159.722656 109.148438 166.671875 125.671875 C 170.285156 134.253906 176.445312 134.980469 181.335938 125.777344 C 182.761719 123.085938 183.609375 120.015625 184.996094 117.289062 C 188.703125 110.003906 192.417969 100.46875 201.402344 103.347656 C 211.835938 106.695312 210.480469 118.15625 209.652344 127.332031 C 208.242188 142.917969 196.390625 156.105469 182.269531 159.273438 C 168.125 162.445312 153.855469 154.746094 147.929688 138.765625 C 139.867188 117.023438 141.644531 95.875 154.082031 76.210938 C 166.320312 56.867188 182.367188 45.53125 204.152344 47.074219 C 228.027344 48.765625 242.933594 65.808594 245.355469 93.179688 C 245.90625 99.421875 246.148438 105.714844 246.949219 111.917969 C 254.550781 170.753906 218.621094 197.289062 175.109375 202.667969 C 135.40625 207.574219 96.859375 164.019531 97.710938 118.140625 C 98.566406 72.003906 116.179688 35.675781 151.726562 10.761719 C 165.121094 1.371094 180.082031 0.324219 196.292969 0.0976562 "/></g><g style="fill:#f49167;fill-opacity:1;"><g transform="translate(84.507646, 372.461527)"><path style="stroke:none" d="M 11.015625 -17.171875 L 11.015625 0 L 6.28125 0 L 6.28125 -17.171875 L 0.15625 -17.171875 L 0.15625 -21.46875 L 17.140625 -21.46875 L 17.140625 -17.171875 Z M 11.015625 -17.171875 "/></g></g><g style="fill:#f49167;fill-opacity:1;"><g transform="translate(111.277531, 372.461527)"><path style="stroke:none" d="M 13.578125 -8.203125 L 10.859375 -15.84375 L 8.140625 -8.203125 Z M 21.59375 0 L 16.5 0 L 14.953125 -4.328125 L 6.78125 -4.328125 L 5.234375 0 L 0.15625 0 L 8.875 -21.46875 L 12.875 -21.46875 Z M 21.59375 0 "/></g></g><g style="fill:#f49167;fill-opacity:1;"><g transform="translate(142.49743, 372.461527)"><path style="stroke:none" d="M 1.890625 0 L 1.890625 -21.46875 L 6.625 -21.46875 L 6.625 -4.296875 L 14.328125 -4.296875 L 14.328125 0 Z M 1.890625 0 "/></g></g><g style="fill:#f49167;fill-opacity:1;"><g transform="translate(167.405263, 372.461527)"><path style="stroke:none" d="M 1.890625 0 L 1.890625 -21.46875 L 6.625 -21.46875 L 6.625 -4.296875 L 14.328125 -4.296875 L 14.328125 0 Z M 1.890625 0 "/></g></g><g style="fill:#f49167;fill-opacity:1;"><g transform="translate(192.313097, 372.461527)"><path style="stroke:none" d="M 14.328125 -4.296875 L 14.328125 0 L 1.890625 0 L 1.890625 -21.46875 L 14.328125 -21.46875 L 14.328125 -17.171875 L 6.625 -17.171875 L 6.625 -12.90625 L 14.015625 -12.90625 L 14.015625 -8.609375 L 6.625 -8.609375 L 6.625 -4.296875 Z M 14.328125 -4.296875 "/></g></g><g style="fill:#f49167;fill-opacity:1;"><g transform="translate(218.009939, 372.461527)"><path style="stroke:none" d="M 6.625 -7.671875 L 6.625 0 L 1.890625 0 L 1.890625 -21.46875 L 9.9375 -21.46875 C 11.09375 -21.46875 12.171875 -21.175781 13.171875 -20.59375 C 14.171875 -20.019531 14.972656 -19.21875 15.578125 -18.1875 C 16.191406 -17.15625 16.5 -15.953125 16.5 -14.578125 C 16.5 -13.378906 16.28125 -12.316406 15.84375 -11.390625 C 15.40625 -10.460938 14.816406 -9.703125 14.078125 -9.109375 C 13.335938 -8.523438 12.515625 -8.117188 11.609375 -7.890625 L 17.765625 0 L 11.765625 0 L 6.65625 -7.671875 Z M 9.15625 -17.734375 L 6.625 -17.734375 L 6.625 -11.390625 L 9.15625 -11.390625 C 9.84375 -11.390625 10.488281 -11.660156 11.09375 -12.203125 C 11.695312 -12.753906 12 -13.546875 12 -14.578125 C 12 -15.566406 11.695312 -16.335938 11.09375 -16.890625 C 10.488281 -17.453125 9.84375 -17.734375 9.15625 -17.734375 Z M 9.15625 -17.734375 "/></g></g><g style="fill:#f49167;fill-opacity:1;"><g transform="translate(244.874512, 372.461527)"><path style="stroke:none" d="M 14.328125 -4.296875 L 14.328125 0 L 1.890625 0 L 1.890625 -21.46875 L 14.328125 -21.46875 L 14.328125 -17.171875 L 6.625 -17.171875 L 6.625 -12.90625 L 14.015625 -12.90625 L 14.015625 -8.609375 L 6.625 -8.609375 L 6.625 -4.296875 Z M 14.328125 -4.296875 "/></g></g><g style="fill:#f49167;fill-opacity:1;"><g transform="translate(270.571354, 372.461527)"><path style="stroke:none" d="M 10.21875 -3.34375 C 10.726562 -3.34375 11.273438 -3.421875 11.859375 -3.578125 C 12.453125 -3.734375 12.960938 -3.992188 13.390625 -4.359375 C 13.828125 -4.734375 14.046875 -5.238281 14.046875 -5.875 C 14.046875 -6.457031 13.816406 -6.925781 13.359375 -7.28125 C 12.910156 -7.644531 12.316406 -7.941406 11.578125 -8.171875 C 10.847656 -8.398438 10.046875 -8.613281 9.171875 -8.8125 C 8.296875 -9.019531 7.414062 -9.265625 6.53125 -9.546875 C 5.644531 -9.828125 4.832031 -10.195312 4.09375 -10.65625 C 3.363281 -11.125 2.769531 -11.726562 2.3125 -12.46875 C 1.863281 -13.207031 1.640625 -14.144531 1.640625 -15.28125 C 1.640625 -16.394531 1.867188 -17.351562 2.328125 -18.15625 C 2.796875 -18.96875 3.410156 -19.640625 4.171875 -20.171875 C 4.941406 -20.710938 5.804688 -21.113281 6.765625 -21.375 C 7.722656 -21.644531 8.6875 -21.78125 9.65625 -21.78125 C 11.132812 -21.78125 12.515625 -21.546875 13.796875 -21.078125 C 15.078125 -20.617188 16.125 -19.890625 16.9375 -18.890625 C 17.75 -17.890625 18.175781 -16.566406 18.21875 -14.921875 L 13.640625 -14.921875 C 13.515625 -16.046875 13.125 -16.820312 12.46875 -17.25 C 11.8125 -17.675781 10.894531 -17.890625 9.71875 -17.890625 C 9.28125 -17.890625 8.8125 -17.816406 8.3125 -17.671875 C 7.820312 -17.523438 7.398438 -17.285156 7.046875 -16.953125 C 6.703125 -16.628906 6.53125 -16.195312 6.53125 -15.65625 C 6.53125 -15.101562 6.753906 -14.671875 7.203125 -14.359375 C 7.660156 -14.046875 8.253906 -13.78125 8.984375 -13.5625 C 9.722656 -13.351562 10.535156 -13.15625 11.421875 -12.96875 C 12.304688 -12.78125 13.1875 -12.550781 14.0625 -12.28125 C 14.9375 -12.007812 15.738281 -11.632812 16.46875 -11.15625 C 17.207031 -10.6875 17.800781 -10.070312 18.25 -9.3125 C 18.707031 -8.550781 18.9375 -7.582031 18.9375 -6.40625 C 18.9375 -5.144531 18.679688 -4.070312 18.171875 -3.1875 C 17.671875 -2.300781 16.992188 -1.585938 16.140625 -1.046875 C 15.285156 -0.515625 14.328125 -0.125 13.265625 0.125 C 12.203125 0.375 11.125 0.5 10.03125 0.5 C 8.457031 0.5 6.976562 0.234375 5.59375 -0.296875 C 4.21875 -0.835938 3.101562 -1.664062 2.25 -2.78125 C 1.40625 -3.894531 0.972656 -5.320312 0.953125 -7.0625 L 5.75 -7.0625 C 5.8125 -5.78125 6.28125 -4.835938 7.15625 -4.234375 C 8.039062 -3.640625 9.0625 -3.34375 10.21875 -3.34375 Z M 10.21875 -3.34375 "/></g></g><g style="fill:#f1e2c2;fill-opacity:1;"><g transform="translate(9.431009, 314.906263)"><path style="stroke:none" d="M 22.796875 -6.859375 L 22.796875 -6.984375 L 22.671875 -7.109375 C 22.671875 -7.191406 22.585938 -7.273438 22.421875 -7.359375 C 22.253906 -7.515625 22.132812 -7.59375 22.0625 -7.59375 L 21.9375 -7.71875 C 21.9375 -7.800781 21.851562 -7.925781 21.6875 -8.09375 L 20.578125 -9.3125 L 20.21875 -10.171875 L 19.84375 -10.171875 C 19.84375 -10.335938 19.804688 -10.457031 19.734375 -10.53125 L 19.609375 -10.78125 L 19.359375 -11.03125 C 19.117188 -11.1875 18.957031 -11.390625 18.875 -11.640625 L 18.625 -11.890625 L 18.5 -12.125 C 18.332031 -12.289062 18.171875 -12.457031 18.015625 -12.625 L 18.015625 -13.109375 C 18.015625 -13.273438 17.929688 -13.398438 17.765625 -13.484375 C 17.679688 -13.640625 17.597656 -13.757812 17.515625 -13.84375 C 17.515625 -14.007812 17.394531 -14.210938 17.15625 -14.453125 L 16.90625 -14.953125 C 16.75 -15.035156 16.671875 -15.113281 16.671875 -15.1875 L 16.671875 -15.4375 C 16.585938 -15.4375 16.546875 -15.597656 16.546875 -15.921875 L 16.046875 -16.90625 L 15.8125 -17.40625 C 15.726562 -17.476562 15.6875 -17.597656 15.6875 -17.765625 L 15.6875 -18.015625 L 15.5625 -18.140625 C 15.394531 -18.210938 15.351562 -18.332031 15.4375 -18.5 L 15.4375 -18.625 C 15.351562 -18.707031 15.3125 -18.789062 15.3125 -18.875 L 15.1875 -19.109375 L 15.078125 -19.359375 C 14.992188 -19.765625 14.867188 -20.007812 14.703125 -20.09375 L 14.703125 -20.953125 L 14.578125 -21.078125 L 14.578125 -21.9375 L 14.34375 -22.171875 L 14.34375 -23.03125 L 14.09375 -23.28125 L 14.09375 -23.765625 C 14.007812 -23.765625 13.96875 -23.804688 13.96875 -23.890625 C 13.882812 -23.972656 13.84375 -24.175781 13.84375 -24.5 C 13.84375 -24.582031 13.757812 -24.707031 13.59375 -24.875 L 13.59375 -25.734375 L 13.484375 -25.859375 C 13.554688 -25.941406 13.59375 -26.019531 13.59375 -26.09375 L 13.59375 -26.21875 L 13.484375 -26.34375 L 13.484375 -27.453125 L 13.234375 -27.6875 C 13.148438 -27.851562 13.148438 -28.019531 13.234375 -28.1875 L 13.234375 -28.546875 L 12.984375 -28.796875 L 12.984375 -29.65625 L 12.75 -29.890625 L 12.75 -31.984375 C 12.75 -32.066406 12.664062 -32.1875 12.5 -32.34375 L 12.5 -32.953125 L 12.75 -33.203125 L 12.5 -33.453125 C 12.664062 -33.453125 12.75 -33.535156 12.75 -33.703125 L 12.75 -33.9375 L 12.625 -34.0625 C 12.625 -34.144531 12.664062 -34.226562 12.75 -34.3125 C 12.664062 -34.394531 12.625 -34.472656 12.625 -34.546875 C 12.707031 -34.628906 12.75 -34.710938 12.75 -34.796875 L 12.75 -36.03125 L 12.5 -36.265625 L 12.75 -36.515625 L 12.75 -36.765625 L 12.625 -37 L 12.625 -37.859375 C 12.625 -37.941406 12.664062 -37.984375 12.75 -37.984375 L 12.75 -39.828125 L 12.984375 -40.0625 L 12.984375 -41.171875 C 13.066406 -41.253906 13.148438 -41.296875 13.234375 -41.296875 L 13.234375 -42.890625 L 13.484375 -43.125 L 13.484375 -44.484375 L 13.71875 -44.71875 C 13.632812 -44.882812 13.554688 -45.050781 13.484375 -45.21875 C 13.398438 -45.457031 13.273438 -45.617188 13.109375 -45.703125 L 12.625 -45.703125 L 12.5 -45.828125 L 11.515625 -45.828125 L 10.90625 -46.5625 L 9.796875 -46.5625 L 9.5625 -46.3125 C 9.394531 -46.3125 9.269531 -46.351562 9.1875 -46.4375 L 9.0625 -46.5625 C 8.90625 -46.726562 8.742188 -46.8125 8.578125 -46.8125 L 8.578125 -47.046875 L 7.84375 -47.78125 C 6.863281 -48.195312 6.171875 -48.609375 5.765625 -49.015625 L 5.640625 -49.015625 L 5.515625 -48.890625 C 5.347656 -48.890625 5.222656 -48.972656 5.140625 -49.140625 C 5.066406 -49.140625 4.988281 -49.175781 4.90625 -49.25 C 4.820312 -49.332031 4.695312 -49.375 4.53125 -49.375 L 4.40625 -49.5 C 4.320312 -49.582031 4.203125 -49.625 4.046875 -49.625 C 3.796875 -49.625 3.59375 -49.707031 3.4375 -49.875 C 3.269531 -50.03125 3.144531 -50.109375 3.0625 -50.109375 L 2.703125 -50.109375 L 2.453125 -50.734375 L 2.203125 -51.21875 L 1.953125 -51.46875 L 1.71875 -51.578125 C 1.550781 -51.660156 1.425781 -51.785156 1.34375 -51.953125 L 1.34375 -52.328125 C 1.507812 -52.734375 1.675781 -53.015625 1.84375 -53.171875 L 2.703125 -53.171875 L 2.9375 -52.9375 L 3.4375 -52.9375 L 3.546875 -52.8125 L 3.546875 -52.6875 L 7.59375 -52.6875 L 7.84375 -52.9375 L 9.796875 -52.9375 L 10.046875 -53.171875 L 10.171875 -53.0625 L 10.171875 -52.9375 L 10.421875 -53.171875 L 12.375 -53.171875 L 12.5 -53.296875 L 12.625 -53.296875 L 13.484375 -53.421875 L 14.34375 -53.421875 L 14.703125 -53.546875 L 14.953125 -53.671875 L 14.953125 -54.15625 L 15.1875 -54.40625 L 15.1875 -54.765625 L 15.4375 -55.015625 L 15.4375 -56.125 C 15.4375 -56.195312 15.476562 -56.234375 15.5625 -56.234375 C 15.726562 -56.316406 15.769531 -56.398438 15.6875 -56.484375 L 15.6875 -56.984375 C 15.769531 -56.984375 15.890625 -57.1875 16.046875 -57.59375 L 16.046875 -57.828125 L 16.296875 -58.078125 L 16.296875 -58.5625 L 16.546875 -58.8125 L 16.546875 -59.1875 C 16.546875 -59.34375 16.585938 -59.421875 16.671875 -59.421875 L 16.90625 -60.15625 C 16.988281 -60.238281 17.070312 -60.445312 17.15625 -60.78125 L 17.15625 -61.390625 L 17.40625 -61.640625 L 17.40625 -62.125 L 17.640625 -62.375 L 17.640625 -62.734375 L 17.765625 -62.859375 L 17.765625 -62.984375 C 17.929688 -63.066406 17.972656 -63.144531 17.890625 -63.21875 L 17.890625 -63.46875 L 18.140625 -63.71875 L 18.25 -63.96875 C 18.25 -64.039062 18.332031 -64.117188 18.5 -64.203125 C 18.414062 -64.367188 18.457031 -64.535156 18.625 -64.703125 L 18.75 -64.9375 L 18.75 -65.1875 C 18.914062 -65.351562 19.078125 -65.597656 19.234375 -65.921875 L 19.359375 -66.171875 L 19.609375 -66.53125 C 19.609375 -66.695312 19.6875 -66.863281 19.84375 -67.03125 L 20.34375 -67.03125 C 20.425781 -67.101562 20.46875 -67.347656 20.46875 -67.765625 C 20.46875 -67.921875 20.382812 -68 20.21875 -68 L 20.21875 -68.625 C 20.707031 -69.4375 20.953125 -70.003906 20.953125 -70.328125 C 21.035156 -70.410156 21.117188 -70.453125 21.203125 -70.453125 L 21.6875 -71.5625 L 22.296875 -72.296875 C 22.460938 -72.378906 22.546875 -72.457031 22.546875 -72.53125 L 22.796875 -73.03125 L 23.03125 -73.15625 C 23.113281 -73.238281 23.195312 -73.359375 23.28125 -73.515625 C 23.363281 -73.597656 23.40625 -73.722656 23.40625 -73.890625 L 23.65625 -73.890625 L 24.5 -74.625 L 24.875 -75.109375 L 25.125 -75.484375 C 25.125 -75.722656 25.203125 -75.925781 25.359375 -76.09375 C 25.523438 -76.175781 25.609375 -76.257812 25.609375 -76.34375 L 25.609375 -76.453125 L 25.859375 -76.828125 L 26.09375 -77.1875 C 26.257812 -77.519531 26.425781 -77.769531 26.59375 -77.9375 C 26.75 -78.425781 26.953125 -78.832031 27.203125 -79.15625 L 27.9375 -79.890625 L 28.0625 -80.140625 L 28.1875 -80.375 C 28.425781 -80.539062 28.503906 -80.707031 28.421875 -80.875 L 29.890625 -82.21875 L 30.265625 -82.21875 L 30.75 -81.96875 C 30.832031 -81.882812 30.875 -81.804688 30.875 -81.734375 C 31.53125 -81.078125 31.941406 -80.625 32.109375 -80.375 L 32.34375 -80.265625 L 32.46875 -80.140625 C 32.46875 -80.054688 32.550781 -80.015625 32.71875 -80.015625 C 32.957031 -80.015625 33.078125 -79.890625 33.078125 -79.640625 C 33.078125 -79.554688 33.160156 -79.4375 33.328125 -79.28125 L 33.453125 -79.28125 L 33.578125 -79.15625 C 33.660156 -79.15625 33.738281 -79.070312 33.8125 -78.90625 C 33.976562 -78.75 34.101562 -78.546875 34.1875 -78.296875 L 34.1875 -77.8125 C 34.1875 -77.644531 34.269531 -77.5625 34.4375 -77.5625 L 34.4375 -77.078125 L 34.671875 -77.078125 L 34.796875 -76.953125 L 34.796875 -76.578125 C 34.796875 -76.492188 34.753906 -76.414062 34.671875 -76.34375 C 34.585938 -76.257812 34.546875 -76.132812 34.546875 -75.96875 C 34.390625 -75.800781 34.390625 -75.472656 34.546875 -74.984375 L 34.546875 -74.859375 L 34.3125 -74.625 L 33.453125 -74.625 L 33.078125 -74.25 L 33.078125 -73.890625 C 32.992188 -73.804688 32.914062 -73.640625 32.84375 -73.390625 C 32.757812 -73.234375 32.632812 -73.070312 32.46875 -72.90625 C 32.46875 -72.820312 32.550781 -72.695312 32.71875 -72.53125 C 32.550781 -72.375 32.425781 -72.296875 32.34375 -72.296875 L 32.59375 -72.046875 L 32.59375 -71.3125 L 31.984375 -70.703125 L 31.984375 -69.71875 L 31.859375 -69.46875 L 31.734375 -69.46875 C 31.648438 -69.394531 31.648438 -69.273438 31.734375 -69.109375 L 31.984375 -68.859375 L 31.984375 -68.5 L 31.734375 -68.25 L 31.984375 -68 L 31.484375 -67.640625 L 31.484375 -66.78125 L 31.125 -66.046875 L 31.125 -64.578125 L 30.875 -64.328125 L 30.140625 -62.609375 L 30.140625 -61.75 L 30.015625 -61.640625 L 30.015625 -61.265625 L 29.65625 -60.65625 L 29.53125 -60.40625 L 29.28125 -60.046875 L 29.28125 -59.1875 L 29.15625 -59.0625 C 29.15625 -58.894531 29.195312 -58.8125 29.28125 -58.8125 L 29.28125 -58.203125 L 28.921875 -57.34375 L 28.921875 -56.984375 C 28.753906 -56.984375 28.671875 -56.898438 28.671875 -56.734375 L 28.671875 -55.625 C 28.835938 -55.625 28.921875 -55.546875 28.921875 -55.390625 L 29.40625 -55.390625 L 29.65625 -55.140625 L 30.265625 -55.140625 L 30.515625 -55.390625 L 33.8125 -55.390625 L 34.0625 -55.140625 L 35.28125 -55.140625 C 35.363281 -55.140625 35.488281 -55.054688 35.65625 -54.890625 L 36.265625 -54.890625 L 36.515625 -54.65625 L 37.609375 -54.65625 C 37.691406 -54.570312 37.773438 -54.53125 37.859375 -54.53125 C 38.023438 -54.613281 38.191406 -54.570312 38.359375 -54.40625 L 38.46875 -54.28125 L 38.71875 -54.28125 C 38.71875 -54.113281 38.800781 -53.953125 38.96875 -53.796875 L 39.203125 -53.296875 C 39.285156 -53.140625 39.285156 -52.976562 39.203125 -52.8125 L 39.9375 -52.078125 C 39.9375 -51.992188 40.019531 -51.867188 40.1875 -51.703125 C 40.351562 -51.617188 40.394531 -51.5 40.3125 -51.34375 C 40.5625 -50.9375 40.765625 -50.8125 40.921875 -50.96875 C 40.921875 -50.882812 40.960938 -50.804688 41.046875 -50.734375 L 41.046875 -50.359375 L 41.421875 -50 L 41.171875 -49.75 L 41.171875 -49.25 L 41.421875 -49.25 C 41.910156 -48.757812 42.191406 -48.4375 42.265625 -48.28125 C 42.265625 -48.195312 42.1875 -48.070312 42.03125 -47.90625 C 41.863281 -47.90625 41.78125 -47.863281 41.78125 -47.78125 C 41.457031 -47.707031 41.210938 -47.503906 41.046875 -47.171875 L 40.796875 -46.6875 L 40.5625 -46.4375 L 40.5625 -46.078125 C 40.476562 -45.910156 40.3125 -45.785156 40.0625 -45.703125 C 39.90625 -45.535156 39.742188 -45.375 39.578125 -45.21875 L 39.203125 -45.21875 L 38.84375 -44.96875 L 37.984375 -44.96875 L 37.734375 -44.71875 L 37.125 -44.71875 C 37.039062 -44.71875 37 -44.675781 37 -44.59375 C 36.757812 -44.59375 36.597656 -44.554688 36.515625 -44.484375 C 36.429688 -44.484375 36.347656 -44.441406 36.265625 -44.359375 L 35.171875 -44.359375 L 34.921875 -44.109375 L 33.203125 -44.109375 L 32.953125 -44.359375 C 32.796875 -44.191406 32.675781 -44.109375 32.59375 -44.109375 C 32.425781 -44.109375 32.34375 -44.191406 32.34375 -44.359375 L 32.109375 -44.109375 L 31.609375 -43.859375 L 31.375 -44.109375 L 31.375 -43.984375 L 31.25 -43.859375 L 31 -44.109375 L 29.15625 -44.109375 C 29.082031 -44.023438 29.046875 -43.941406 29.046875 -43.859375 L 28.0625 -43.859375 L 27.453125 -43.625 L 27.078125 -43.375 L 27.078125 -43.125 L 26.46875 -42.390625 L 26.46875 -41.171875 L 26.21875 -40.921875 L 26.21875 -39.578125 L 25.984375 -39.328125 L 26.21875 -39.09375 L 25.984375 -38.84375 C 25.984375 -38.757812 26.0625 -38.632812 26.21875 -38.46875 L 26.21875 -37.859375 L 25.984375 -37.609375 L 25.984375 -36.515625 L 26.21875 -36.265625 L 26.21875 -34.3125 L 25.984375 -34.0625 L 25.984375 -32.59375 L 26.21875 -32.34375 L 25.984375 -32.109375 L 26.21875 -31.859375 L 26.21875 -30.390625 L 26.46875 -30.140625 L 26.21875 -29.890625 L 26.21875 -29.046875 L 26.46875 -28.796875 L 26.21875 -28.546875 C 26.300781 -28.304688 26.46875 -28.0625 26.71875 -27.8125 L 26.71875 -25.984375 C 26.789062 -25.898438 26.828125 -25.816406 26.828125 -25.734375 L 26.828125 -24.625 L 27.078125 -24.390625 L 27.078125 -23.53125 L 27.328125 -23.28125 L 27.328125 -22.421875 L 27.5625 -21.9375 L 27.8125 -21.6875 L 27.8125 -21.203125 L 28.1875 -20.34375 C 28.269531 -20.34375 28.1875 -20.21875 27.9375 -19.96875 L 28.1875 -19.734375 L 28.1875 -19.109375 L 28.421875 -18.625 L 28.671875 -18.375 L 28.671875 -17.40625 C 28.835938 -17.070312 29 -16.785156 29.15625 -16.546875 C 29.320312 -16.546875 29.40625 -16.460938 29.40625 -16.296875 C 29.488281 -16.128906 29.570312 -16.003906 29.65625 -15.921875 L 29.65625 -15.8125 C 29.8125 -15.476562 29.972656 -15.191406 30.140625 -14.953125 C 30.222656 -14.867188 30.304688 -14.742188 30.390625 -14.578125 L 30.625 -13.96875 L 30.875 -13.71875 L 30.75 -13.71875 L 30.625 -13.59375 L 31 -13.109375 C 31 -13.023438 30.957031 -12.941406 30.875 -12.859375 L 31.125 -12.625 L 31.125 -12.25 L 31.484375 -12.015625 L 31.484375 -11.765625 C 31.898438 -11.515625 32.226562 -11.1875 32.46875 -10.78125 C 32.71875 -10.613281 32.921875 -10.410156 33.078125 -10.171875 L 33.078125 -9.921875 L 33.328125 -9.796875 L 33.453125 -9.6875 C 33.617188 -9.351562 33.820312 -9.066406 34.0625 -8.828125 L 34.3125 -8.578125 C 34.394531 -8.410156 34.515625 -8.328125 34.671875 -8.328125 C 34.835938 -8.328125 34.960938 -8.285156 35.046875 -8.203125 C 35.128906 -8.046875 35.207031 -7.96875 35.28125 -7.96875 L 35.90625 -7.46875 L 36.390625 -7.46875 L 36.515625 -7.359375 L 36.765625 -7.359375 L 36.875 -7.234375 L 37 -7.234375 L 37.125 -7.109375 L 37.734375 -7.109375 L 37.984375 -6.859375 L 38.46875 -6.859375 L 38.71875 -6.609375 L 39.09375 -6.609375 L 39.328125 -6.375 L 40.1875 -6.375 L 40.4375 -6.125 L 41.65625 -6.125 L 41.78125 -6 L 44.234375 -6 L 44.359375 -6.125 L 46.078125 -6.859375 L 46.1875 -7.109375 L 46.3125 -7.234375 C 46.476562 -7.316406 46.5625 -7.394531 46.5625 -7.46875 L 47.046875 -7.46875 C 47.128906 -7.394531 47.171875 -7.234375 47.171875 -6.984375 L 47.046875 -6.609375 L 46.921875 -6.375 C 46.921875 -6.207031 46.800781 -6.003906 46.5625 -5.765625 L 46.3125 -5.03125 L 46.3125 -4.78125 C 46.070312 -4.53125 45.953125 -4.363281 45.953125 -4.28125 C 45.867188 -4.207031 45.785156 -4.046875 45.703125 -3.796875 C 45.617188 -3.554688 45.5 -3.351562 45.34375 -3.1875 C 45.175781 -3.019531 45.007812 -2.773438 44.84375 -2.453125 L 44.59375 -1.953125 L 44.359375 -1.59375 L 43.625 -1.59375 L 43.25 -1.34375 L 42.765625 -1.34375 C 42.429688 -1.257812 42.019531 -1.015625 41.53125 -0.609375 L 40.6875 -0.609375 C 40.601562 -0.609375 40.519531 -0.566406 40.4375 -0.484375 L 40.0625 -0.484375 C 39.90625 -0.484375 39.742188 -0.445312 39.578125 -0.375 C 39.492188 -0.375 39.410156 -0.332031 39.328125 -0.25 L 38.46875 -0.25 L 38.234375 0 L 35.53125 0 L 35.53125 -0.125 L 35.40625 -0.25 L 34.3125 -0.25 C 34.226562 -0.332031 34.144531 -0.375 34.0625 -0.375 L 33.453125 -0.375 L 33.203125 -0.609375 L 32.46875 -0.609375 C 32.46875 -0.773438 32.382812 -0.859375 32.21875 -0.859375 L 31.859375 -0.859375 L 31.734375 -0.984375 C 31.410156 -1.066406 31.082031 -1.1875 30.75 -1.34375 L 30.265625 -1.59375 L 29.890625 -1.71875 C 29.816406 -1.875 29.738281 -1.953125 29.65625 -1.953125 L 29.40625 -2.078125 L 29.28125 -2.078125 L 28.671875 -2.328125 L 28.1875 -2.578125 L 27.328125 -2.9375 C 27.242188 -3.101562 27.078125 -3.226562 26.828125 -3.3125 C 26.671875 -3.394531 26.507812 -3.472656 26.34375 -3.546875 L 26.09375 -3.546875 C 26.019531 -3.546875 25.984375 -3.585938 25.984375 -3.671875 C 25.898438 -3.835938 25.816406 -3.921875 25.734375 -3.921875 L 25.234375 -4.171875 C 25.160156 -4.328125 25.039062 -4.445312 24.875 -4.53125 C 24.707031 -4.613281 24.546875 -4.695312 24.390625 -4.78125 C 24.390625 -4.945312 24.347656 -5.066406 24.265625 -5.140625 C 24.179688 -5.222656 24.097656 -5.304688 24.015625 -5.390625 C 23.773438 -5.640625 23.65625 -5.800781 23.65625 -5.875 L 23.53125 -6.125 L 23.40625 -6.25 C 23.320312 -6.332031 23.238281 -6.414062 23.15625 -6.5 L 23.15625 -6.734375 L 23.03125 -6.859375 Z M 22.796875 -6.859375 "/></g></g><g style="fill:#f1e2c2;fill-opacity:1;"><g transform="translate(61.139856, 314.906263)"><path style="stroke:none" d="M 5.265625 -11.890625 L 5.265625 -12.015625 L 4.90625 -12.25 C 4.90625 -12.414062 4.984375 -13.070312 5.140625 -14.21875 C 4.734375 -14.863281 4.53125 -15.394531 4.53125 -15.8125 C 4.695312 -15.96875 4.820312 -16.128906 4.90625 -16.296875 C 4.976562 -16.546875 5.054688 -16.707031 5.140625 -16.78125 L 4.65625 -17.890625 C 4.820312 -17.890625 4.941406 -17.929688 5.015625 -18.015625 L 5.015625 -18.375 C 4.941406 -18.457031 4.90625 -18.539062 4.90625 -18.625 C 4.65625 -19.113281 4.53125 -19.601562 4.53125 -20.09375 C 4.53125 -20.257812 4.445312 -20.75 4.28125 -21.5625 C 4.53125 -22.382812 4.816406 -23.039062 5.140625 -23.53125 C 5.140625 -24.019531 5.019531 -24.425781 4.78125 -24.75 L 4.78125 -25.234375 C 5.1875 -26.054688 5.144531 -27.082031 4.65625 -28.3125 C 4.65625 -28.632812 4.695312 -28.835938 4.78125 -28.921875 C 4.613281 -29.078125 4.488281 -29.28125 4.40625 -29.53125 C 4.894531 -30.1875 5.019531 -30.757812 4.78125 -31.25 L 5.140625 -32.109375 C 5.054688 -32.265625 5.015625 -32.628906 5.015625 -33.203125 L 5.015625 -33.578125 L 4.90625 -33.8125 C 4.820312 -34.0625 4.859375 -34.269531 5.015625 -34.4375 L 5.265625 -34.4375 L 5.390625 -34.3125 L 5.515625 -34.796875 L 5.515625 -35.40625 L 5.390625 -35.65625 L 5.640625 -35.90625 C 5.878906 -36.550781 5.796875 -37.445312 5.390625 -38.59375 L 5.75 -38.59375 C 5.914062 -38.507812 6.039062 -38.46875 6.125 -38.46875 L 6.125 -39.203125 L 6 -39.828125 L 6.484375 -40.1875 C 6.410156 -40.59375 6.25 -40.878906 6 -41.046875 C 6.164062 -41.296875 6.410156 -41.421875 6.734375 -41.421875 L 6.484375 -42.15625 L 7.109375 -42.890625 C 6.941406 -43.210938 6.898438 -43.617188 6.984375 -44.109375 L 6.984375 -45.953125 C 7.148438 -46.109375 7.234375 -46.226562 7.234375 -46.3125 L 7.46875 -48.40625 C 7.46875 -49.21875 7.265625 -49.785156 6.859375 -50.109375 L 7.34375 -50.234375 L 7.71875 -50.234375 C 7.882812 -50.398438 7.800781 -50.601562 7.46875 -50.84375 C 7.71875 -51.09375 7.84375 -51.335938 7.84375 -51.578125 C 7.757812 -51.828125 7.757812 -52.078125 7.84375 -52.328125 L 7.84375 -53.296875 L 7.46875 -53.671875 C 7.632812 -54.078125 7.71875 -54.8125 7.71875 -55.875 C 7.71875 -56.53125 7.921875 -57.179688 8.328125 -57.828125 L 8.8125 -58.8125 L 9.0625 -58.9375 L 9.1875 -58.9375 C 9.351562 -59.257812 9.351562 -59.546875 9.1875 -59.796875 L 8.8125 -60.046875 L 8.703125 -60.28125 C 8.703125 -60.445312 8.78125 -60.570312 8.9375 -60.65625 L 9.1875 -60.78125 L 9.4375 -60.890625 L 10.90625 -65.1875 L 10.296875 -65.796875 C 10.367188 -65.710938 10.570312 -65.671875 10.90625 -65.671875 C 10.988281 -65.753906 11.066406 -65.960938 11.140625 -66.296875 L 10.90625 -66.40625 L 10.90625 -66.53125 C 10.820312 -66.613281 10.695312 -66.65625 10.53125 -66.65625 L 11.140625 -67.265625 C 11.140625 -67.023438 11.179688 -66.863281 11.265625 -66.78125 C 11.597656 -66.863281 11.882812 -67.148438 12.125 -67.640625 L 11.515625 -68.125 L 11.640625 -68 C 11.390625 -68.082031 11.222656 -68.164062 11.140625 -68.25 C 11.140625 -68.414062 11.222656 -68.5 11.390625 -68.5 L 11.640625 -68.5 L 11.890625 -68.625 L 11.890625 -69.109375 L 11.765625 -69.59375 C 11.765625 -70 11.84375 -70.328125 12 -70.578125 L 12.734375 -71.1875 L 12.984375 -72.046875 C 13.234375 -72.535156 13.5625 -72.984375 13.96875 -73.390625 L 14.09375 -73.515625 L 14.09375 -73.640625 C 14.414062 -73.722656 14.738281 -74.007812 15.0625 -74.5 L 18.125 -77.4375 L 18.984375 -78.171875 L 19.84375 -78.78125 C 21.15625 -79.925781 22.34375 -80.703125 23.40625 -81.109375 C 23.5625 -81.191406 23.847656 -81.4375 24.265625 -81.84375 L 25 -82.34375 L 25.859375 -82.703125 C 26.179688 -83.035156 26.671875 -83.078125 27.328125 -82.828125 L 27.8125 -82.59375 L 28.296875 -82.34375 C 28.628906 -82.007812 28.875 -81.679688 29.03125 -81.359375 C 29.601562 -81.273438 30.132812 -81.316406 30.625 -81.484375 C 30.957031 -80.992188 31.367188 -80.585938 31.859375 -80.265625 L 32.46875 -80.265625 L 33.078125 -80.140625 C 33.160156 -79.890625 33.363281 -79.601562 33.6875 -79.28125 L 34.671875 -79.28125 C 35.328125 -78.945312 36.101562 -78.332031 37 -77.4375 C 37.40625 -77.03125 37.566406 -76.582031 37.484375 -76.09375 C 37.734375 -75.601562 38.0625 -74.988281 38.46875 -74.25 L 38.34375 -74.25 L 38.84375 -72.421875 L 38.71875 -72.171875 L 38.59375 -71.796875 C 38.757812 -71.640625 38.84375 -71.476562 38.84375 -71.3125 C 39 -71.070312 39.117188 -70.785156 39.203125 -70.453125 L 39.453125 -69.84375 L 39.8125 -66.40625 L 39.9375 -65.671875 C 39.9375 -65.347656 40.019531 -65.101562 40.1875 -64.9375 C 40.351562 -64.78125 40.4375 -64.535156 40.4375 -64.203125 L 40.5625 -63.84375 L 40.5625 -63.59375 C 40.71875 -63.269531 40.835938 -62.695312 40.921875 -61.875 C 41.003906 -61.144531 41.085938 -60.570312 41.171875 -60.15625 C 41.003906 -59.664062 41.003906 -59.015625 41.171875 -58.203125 L 41.40625 -57.09375 L 41.53125 -56.125 C 41.613281 -56.125 41.65625 -56.082031 41.65625 -56 L 42.03125 -56.234375 C 42.1875 -56.078125 42.222656 -55.914062 42.140625 -55.75 L 42.03125 -55.5 L 42.03125 -55.265625 C 41.945312 -55.097656 41.90625 -54.726562 41.90625 -54.15625 L 41.78125 -54.15625 L 42.03125 -53.421875 C 42.03125 -53.335938 41.988281 -53.253906 41.90625 -53.171875 C 41.820312 -53.097656 41.738281 -52.976562 41.65625 -52.8125 C 42.144531 -50.9375 41.984375 -49.140625 41.171875 -47.421875 C 41.578125 -47.085938 41.78125 -46.597656 41.78125 -45.953125 L 41.90625 -45.21875 L 42.03125 -44.359375 C 42.03125 -44.273438 41.945312 -44.148438 41.78125 -43.984375 L 42.03125 -43.015625 L 41.78125 -42.390625 C 41.863281 -42.148438 41.945312 -41.988281 42.03125 -41.90625 L 42.03125 -41.296875 C 41.945312 -41.128906 41.945312 -40.960938 42.03125 -40.796875 C 42.03125 -40.722656 42.066406 -40.601562 42.140625 -40.4375 L 42.140625 -40.0625 L 42.390625 -38.46875 L 42.390625 -35.53125 C 42.390625 -35.363281 42.472656 -34.957031 42.640625 -34.3125 L 42.640625 -31.484375 L 43 -31 L 43 -29.65625 C 43 -29.488281 43.039062 -29.363281 43.125 -29.28125 C 43.039062 -29.195312 42.960938 -29.035156 42.890625 -28.796875 L 43.25 -28.3125 L 43 -27.078125 C 43.570312 -26.179688 43.65625 -25.078125 43.25 -23.765625 C 43.25 -23.609375 43.332031 -23.117188 43.5 -22.296875 L 43.125 -21.9375 C 43.289062 -21.769531 43.414062 -21.566406 43.5 -21.328125 C 43.09375 -21.160156 42.925781 -20.910156 43 -20.578125 C 43.488281 -19.523438 43.488281 -18.425781 43 -17.28125 C 43 -16.625 42.960938 -16.171875 42.890625 -15.921875 L 42.640625 -14.34375 C 42.554688 -13.601562 42.472656 -12.988281 42.390625 -12.5 L 42.515625 -12.015625 L 42.515625 -11.390625 L 41.53125 -10.90625 L 41.53125 -10.171875 L 40.0625 -9.0625 L 40.0625 -8.9375 L 39.328125 -8.703125 L 39.328125 -7.84375 L 38.96875 -7.59375 L 38.46875 -7.359375 L 38.234375 -7.46875 L 37.859375 -7.59375 C 37.691406 -7.675781 37.488281 -7.632812 37.25 -7.46875 L 37.484375 -6.734375 L 37.484375 -6.609375 L 37.375 -6.375 C 37.375 -5.476562 37.410156 -4.90625 37.484375 -4.65625 L 37 -4.65625 L 36.75 -4.53125 C 36.675781 -4.445312 36.554688 -4.117188 36.390625 -3.546875 L 35.90625 -4.78125 C 35.738281 -5.1875 35.613281 -5.515625 35.53125 -5.765625 C 35.363281 -5.921875 35.160156 -6.039062 34.921875 -6.125 C 34.753906 -5.957031 34.753906 -5.628906 34.921875 -5.140625 C 34.753906 -4.898438 34.585938 -4.820312 34.421875 -4.90625 L 34.1875 -5.03125 L 33.9375 -5.140625 L 33.578125 -6 C 33.410156 -5.84375 33.328125 -5.679688 33.328125 -5.515625 L 33.453125 -5.390625 L 33.453125 -5.265625 C 33.367188 -5.023438 33.160156 -4.945312 32.828125 -5.03125 C 32.753906 -5.101562 32.632812 -5.179688 32.46875 -5.265625 C 32.382812 -5.429688 32.257812 -5.515625 32.09375 -5.515625 L 31.359375 -6.25 C 31.609375 -6.570312 31.648438 -6.898438 31.484375 -7.234375 L 31.125 -7.46875 L 30.875 -7.71875 L 30.875 -8.453125 C 30.707031 -8.773438 30.503906 -9.144531 30.265625 -9.5625 L 29.53125 -10.65625 L 29.53125 -11.390625 C 29.53125 -11.640625 29.445312 -11.882812 29.28125 -12.125 L 29.28125 -12.25 C 29.363281 -13.3125 29.203125 -14.457031 28.796875 -15.6875 L 28.796875 -17.40625 C 28.628906 -18.539062 28.546875 -19.351562 28.546875 -19.84375 C 28.460938 -19.925781 28.421875 -20.171875 28.421875 -20.578125 L 28.421875 -21.078125 C 28.335938 -21.398438 28.335938 -21.804688 28.421875 -22.296875 L 28.421875 -27.203125 C 28.335938 -27.523438 28.21875 -27.8125 28.0625 -28.0625 C 28.382812 -28.46875 28.460938 -29.203125 28.296875 -30.265625 C 28.296875 -31.566406 28.257812 -32.503906 28.1875 -33.078125 C 28.1875 -33.410156 28.101562 -33.984375 27.9375 -34.796875 L 27.5625 -35.171875 L 26.703125 -33.9375 C 26.210938 -34.019531 25.804688 -33.898438 25.484375 -33.578125 C 25.078125 -33.242188 24.671875 -33.160156 24.265625 -33.328125 C 24.097656 -33.078125 23.769531 -32.875 23.28125 -32.71875 L 22.78125 -32.59375 L 22.296875 -32.34375 L 19.71875 -33.078125 L 18.75 -32.21875 L 17.640625 -33.578125 L 17.640625 -33.703125 L 17.390625 -33.8125 L 17.15625 -33.8125 C 16.988281 -33.65625 16.90625 -33.492188 16.90625 -33.328125 L 16.90625 -32.71875 L 16.546875 -32.21875 C 16.617188 -32.144531 16.695312 -31.984375 16.78125 -31.734375 C 16.625 -31.078125 16.546875 -30.179688 16.546875 -29.046875 L 16.421875 -27.6875 L 16.171875 -26.21875 C 15.765625 -25.8125 15.804688 -25.40625 16.296875 -25 C 16.128906 -23.53125 16.046875 -22.507812 16.046875 -21.9375 L 15.796875 -20.46875 C 15.640625 -19.8125 15.5625 -19.28125 15.5625 -18.875 C 15.71875 -18.707031 15.878906 -18.175781 16.046875 -17.28125 C 16.128906 -16.539062 16.171875 -15.882812 16.171875 -15.3125 C 16.253906 -15.070312 16.414062 -14.828125 16.65625 -14.578125 C 16.582031 -14.085938 16.582031 -13.351562 16.65625 -12.375 L 16.65625 -11.15625 C 16.65625 -10.664062 16.617188 -10.210938 16.546875 -9.796875 L 16.78125 -6.859375 C 16.945312 -5.472656 17.148438 -4.453125 17.390625 -3.796875 L 16.78125 -3.3125 L 16.546875 -1.953125 C 16.378906 -1.796875 16.171875 -1.675781 15.921875 -1.59375 L 15.6875 -1.21875 L 15.5625 -0.734375 C 15.394531 -0.410156 15.148438 -0.207031 14.828125 -0.125 C 13.515625 -0.9375 11.921875 -1.34375 10.046875 -1.34375 C 9.878906 -1.507812 9.796875 -1.632812 9.796875 -1.71875 L 9.671875 -1.953125 L 8.703125 -2.203125 C 8.285156 -2.285156 8 -2.488281 7.84375 -2.8125 L 7.109375 -2.203125 L 6.609375 -2.703125 L 6.859375 -3.1875 L 7.109375 -3.546875 L 6.859375 -4.046875 L 6.609375 -4.28125 C 6.453125 -4.207031 6.25 -4.128906 6 -4.046875 C 5.675781 -3.960938 5.429688 -3.835938 5.265625 -3.671875 L 4.90625 -4.171875 L 5.515625 -4.40625 L 5.515625 -5.03125 C 6.160156 -5.519531 6.28125 -6.210938 5.875 -7.109375 L 5.875 -7.46875 L 5.75 -7.96875 C 5.75 -8.289062 5.671875 -8.613281 5.515625 -8.9375 L 5.265625 -9.1875 L 5.015625 -9.3125 C 4.773438 -9.394531 4.613281 -9.597656 4.53125 -9.921875 C 4.78125 -9.921875 4.941406 -9.878906 5.015625 -9.796875 L 5.390625 -10.296875 L 5.015625 -11.03125 C 5.097656 -11.113281 5.140625 -11.359375 5.140625 -11.765625 Z M 12.734375 -69.59375 Z M 19.109375 -45.703125 C 19.191406 -45.617188 19.273438 -45.578125 19.359375 -45.578125 L 20.703125 -45.828125 C 21.035156 -46.066406 21.445312 -46.109375 21.9375 -45.953125 L 22.046875 -46.078125 L 22.171875 -46.078125 C 22.578125 -45.992188 23.03125 -45.992188 23.53125 -46.078125 L 24.875 -46.1875 C 25.28125 -46.1875 25.523438 -46.148438 25.609375 -46.078125 L 26.09375 -46.4375 L 26.59375 -46.5625 L 26.953125 -46.5625 C 27.035156 -46.800781 27.160156 -47.003906 27.328125 -47.171875 L 27.203125 -48.765625 L 27.203125 -52.4375 C 27.285156 -53.09375 27.328125 -54.113281 27.328125 -55.5 L 27.328125 -56.609375 C 27.242188 -56.929688 27.242188 -57.257812 27.328125 -57.59375 C 27.484375 -57.914062 27.5625 -58.320312 27.5625 -58.8125 L 27.5625 -64.453125 L 27.328125 -68 L 26.953125 -69.71875 C 26.867188 -70.125 26.75 -70.25 26.59375 -70.09375 L 25.96875 -69.109375 C 24.988281 -68.128906 24.296875 -67.226562 23.890625 -66.40625 L 22.78125 -64.328125 L 22.78125 -64.078125 C 22.78125 -63.835938 22.660156 -63.515625 22.421875 -63.109375 C 22.253906 -62.941406 22.171875 -62.816406 22.171875 -62.734375 C 22.085938 -62.492188 22.007812 -62.289062 21.9375 -62.125 L 21.6875 -61.875 L 21.5625 -61.640625 L 21.203125 -60.78125 L 20.828125 -59.546875 C 20.660156 -59.222656 20.535156 -58.773438 20.453125 -58.203125 L 20.34375 -56.859375 L 19.96875 -55.875 L 19.71875 -54.65625 C 19.5625 -54.15625 19.484375 -53.742188 19.484375 -53.421875 C 19.316406 -52.117188 19.113281 -51.140625 18.875 -50.484375 L 18.875 -50.109375 C 18.789062 -50.035156 18.75 -49.914062 18.75 -49.75 L 18.75 -48.890625 L 18.625 -47.90625 C 18.539062 -47.414062 18.539062 -46.882812 18.625 -46.3125 C 18.707031 -46.226562 18.75 -46.023438 18.75 -45.703125 Z M 13.234375 -70.09375 C 13.640625 -70.332031 13.71875 -70.78125 13.46875 -71.4375 L 12.984375 -70.953125 C 12.984375 -70.535156 13.066406 -70.25 13.234375 -70.09375 Z M 40.0625 -9.921875 L 40.0625 -10.046875 L 39.8125 -10.046875 L 39.8125 -9.921875 Z M 36.875 -6.25 C 36.875 -6.332031 36.796875 -6.375 36.640625 -6.375 L 36.640625 -6.25 C 36.710938 -6.25 36.789062 -6.207031 36.875 -6.125 Z M 7.84375 -18.875 C 7.757812 -18.875 7.71875 -18.832031 7.71875 -18.75 C 7.800781 -18.75 7.84375 -18.789062 7.84375 -18.875 Z M 4.53125 -36.515625 C 4.125 -36.753906 3.960938 -37.039062 4.046875 -37.375 C 4.535156 -37.207031 4.695312 -36.921875 4.53125 -36.515625 Z M 9.5625 -63.46875 C 9.476562 -63.632812 9.394531 -63.757812 9.3125 -63.84375 C 9.632812 -64 9.71875 -63.875 9.5625 -63.46875 Z M 8.8125 -58.8125 C 8.570312 -59.0625 8.535156 -59.265625 8.703125 -59.421875 C 8.773438 -59.347656 8.8125 -59.144531 8.8125 -58.8125 Z M 30.015625 -7.59375 L 30.015625 -7.71875 L 30.140625 -7.59375 Z M 7.46875 -58.5625 L 7.59375 -58.5625 Z M 30.265625 -7.109375 L 30.265625 -6.984375 Z M 11.640625 -68 L 11.515625 -68 L 11.515625 -68.125 Z M 11.640625 -68 "/></g></g><g style="fill:#f1e2c2;fill-opacity:1;"><g transform="translate(116.279483, 314.906263)"><path style="stroke:none" d="M 33.078125 0 C 32.347656 -0.488281 31.738281 -0.613281 31.25 -0.375 L 31 -0.375 L 30.75 -0.25 C 30.59375 -0.25 30.429688 -0.328125 30.265625 -0.484375 C 30.015625 -0.648438 29.726562 -0.734375 29.40625 -0.734375 L 29.046875 -0.609375 L 28.671875 -0.609375 C 28.585938 -0.523438 28.503906 -0.484375 28.421875 -0.484375 C 28.097656 -0.734375 27.609375 -0.898438 26.953125 -0.984375 L 26.21875 -1.109375 L 25.484375 -1.109375 C 25.398438 -1.179688 25.316406 -1.21875 25.234375 -1.21875 L 25.125 -1.34375 L 25 -1.34375 C 24.914062 -1.34375 24.875 -1.382812 24.875 -1.46875 C 24.789062 -1.382812 24.546875 -1.507812 24.140625 -1.84375 C 23.972656 -1.675781 23.769531 -1.675781 23.53125 -1.84375 C 23.195312 -2 22.988281 -2.035156 22.90625 -1.953125 C 22.75 -2.117188 22.671875 -2.285156 22.671875 -2.453125 C 22.585938 -2.367188 22.460938 -2.328125 22.296875 -2.328125 C 22.210938 -2.328125 22.09375 -2.410156 21.9375 -2.578125 C 21.601562 -2.242188 21.316406 -2.203125 21.078125 -2.453125 C 21.078125 -2.535156 20.992188 -2.578125 20.828125 -2.578125 C 20.585938 -2.578125 20.257812 -2.695312 19.84375 -2.9375 L 19 -3.3125 C 18.582031 -3.3125 18.050781 -3.554688 17.40625 -4.046875 C 17.238281 -4.203125 17.070312 -4.28125 16.90625 -4.28125 C 16.332031 -4.363281 15.882812 -4.648438 15.5625 -5.140625 L 14.828125 -5.875 L 14.09375 -6.5 C 13.84375 -6.820312 13.472656 -7.226562 12.984375 -7.71875 C 12.578125 -8.289062 12.210938 -8.695312 11.890625 -8.9375 L 11.15625 -9.6875 C 10.738281 -10.175781 10.453125 -10.582031 10.296875 -10.90625 C 10.128906 -11.226562 9.960938 -11.554688 9.796875 -11.890625 L 9.1875 -12.5 C 8.78125 -13.070312 8.578125 -13.5625 8.578125 -13.96875 C 8.578125 -14.132812 8.535156 -14.296875 8.453125 -14.453125 L 8.203125 -14.828125 C 7.960938 -15.066406 7.757812 -15.429688 7.59375 -15.921875 L 7.359375 -16.546875 L 7.109375 -17.15625 L 6.734375 -17.640625 L 6.5 -18.015625 C 6.332031 -18.585938 6.207031 -18.914062 6.125 -19 C 6.039062 -19.070312 6 -19.148438 6 -19.234375 C 6.082031 -19.566406 6.039062 -19.976562 5.875 -20.46875 L 5.640625 -21.078125 L 5.515625 -21.6875 L 5.515625 -22.0625 C 5.597656 -22.382812 5.597656 -22.789062 5.515625 -23.28125 C 5.109375 -24.257812 4.984375 -25.320312 5.140625 -26.46875 C 5.140625 -27.28125 5.101562 -27.972656 5.03125 -28.546875 L 5.140625 -29.15625 L 5.140625 -33.078125 C 5.304688 -33.410156 5.390625 -33.820312 5.390625 -34.3125 L 5.390625 -35.53125 L 5.640625 -37.25 L 6.375 -40.5625 C 6.53125 -40.882812 6.648438 -41.332031 6.734375 -41.90625 L 7.109375 -43.375 L 7.109375 -43.75 C 7.347656 -44.070312 7.550781 -44.5625 7.71875 -45.21875 L 7.84375 -45.828125 L 8.09375 -46.5625 L 8.828125 -48.765625 L 9.1875 -50.234375 L 9.6875 -52.078125 C 9.757812 -52.242188 9.835938 -52.363281 9.921875 -52.4375 C 10.085938 -52.601562 10.171875 -52.726562 10.171875 -52.8125 L 10.65625 -54.65625 L 11.03125 -55.265625 L 11.265625 -55.875 L 11.640625 -56.609375 L 11.640625 -56.984375 C 12.046875 -57.390625 12.289062 -57.796875 12.375 -58.203125 L 12.625 -58.5625 L 12.75 -58.9375 C 12.90625 -59.1875 13.023438 -59.390625 13.109375 -59.546875 C 13.273438 -59.710938 13.359375 -59.914062 13.359375 -60.15625 C 13.441406 -60.40625 13.519531 -60.570312 13.59375 -60.65625 L 14.09375 -61.390625 L 14.578125 -62 L 15.078125 -62.734375 L 15.4375 -63.59375 L 16.171875 -64.328125 C 16.503906 -64.578125 16.75 -64.90625 16.90625 -65.3125 L 17.15625 -65.671875 L 17.40625 -66.046875 C 17.5625 -66.367188 17.765625 -66.613281 18.015625 -66.78125 C 18.097656 -67.019531 18.21875 -67.222656 18.375 -67.390625 L 18.75 -67.640625 L 19 -68 L 19.84375 -68.984375 C 20.007812 -69.234375 20.132812 -69.359375 20.21875 -69.359375 L 20.46875 -69.59375 C 20.789062 -70.164062 21.238281 -70.65625 21.8125 -71.0625 L 22.421875 -71.6875 L 23.03125 -72.296875 L 24.015625 -73.03125 C 24.179688 -73.113281 24.304688 -73.195312 24.390625 -73.28125 L 24.625 -73.515625 C 25.03125 -73.765625 25.398438 -73.96875 25.734375 -74.125 L 26.953125 -74.75 C 27.117188 -74.75 27.242188 -74.785156 27.328125 -74.859375 L 27.328125 -74.984375 L 27.5625 -75.109375 C 27.644531 -75.191406 27.726562 -75.234375 27.8125 -75.234375 L 28.671875 -75.484375 L 29.28125 -75.71875 L 29.53125 -75.96875 L 29.78125 -76.09375 L 29.890625 -76.09375 C 30.054688 -76.09375 30.222656 -76.132812 30.390625 -76.21875 L 30.75 -76.453125 L 31.734375 -76.953125 L 32.109375 -77.078125 L 32.34375 -77.1875 C 32.59375 -77.1875 32.796875 -77.269531 32.953125 -77.4375 C 33.035156 -77.519531 33.160156 -77.5625 33.328125 -77.5625 L 35.90625 -78.546875 L 37.375 -79.28125 C 37.375 -79.363281 37.453125 -79.40625 37.609375 -79.40625 L 38.46875 -79.28125 L 39.203125 -79.15625 C 39.773438 -78.90625 40.269531 -78.578125 40.6875 -78.171875 L 41.421875 -77.4375 C 41.578125 -77.4375 41.695312 -77.351562 41.78125 -77.1875 L 41.78125 -76.953125 L 42.03125 -76.828125 C 41.945312 -76.660156 41.988281 -76.5 42.15625 -76.34375 L 42.265625 -76.09375 L 42.265625 -75.84375 C 42.679688 -75.757812 42.890625 -75.679688 42.890625 -75.609375 C 42.972656 -75.609375 43.015625 -75.441406 43.015625 -75.109375 C 43.015625 -74.867188 43.050781 -74.707031 43.125 -74.625 C 43.613281 -74.289062 43.898438 -73.878906 43.984375 -73.390625 C 44.066406 -73.148438 44.191406 -72.945312 44.359375 -72.78125 L 44.71875 -72.65625 L 45.09375 -72.421875 L 45.578125 -72.171875 C 45.742188 -71.921875 46.070312 -71.796875 46.5625 -71.796875 C 46.5625 -71.640625 46.601562 -71.5625 46.6875 -71.5625 C 46.84375 -71.394531 46.921875 -71.226562 46.921875 -71.0625 L 47.046875 -70.828125 L 47.046875 -70.578125 C 47.046875 -70.253906 46.925781 -69.96875 46.6875 -69.71875 L 46.4375 -69.96875 L 46.1875 -70.453125 L 46.078125 -70.703125 C 45.992188 -70.785156 45.867188 -70.867188 45.703125 -70.953125 C 45.378906 -71.191406 45.09375 -71.3125 44.84375 -71.3125 C 44.925781 -70.988281 45.128906 -70.828125 45.453125 -70.828125 C 46.109375 -70.003906 46.273438 -69.226562 45.953125 -68.5 C 46.441406 -68.082031 46.519531 -67.59375 46.1875 -67.03125 L 46.1875 -66.78125 L 46.078125 -66.53125 C 46.148438 -66.207031 45.984375 -65.84375 45.578125 -65.4375 C 45.335938 -65.1875 45.007812 -65.101562 44.59375 -65.1875 L 44.109375 -65.3125 L 43.75 -65.4375 C 43.332031 -65.59375 43.003906 -65.628906 42.765625 -65.546875 C 42.679688 -65.546875 42.597656 -65.585938 42.515625 -65.671875 C 42.429688 -65.835938 42.226562 -65.960938 41.90625 -66.046875 C 41.65625 -66.210938 41.453125 -66.332031 41.296875 -66.40625 C 40.890625 -66.25 40.6875 -66.128906 40.6875 -66.046875 C 40.4375 -65.796875 40.148438 -65.671875 39.828125 -65.671875 C 39.660156 -65.671875 39.535156 -65.59375 39.453125 -65.4375 L 39.328125 -65.3125 L 39.09375 -65.1875 C 39.007812 -65.269531 38.925781 -65.3125 38.84375 -65.3125 C 38.675781 -65.226562 38.550781 -65.101562 38.46875 -64.9375 C 38.394531 -64.851562 38.273438 -64.8125 38.109375 -64.8125 C 37.941406 -64.976562 37.65625 -64.898438 37.25 -64.578125 L 36.515625 -64.328125 L 35.90625 -64.203125 L 35.28125 -63.96875 C 35.28125 -63.800781 35.242188 -63.71875 35.171875 -63.71875 L 34.546875 -63.71875 L 34.1875 -63.21875 L 33.9375 -63.21875 C 33.851562 -63.21875 33.773438 -63.140625 33.703125 -62.984375 C 33.367188 -62.816406 33.039062 -62.570312 32.71875 -62.25 L 32.21875 -61.75 L 31.859375 -61.265625 C 31.773438 -61.015625 31.53125 -60.890625 31.125 -60.890625 C 30.789062 -60.890625 30.585938 -60.726562 30.515625 -60.40625 L 30.875 -60.046875 C 30.875 -59.960938 30.832031 -59.878906 30.75 -59.796875 L 29.15625 -59.421875 C 28.832031 -59.347656 28.585938 -59.226562 28.421875 -59.0625 C 28.347656 -58.976562 28.3125 -58.894531 28.3125 -58.8125 C 28.0625 -58.8125 27.9375 -58.769531 27.9375 -58.6875 C 27.9375 -58.53125 28.0625 -58.453125 28.3125 -58.453125 L 28.421875 -58.328125 C 28.585938 -57.921875 28.46875 -57.71875 28.0625 -57.71875 C 27.8125 -57.789062 27.523438 -57.789062 27.203125 -57.71875 L 26.46875 -57.46875 L 26.09375 -56.984375 C 26.019531 -56.898438 25.816406 -56.859375 25.484375 -56.859375 C 25.484375 -56.523438 25.441406 -56.316406 25.359375 -56.234375 L 24.625 -55.140625 C 24.625 -55.054688 24.582031 -55.015625 24.5 -55.015625 C 24.34375 -54.929688 24.097656 -54.6875 23.765625 -54.28125 L 23.40625 -53.90625 L 23.03125 -53.546875 C 22.875 -53.378906 22.796875 -53.253906 22.796875 -53.171875 C 22.546875 -52.929688 22.460938 -52.8125 22.546875 -52.8125 L 22.171875 -52.203125 L 22.0625 -51.953125 L 21.8125 -51.578125 L 21.4375 -51.09375 L 21.078125 -50.734375 L 20.953125 -50.234375 C 20.703125 -49.910156 20.5 -49.664062 20.34375 -49.5 C 20.257812 -49.5 20.21875 -49.414062 20.21875 -49.25 L 20.21875 -49.015625 L 20.09375 -48.890625 C 19.925781 -48.804688 19.882812 -48.679688 19.96875 -48.515625 L 19.484375 -47.90625 C 19.316406 -47.75 19.191406 -47.546875 19.109375 -47.296875 C 19.035156 -47.296875 19 -47.210938 19 -47.046875 C 19.070312 -46.722656 18.90625 -46.359375 18.5 -45.953125 L 18.25 -45.21875 L 18.25 -45.09375 C 18.007812 -44.925781 17.847656 -44.679688 17.765625 -44.359375 L 17.765625 -43.859375 L 17.640625 -43.5 C 17.554688 -43.414062 17.515625 -43.171875 17.515625 -42.765625 C 17.441406 -42.679688 17.363281 -42.554688 17.28125 -42.390625 L 17.03125 -41.78125 C 16.945312 -41.695312 16.90625 -41.492188 16.90625 -41.171875 C 16.90625 -40.921875 16.828125 -40.71875 16.671875 -40.5625 L 16.421875 -39.203125 C 16.503906 -39.203125 16.789062 -38.878906 17.28125 -38.234375 C 17.363281 -37.898438 17.238281 -37.613281 16.90625 -37.375 C 16.75 -37.375 16.671875 -37.332031 16.671875 -37.25 L 16.546875 -37.125 L 16.546875 -37 L 17.03125 -36.765625 L 17.03125 -36.390625 L 16.90625 -36.140625 C 16.90625 -35.984375 16.828125 -35.820312 16.671875 -35.65625 L 16.671875 -35.171875 C 16.671875 -34.921875 16.628906 -34.753906 16.546875 -34.671875 L 16.421875 -34.671875 L 16.546875 -34.546875 L 16.546875 -33.9375 L 16.421875 -33.578125 L 16.296875 -33.328125 C 16.210938 -33.003906 16.253906 -32.757812 16.421875 -32.59375 L 16.296875 -32.46875 C 16.128906 -32.300781 16.046875 -32.179688 16.046875 -32.109375 C 16.128906 -32.023438 16.171875 -31.859375 16.171875 -31.609375 C 16.003906 -30.796875 15.921875 -30.222656 15.921875 -29.890625 C 15.921875 -29.242188 15.882812 -28.835938 15.8125 -28.671875 C 15.8125 -28.347656 15.847656 -28.144531 15.921875 -28.0625 C 15.515625 -27.8125 15.394531 -27.484375 15.5625 -27.078125 C 15.726562 -26.671875 15.726562 -26.265625 15.5625 -25.859375 C 15.476562 -25.523438 15.5625 -25.238281 15.8125 -25 C 15.726562 -24.832031 15.644531 -24.628906 15.5625 -24.390625 C 15.476562 -24.054688 15.351562 -23.8125 15.1875 -23.65625 C 15.519531 -23.40625 15.601562 -23.195312 15.4375 -23.03125 C 15.269531 -22.875 15.226562 -22.628906 15.3125 -22.296875 L 15.4375 -21.9375 L 15.5625 -21.5625 C 15.726562 -21.070312 15.929688 -20.582031 16.171875 -20.09375 C 16.085938 -20.09375 16.046875 -19.929688 16.046875 -19.609375 C 16.210938 -19.691406 16.5 -19.523438 16.90625 -19.109375 C 17.070312 -18.953125 17.15625 -18.789062 17.15625 -18.625 L 17.28125 -18.375 L 17.28125 -18.140625 C 17.6875 -17.722656 17.929688 -17.4375 18.015625 -17.28125 C 17.847656 -17.113281 17.765625 -16.988281 17.765625 -16.90625 L 18.875 -15.921875 C 19.195312 -15.597656 19.5625 -15.4375 19.96875 -15.4375 C 20.050781 -15.4375 20.09375 -15.394531 20.09375 -15.3125 C 20.175781 -15.15625 20.335938 -15.035156 20.578125 -14.953125 L 20.828125 -14.828125 L 21.203125 -14.703125 L 22.90625 -13.71875 L 23.40625 -13.484375 L 23.890625 -13.359375 C 24.378906 -13.273438 24.707031 -13.148438 24.875 -12.984375 C 24.957031 -12.898438 25.117188 -12.859375 25.359375 -12.859375 C 26.015625 -12.859375 26.46875 -12.820312 26.71875 -12.75 L 26.828125 -12.75 C 27.160156 -12.90625 27.53125 -12.941406 27.9375 -12.859375 L 28.421875 -12.75 C 28.671875 -12.75 28.878906 -12.785156 29.046875 -12.859375 L 29.53125 -12.859375 L 29.890625 -12.75 C 30.222656 -12.75 30.59375 -12.785156 31 -12.859375 L 31.859375 -13.109375 C 31.941406 -13.109375 32.0625 -13.191406 32.21875 -13.359375 L 32.71875 -13.96875 L 33.203125 -14.703125 C 33.367188 -14.953125 33.492188 -15.078125 33.578125 -15.078125 C 33.984375 -15.316406 34.1875 -15.722656 34.1875 -16.296875 C 34.1875 -17.679688 34.144531 -18.703125 34.0625 -19.359375 C 34.0625 -19.679688 34.101562 -20.085938 34.1875 -20.578125 L 34.4375 -21.6875 L 34.671875 -23.03125 L 34.671875 -23.15625 C 34.585938 -23.488281 34.507812 -23.859375 34.4375 -24.265625 L 34.3125 -24.625 L 34.1875 -25 C 34.019531 -25.320312 33.976562 -25.769531 34.0625 -26.34375 C 34.144531 -26.425781 34.101562 -26.671875 33.9375 -27.078125 C 33.851562 -27.242188 33.773438 -27.367188 33.703125 -27.453125 L 33.453125 -27.6875 C 33.285156 -27.6875 33.203125 -27.769531 33.203125 -27.9375 L 32.46875 -28.796875 C 32.382812 -28.960938 32.300781 -29.125 32.21875 -29.28125 C 32.144531 -29.445312 32.023438 -29.570312 31.859375 -29.65625 L 31.734375 -29.78125 L 31.609375 -29.78125 L 30.875 -30.140625 L 30.140625 -30.515625 C 29.566406 -30.515625 29.28125 -30.71875 29.28125 -31.125 C 29.195312 -31.207031 29.078125 -31.289062 28.921875 -31.375 L 28.796875 -31.484375 L 28.546875 -31.609375 L 28.421875 -31.734375 C 27.847656 -31.816406 27.316406 -32.0625 26.828125 -32.46875 L 26.59375 -32.46875 C 26.425781 -32.46875 26.257812 -32.59375 26.09375 -32.84375 C 25.769531 -33.332031 25.445312 -33.578125 25.125 -33.578125 C 25.039062 -33.578125 24.957031 -33.65625 24.875 -33.8125 C 24.789062 -33.894531 24.707031 -34.0625 24.625 -34.3125 L 24.75 -34.4375 L 24.75 -34.546875 L 25 -35.171875 L 25.234375 -36.03125 C 25.234375 -36.351562 25.359375 -36.632812 25.609375 -36.875 C 25.859375 -37.125 25.941406 -37.367188 25.859375 -37.609375 C 25.941406 -37.609375 25.984375 -37.648438 25.984375 -37.734375 C 25.984375 -37.898438 26.019531 -37.984375 26.09375 -37.984375 C 26.582031 -38.234375 26.910156 -38.601562 27.078125 -39.09375 L 27.078125 -39.203125 C 27.242188 -39.285156 27.40625 -39.410156 27.5625 -39.578125 L 27.8125 -39.9375 L 28.0625 -40.1875 C 28.226562 -40.351562 28.347656 -40.4375 28.421875 -40.4375 L 28.671875 -40.6875 C 28.753906 -40.84375 28.878906 -40.960938 29.046875 -41.046875 C 29.285156 -41.128906 29.40625 -41.210938 29.40625 -41.296875 C 29.65625 -41.535156 29.898438 -41.65625 30.140625 -41.65625 L 30.265625 -41.78125 L 30.390625 -41.78125 C 31.117188 -42.519531 31.894531 -42.519531 32.71875 -41.78125 L 32.84375 -41.78125 L 32.953125 -41.65625 C 33.367188 -41.570312 33.898438 -41.207031 34.546875 -40.5625 L 34.796875 -40.5625 L 35.171875 -40.1875 C 35.242188 -40.019531 35.363281 -39.816406 35.53125 -39.578125 L 35.90625 -39.328125 L 36.140625 -38.96875 C 36.710938 -38.394531 37.039062 -37.984375 37.125 -37.734375 C 37.289062 -37.734375 37.375 -37.691406 37.375 -37.609375 L 37.609375 -37.609375 C 37.773438 -37.453125 37.984375 -37.332031 38.234375 -37.25 L 38.59375 -37.125 L 38.84375 -37 C 39.90625 -36.351562 40.640625 -35.820312 41.046875 -35.40625 L 41.65625 -34.921875 C 41.988281 -34.671875 42.273438 -34.382812 42.515625 -34.0625 C 42.921875 -33.65625 43.535156 -33.207031 44.359375 -32.71875 C 44.515625 -32.71875 44.800781 -32.472656 45.21875 -31.984375 L 45.578125 -31.609375 C 46.066406 -31.285156 46.351562 -30.878906 46.4375 -30.390625 L 46.5625 -30.265625 L 46.6875 -30.015625 L 46.921875 -29.53125 C 47.085938 -29.207031 47.296875 -28.878906 47.546875 -28.546875 C 47.703125 -28.460938 47.820312 -28.300781 47.90625 -28.0625 C 47.988281 -27.894531 48.070312 -27.726562 48.15625 -27.5625 L 48.15625 -27.203125 C 48.15625 -27.035156 48.195312 -26.953125 48.28125 -26.953125 C 48.4375 -26.796875 48.515625 -26.550781 48.515625 -26.21875 C 48.515625 -25.976562 48.597656 -25.53125 48.765625 -24.875 C 48.929688 -24.625 49.054688 -24.175781 49.140625 -23.53125 C 49.296875 -22.957031 49.414062 -22.503906 49.5 -22.171875 L 49.25 -21.4375 L 49.375 -21.203125 L 49.5 -20.953125 C 49.582031 -20.785156 49.539062 -20.625 49.375 -20.46875 C 49.457031 -20.382812 49.5 -20.140625 49.5 -19.734375 L 49.375 -19.359375 L 49.5 -19 C 49.582031 -18.914062 49.625 -18.707031 49.625 -18.375 C 49.625 -17.96875 49.664062 -17.722656 49.75 -17.640625 C 49.914062 -17.484375 49.957031 -17.320312 49.875 -17.15625 L 49.75 -16.90625 L 49.625 -16.671875 L 49.625 -16.421875 L 49.5 -16.171875 C 49.5 -15.765625 49.335938 -15.519531 49.015625 -15.4375 L 48.765625 -14.828125 L 48.40625 -14.09375 L 47.90625 -13.234375 C 47.820312 -13.066406 47.742188 -12.820312 47.671875 -12.5 C 47.585938 -12.09375 47.460938 -11.804688 47.296875 -11.640625 C 47.296875 -11.472656 47.335938 -11.347656 47.421875 -11.265625 L 47.671875 -10.78125 L 47.671875 -10.53125 C 47.671875 -9.882812 47.460938 -9.070312 47.046875 -8.09375 L 46.921875 -8.09375 C 46.921875 -7.601562 46.71875 -7.03125 46.3125 -6.375 C 46.070312 -6.039062 45.867188 -5.628906 45.703125 -5.140625 C 45.535156 -4.898438 45.332031 -4.695312 45.09375 -4.53125 L 44.71875 -4.28125 L 44.359375 -3.921875 C 44.109375 -3.671875 43.863281 -3.628906 43.625 -3.796875 C 43.625 -3.628906 43.582031 -3.507812 43.5 -3.4375 L 43.015625 -3.0625 L 42.390625 -2.578125 L 39.9375 -1.34375 L 39.828125 -1.21875 C 39.578125 -1.382812 39.289062 -1.382812 38.96875 -1.21875 L 38.46875 -1.109375 L 37.984375 -0.984375 L 37.734375 -0.984375 C 37.410156 -0.648438 37.003906 -0.691406 36.515625 -1.109375 C 36.429688 -1.023438 36.347656 -0.984375 36.265625 -0.984375 C 35.609375 -0.242188 34.832031 0 33.9375 -0.25 C 33.695312 -0.25 33.410156 -0.164062 33.078125 0 Z M 11.890625 -28.421875 C 12.210938 -28.347656 12.375 -28.101562 12.375 -27.6875 C 12.375 -27.53125 12.414062 -27.453125 12.5 -27.453125 C 12.664062 -27.203125 12.664062 -26.992188 12.5 -26.828125 C 12.5 -26.179688 12.660156 -25.570312 12.984375 -25 C 13.148438 -25.320312 13.191406 -25.523438 13.109375 -25.609375 C 13.109375 -25.929688 13.148438 -26.132812 13.234375 -26.21875 C 13.554688 -26.550781 13.515625 -27 13.109375 -27.5625 L 13.109375 -28.1875 L 13.234375 -28.546875 C 13.234375 -28.796875 13.148438 -29 12.984375 -29.15625 L 13.484375 -29.53125 C 13.234375 -30.425781 13.351562 -31.078125 13.84375 -31.484375 L 13.84375 -31.984375 C 14.007812 -32.140625 14.050781 -32.300781 13.96875 -32.46875 L 13.84375 -32.71875 L 13.84375 -32.953125 C 14.09375 -33.203125 14.21875 -33.53125 14.21875 -33.9375 L 14.34375 -34.1875 L 14.34375 -34.3125 C 14.34375 -34.632812 14.378906 -35 14.453125 -35.40625 L 14.703125 -36.390625 C 14.785156 -36.554688 14.828125 -36.71875 14.828125 -36.875 L 14.828125 -37.25 L 15.078125 -37.859375 L 15.3125 -38.46875 C 15.476562 -38.882812 15.679688 -39.253906 15.921875 -39.578125 C 16.003906 -39.660156 16.003906 -39.742188 15.921875 -39.828125 L 16.171875 -40.796875 L 16.296875 -41.65625 L 16.546875 -42.640625 C 16.628906 -42.960938 16.75 -43.25 16.90625 -43.5 C 16.820312 -43.820312 16.945312 -44.148438 17.28125 -44.484375 L 17.40625 -45.09375 C 17.40625 -45.257812 17.484375 -45.421875 17.640625 -45.578125 C 18.046875 -45.984375 18.171875 -46.394531 18.015625 -46.8125 C 18.015625 -47.050781 18.09375 -47.171875 18.25 -47.171875 C 18.664062 -47.335938 18.875 -47.625 18.875 -48.03125 C 18.789062 -48.351562 18.953125 -48.722656 19.359375 -49.140625 C 19.609375 -49.378906 19.734375 -49.664062 19.734375 -50 C 19.734375 -50.15625 19.8125 -50.359375 19.96875 -50.609375 L 20.09375 -50.84375 L 20.21875 -51.09375 L 20.46875 -51.21875 C 20.539062 -51.300781 20.617188 -51.421875 20.703125 -51.578125 C 21.035156 -52.078125 20.992188 -52.609375 20.578125 -53.171875 C 20.421875 -52.523438 20.21875 -52.117188 19.96875 -51.953125 C 19.394531 -50.890625 18.988281 -50.113281 18.75 -49.625 L 18.25 -48.640625 L 18.015625 -48.15625 L 17.515625 -47.671875 C 17.359375 -47.421875 17.238281 -47.171875 17.15625 -46.921875 L 16.90625 -46.6875 C 16.5 -46.601562 16.335938 -46.191406 16.421875 -45.453125 C 16.585938 -45.296875 16.585938 -45.132812 16.421875 -44.96875 C 16.253906 -44.800781 16.085938 -44.515625 15.921875 -44.109375 C 15.921875 -43.941406 16.003906 -43.78125 16.171875 -43.625 C 16.085938 -43.539062 15.96875 -43.296875 15.8125 -42.890625 L 15.8125 -42.640625 L 15.6875 -42.390625 C 15.6875 -42.234375 15.601562 -42.070312 15.4375 -41.90625 C 15.113281 -41.65625 14.992188 -41.285156 15.078125 -40.796875 L 14.953125 -39.9375 L 14.703125 -38.96875 C 14.703125 -38.800781 14.660156 -38.675781 14.578125 -38.59375 L 14.21875 -38.234375 C 14.375 -38.066406 14.414062 -37.898438 14.34375 -37.734375 L 14.09375 -37.5 L 13.96875 -37.25 C 14.132812 -37.25 14.21875 -37.164062 14.21875 -37 C 14.21875 -36.1875 14.007812 -35.578125 13.59375 -35.171875 L 13.59375 -34.0625 C 13.59375 -33.488281 13.554688 -33.117188 13.484375 -32.953125 L 13.234375 -33.078125 L 13.109375 -33.328125 C 12.941406 -33.410156 12.78125 -33.367188 12.625 -33.203125 C 12.625 -33.117188 12.664062 -33 12.75 -32.84375 L 12.75 -32.46875 L 12.625 -32.21875 L 12.5 -32.109375 C 12.332031 -31.941406 12.289062 -31.773438 12.375 -31.609375 C 12.375 -31.203125 12.332031 -30.957031 12.25 -30.875 L 12.375 -30.515625 L 12.75 -30.265625 C 12.75 -29.941406 12.625 -29.65625 12.375 -29.40625 L 12.125 -28.921875 C 11.96875 -28.753906 11.890625 -28.585938 11.890625 -28.421875 Z M 11.890625 -28.421875 "/></g></g><g style="fill:#f1e2c2;fill-opacity:1;"><g transform="translate(177.423022, 314.906263)"><path style="stroke:none" d="M 5.265625 -11.890625 L 5.265625 -12.015625 L 4.90625 -12.25 C 4.90625 -12.414062 4.984375 -13.070312 5.140625 -14.21875 C 4.734375 -14.863281 4.53125 -15.394531 4.53125 -15.8125 C 4.695312 -15.96875 4.820312 -16.128906 4.90625 -16.296875 C 4.976562 -16.546875 5.054688 -16.707031 5.140625 -16.78125 L 4.65625 -17.890625 C 4.820312 -17.890625 4.941406 -17.929688 5.015625 -18.015625 L 5.015625 -18.375 C 4.941406 -18.457031 4.90625 -18.539062 4.90625 -18.625 C 4.65625 -19.113281 4.53125 -19.601562 4.53125 -20.09375 C 4.53125 -20.257812 4.445312 -20.75 4.28125 -21.5625 C 4.53125 -22.382812 4.816406 -23.039062 5.140625 -23.53125 C 5.140625 -24.019531 5.019531 -24.425781 4.78125 -24.75 L 4.78125 -25.234375 C 5.1875 -26.054688 5.144531 -27.082031 4.65625 -28.3125 C 4.65625 -28.632812 4.695312 -28.835938 4.78125 -28.921875 C 4.613281 -29.078125 4.488281 -29.28125 4.40625 -29.53125 C 4.894531 -30.1875 5.019531 -30.757812 4.78125 -31.25 L 5.140625 -32.109375 C 5.054688 -32.265625 5.015625 -32.628906 5.015625 -33.203125 L 5.015625 -33.578125 L 4.90625 -33.8125 C 4.820312 -34.0625 4.859375 -34.269531 5.015625 -34.4375 L 5.265625 -34.4375 L 5.390625 -34.3125 L 5.515625 -34.796875 L 5.515625 -35.40625 L 5.390625 -35.65625 L 5.640625 -35.90625 C 5.878906 -36.550781 5.796875 -37.445312 5.390625 -38.59375 L 5.75 -38.59375 C 5.914062 -38.507812 6.039062 -38.46875 6.125 -38.46875 L 6.125 -39.203125 L 6 -39.828125 L 6.484375 -40.1875 C 6.410156 -40.59375 6.25 -40.878906 6 -41.046875 C 6.164062 -41.296875 6.410156 -41.421875 6.734375 -41.421875 L 6.484375 -42.15625 L 7.109375 -42.890625 C 6.941406 -43.210938 6.898438 -43.617188 6.984375 -44.109375 L 6.984375 -45.953125 C 7.148438 -46.109375 7.234375 -46.226562 7.234375 -46.3125 L 7.46875 -48.40625 C 7.46875 -49.21875 7.265625 -49.785156 6.859375 -50.109375 L 7.34375 -50.234375 L 7.71875 -50.234375 C 7.882812 -50.398438 7.800781 -50.601562 7.46875 -50.84375 C 7.71875 -51.09375 7.84375 -51.335938 7.84375 -51.578125 C 7.757812 -51.828125 7.757812 -52.078125 7.84375 -52.328125 L 7.84375 -53.296875 L 7.46875 -53.671875 C 7.632812 -54.078125 7.71875 -54.8125 7.71875 -55.875 C 7.71875 -56.53125 7.921875 -57.179688 8.328125 -57.828125 L 8.8125 -58.8125 L 9.0625 -58.9375 L 9.1875 -58.9375 C 9.351562 -59.257812 9.351562 -59.546875 9.1875 -59.796875 L 8.8125 -60.046875 L 8.703125 -60.28125 C 8.703125 -60.445312 8.78125 -60.570312 8.9375 -60.65625 L 9.1875 -60.78125 L 9.4375 -60.890625 L 10.90625 -65.1875 L 10.296875 -65.796875 C 10.367188 -65.710938 10.570312 -65.671875 10.90625 -65.671875 C 10.988281 -65.753906 11.066406 -65.960938 11.140625 -66.296875 L 10.90625 -66.40625 L 10.90625 -66.53125 C 10.820312 -66.613281 10.695312 -66.65625 10.53125 -66.65625 L 11.140625 -67.265625 C 11.140625 -67.023438 11.179688 -66.863281 11.265625 -66.78125 C 11.597656 -66.863281 11.882812 -67.148438 12.125 -67.640625 L 11.515625 -68.125 L 11.640625 -68 C 11.390625 -68.082031 11.222656 -68.164062 11.140625 -68.25 C 11.140625 -68.414062 11.222656 -68.5 11.390625 -68.5 L 11.640625 -68.5 L 11.890625 -68.625 L 11.890625 -69.109375 L 11.765625 -69.59375 C 11.765625 -70 11.84375 -70.328125 12 -70.578125 L 12.734375 -71.1875 L 12.984375 -72.046875 C 13.234375 -72.535156 13.5625 -72.984375 13.96875 -73.390625 L 14.09375 -73.515625 L 14.09375 -73.640625 C 14.414062 -73.722656 14.738281 -74.007812 15.0625 -74.5 L 18.125 -77.4375 L 18.984375 -78.171875 L 19.84375 -78.78125 C 21.15625 -79.925781 22.34375 -80.703125 23.40625 -81.109375 C 23.5625 -81.191406 23.847656 -81.4375 24.265625 -81.84375 L 25 -82.34375 L 25.859375 -82.703125 C 26.179688 -83.035156 26.671875 -83.078125 27.328125 -82.828125 L 27.8125 -82.59375 L 28.296875 -82.34375 C 28.628906 -82.007812 28.875 -81.679688 29.03125 -81.359375 C 29.601562 -81.273438 30.132812 -81.316406 30.625 -81.484375 C 30.957031 -80.992188 31.367188 -80.585938 31.859375 -80.265625 L 32.46875 -80.265625 L 33.078125 -80.140625 C 33.160156 -79.890625 33.363281 -79.601562 33.6875 -79.28125 L 34.671875 -79.28125 C 35.328125 -78.945312 36.101562 -78.332031 37 -77.4375 C 37.40625 -77.03125 37.566406 -76.582031 37.484375 -76.09375 C 37.734375 -75.601562 38.0625 -74.988281 38.46875 -74.25 L 38.34375 -74.25 L 38.84375 -72.421875 L 38.71875 -72.171875 L 38.59375 -71.796875 C 38.757812 -71.640625 38.84375 -71.476562 38.84375 -71.3125 C 39 -71.070312 39.117188 -70.785156 39.203125 -70.453125 L 39.453125 -69.84375 L 39.8125 -66.40625 L 39.9375 -65.671875 C 39.9375 -65.347656 40.019531 -65.101562 40.1875 -64.9375 C 40.351562 -64.78125 40.4375 -64.535156 40.4375 -64.203125 L 40.5625 -63.84375 L 40.5625 -63.59375 C 40.71875 -63.269531 40.835938 -62.695312 40.921875 -61.875 C 41.003906 -61.144531 41.085938 -60.570312 41.171875 -60.15625 C 41.003906 -59.664062 41.003906 -59.015625 41.171875 -58.203125 L 41.40625 -57.09375 L 41.53125 -56.125 C 41.613281 -56.125 41.65625 -56.082031 41.65625 -56 L 42.03125 -56.234375 C 42.1875 -56.078125 42.222656 -55.914062 42.140625 -55.75 L 42.03125 -55.5 L 42.03125 -55.265625 C 41.945312 -55.097656 41.90625 -54.726562 41.90625 -54.15625 L 41.78125 -54.15625 L 42.03125 -53.421875 C 42.03125 -53.335938 41.988281 -53.253906 41.90625 -53.171875 C 41.820312 -53.097656 41.738281 -52.976562 41.65625 -52.8125 C 42.144531 -50.9375 41.984375 -49.140625 41.171875 -47.421875 C 41.578125 -47.085938 41.78125 -46.597656 41.78125 -45.953125 L 41.90625 -45.21875 L 42.03125 -44.359375 C 42.03125 -44.273438 41.945312 -44.148438 41.78125 -43.984375 L 42.03125 -43.015625 L 41.78125 -42.390625 C 41.863281 -42.148438 41.945312 -41.988281 42.03125 -41.90625 L 42.03125 -41.296875 C 41.945312 -41.128906 41.945312 -40.960938 42.03125 -40.796875 C 42.03125 -40.722656 42.066406 -40.601562 42.140625 -40.4375 L 42.140625 -40.0625 L 42.390625 -38.46875 L 42.390625 -35.53125 C 42.390625 -35.363281 42.472656 -34.957031 42.640625 -34.3125 L 42.640625 -31.484375 L 43 -31 L 43 -29.65625 C 43 -29.488281 43.039062 -29.363281 43.125 -29.28125 C 43.039062 -29.195312 42.960938 -29.035156 42.890625 -28.796875 L 43.25 -28.3125 L 43 -27.078125 C 43.570312 -26.179688 43.65625 -25.078125 43.25 -23.765625 C 43.25 -23.609375 43.332031 -23.117188 43.5 -22.296875 L 43.125 -21.9375 C 43.289062 -21.769531 43.414062 -21.566406 43.5 -21.328125 C 43.09375 -21.160156 42.925781 -20.910156 43 -20.578125 C 43.488281 -19.523438 43.488281 -18.425781 43 -17.28125 C 43 -16.625 42.960938 -16.171875 42.890625 -15.921875 L 42.640625 -14.34375 C 42.554688 -13.601562 42.472656 -12.988281 42.390625 -12.5 L 42.515625 -12.015625 L 42.515625 -11.390625 L 41.53125 -10.90625 L 41.53125 -10.171875 L 40.0625 -9.0625 L 40.0625 -8.9375 L 39.328125 -8.703125 L 39.328125 -7.84375 L 38.96875 -7.59375 L 38.46875 -7.359375 L 38.234375 -7.46875 L 37.859375 -7.59375 C 37.691406 -7.675781 37.488281 -7.632812 37.25 -7.46875 L 37.484375 -6.734375 L 37.484375 -6.609375 L 37.375 -6.375 C 37.375 -5.476562 37.410156 -4.90625 37.484375 -4.65625 L 37 -4.65625 L 36.75 -4.53125 C 36.675781 -4.445312 36.554688 -4.117188 36.390625 -3.546875 L 35.90625 -4.78125 C 35.738281 -5.1875 35.613281 -5.515625 35.53125 -5.765625 C 35.363281 -5.921875 35.160156 -6.039062 34.921875 -6.125 C 34.753906 -5.957031 34.753906 -5.628906 34.921875 -5.140625 C 34.753906 -4.898438 34.585938 -4.820312 34.421875 -4.90625 L 34.1875 -5.03125 L 33.9375 -5.140625 L 33.578125 -6 C 33.410156 -5.84375 33.328125 -5.679688 33.328125 -5.515625 L 33.453125 -5.390625 L 33.453125 -5.265625 C 33.367188 -5.023438 33.160156 -4.945312 32.828125 -5.03125 C 32.753906 -5.101562 32.632812 -5.179688 32.46875 -5.265625 C 32.382812 -5.429688 32.257812 -5.515625 32.09375 -5.515625 L 31.359375 -6.25 C 31.609375 -6.570312 31.648438 -6.898438 31.484375 -7.234375 L 31.125 -7.46875 L 30.875 -7.71875 L 30.875 -8.453125 C 30.707031 -8.773438 30.503906 -9.144531 30.265625 -9.5625 L 29.53125 -10.65625 L 29.53125 -11.390625 C 29.53125 -11.640625 29.445312 -11.882812 29.28125 -12.125 L 29.28125 -12.25 C 29.363281 -13.3125 29.203125 -14.457031 28.796875 -15.6875 L 28.796875 -17.40625 C 28.628906 -18.539062 28.546875 -19.351562 28.546875 -19.84375 C 28.460938 -19.925781 28.421875 -20.171875 28.421875 -20.578125 L 28.421875 -21.078125 C 28.335938 -21.398438 28.335938 -21.804688 28.421875 -22.296875 L 28.421875 -27.203125 C 28.335938 -27.523438 28.21875 -27.8125 28.0625 -28.0625 C 28.382812 -28.46875 28.460938 -29.203125 28.296875 -30.265625 C 28.296875 -31.566406 28.257812 -32.503906 28.1875 -33.078125 C 28.1875 -33.410156 28.101562 -33.984375 27.9375 -34.796875 L 27.5625 -35.171875 L 26.703125 -33.9375 C 26.210938 -34.019531 25.804688 -33.898438 25.484375 -33.578125 C 25.078125 -33.242188 24.671875 -33.160156 24.265625 -33.328125 C 24.097656 -33.078125 23.769531 -32.875 23.28125 -32.71875 L 22.78125 -32.59375 L 22.296875 -32.34375 L 19.71875 -33.078125 L 18.75 -32.21875 L 17.640625 -33.578125 L 17.640625 -33.703125 L 17.390625 -33.8125 L 17.15625 -33.8125 C 16.988281 -33.65625 16.90625 -33.492188 16.90625 -33.328125 L 16.90625 -32.71875 L 16.546875 -32.21875 C 16.617188 -32.144531 16.695312 -31.984375 16.78125 -31.734375 C 16.625 -31.078125 16.546875 -30.179688 16.546875 -29.046875 L 16.421875 -27.6875 L 16.171875 -26.21875 C 15.765625 -25.8125 15.804688 -25.40625 16.296875 -25 C 16.128906 -23.53125 16.046875 -22.507812 16.046875 -21.9375 L 15.796875 -20.46875 C 15.640625 -19.8125 15.5625 -19.28125 15.5625 -18.875 C 15.71875 -18.707031 15.878906 -18.175781 16.046875 -17.28125 C 16.128906 -16.539062 16.171875 -15.882812 16.171875 -15.3125 C 16.253906 -15.070312 16.414062 -14.828125 16.65625 -14.578125 C 16.582031 -14.085938 16.582031 -13.351562 16.65625 -12.375 L 16.65625 -11.15625 C 16.65625 -10.664062 16.617188 -10.210938 16.546875 -9.796875 L 16.78125 -6.859375 C 16.945312 -5.472656 17.148438 -4.453125 17.390625 -3.796875 L 16.78125 -3.3125 L 16.546875 -1.953125 C 16.378906 -1.796875 16.171875 -1.675781 15.921875 -1.59375 L 15.6875 -1.21875 L 15.5625 -0.734375 C 15.394531 -0.410156 15.148438 -0.207031 14.828125 -0.125 C 13.515625 -0.9375 11.921875 -1.34375 10.046875 -1.34375 C 9.878906 -1.507812 9.796875 -1.632812 9.796875 -1.71875 L 9.671875 -1.953125 L 8.703125 -2.203125 C 8.285156 -2.285156 8 -2.488281 7.84375 -2.8125 L 7.109375 -2.203125 L 6.609375 -2.703125 L 6.859375 -3.1875 L 7.109375 -3.546875 L 6.859375 -4.046875 L 6.609375 -4.28125 C 6.453125 -4.207031 6.25 -4.128906 6 -4.046875 C 5.675781 -3.960938 5.429688 -3.835938 5.265625 -3.671875 L 4.90625 -4.171875 L 5.515625 -4.40625 L 5.515625 -5.03125 C 6.160156 -5.519531 6.28125 -6.210938 5.875 -7.109375 L 5.875 -7.46875 L 5.75 -7.96875 C 5.75 -8.289062 5.671875 -8.613281 5.515625 -8.9375 L 5.265625 -9.1875 L 5.015625 -9.3125 C 4.773438 -9.394531 4.613281 -9.597656 4.53125 -9.921875 C 4.78125 -9.921875 4.941406 -9.878906 5.015625 -9.796875 L 5.390625 -10.296875 L 5.015625 -11.03125 C 5.097656 -11.113281 5.140625 -11.359375 5.140625 -11.765625 Z M 12.734375 -69.59375 Z M 19.109375 -45.703125 C 19.191406 -45.617188 19.273438 -45.578125 19.359375 -45.578125 L 20.703125 -45.828125 C 21.035156 -46.066406 21.445312 -46.109375 21.9375 -45.953125 L 22.046875 -46.078125 L 22.171875 -46.078125 C 22.578125 -45.992188 23.03125 -45.992188 23.53125 -46.078125 L 24.875 -46.1875 C 25.28125 -46.1875 25.523438 -46.148438 25.609375 -46.078125 L 26.09375 -46.4375 L 26.59375 -46.5625 L 26.953125 -46.5625 C 27.035156 -46.800781 27.160156 -47.003906 27.328125 -47.171875 L 27.203125 -48.765625 L 27.203125 -52.4375 C 27.285156 -53.09375 27.328125 -54.113281 27.328125 -55.5 L 27.328125 -56.609375 C 27.242188 -56.929688 27.242188 -57.257812 27.328125 -57.59375 C 27.484375 -57.914062 27.5625 -58.320312 27.5625 -58.8125 L 27.5625 -64.453125 L 27.328125 -68 L 26.953125 -69.71875 C 26.867188 -70.125 26.75 -70.25 26.59375 -70.09375 L 25.96875 -69.109375 C 24.988281 -68.128906 24.296875 -67.226562 23.890625 -66.40625 L 22.78125 -64.328125 L 22.78125 -64.078125 C 22.78125 -63.835938 22.660156 -63.515625 22.421875 -63.109375 C 22.253906 -62.941406 22.171875 -62.816406 22.171875 -62.734375 C 22.085938 -62.492188 22.007812 -62.289062 21.9375 -62.125 L 21.6875 -61.875 L 21.5625 -61.640625 L 21.203125 -60.78125 L 20.828125 -59.546875 C 20.660156 -59.222656 20.535156 -58.773438 20.453125 -58.203125 L 20.34375 -56.859375 L 19.96875 -55.875 L 19.71875 -54.65625 C 19.5625 -54.15625 19.484375 -53.742188 19.484375 -53.421875 C 19.316406 -52.117188 19.113281 -51.140625 18.875 -50.484375 L 18.875 -50.109375 C 18.789062 -50.035156 18.75 -49.914062 18.75 -49.75 L 18.75 -48.890625 L 18.625 -47.90625 C 18.539062 -47.414062 18.539062 -46.882812 18.625 -46.3125 C 18.707031 -46.226562 18.75 -46.023438 18.75 -45.703125 Z M 13.234375 -70.09375 C 13.640625 -70.332031 13.71875 -70.78125 13.46875 -71.4375 L 12.984375 -70.953125 C 12.984375 -70.535156 13.066406 -70.25 13.234375 -70.09375 Z M 40.0625 -9.921875 L 40.0625 -10.046875 L 39.8125 -10.046875 L 39.8125 -9.921875 Z M 36.875 -6.25 C 36.875 -6.332031 36.796875 -6.375 36.640625 -6.375 L 36.640625 -6.25 C 36.710938 -6.25 36.789062 -6.207031 36.875 -6.125 Z M 7.84375 -18.875 C 7.757812 -18.875 7.71875 -18.832031 7.71875 -18.75 C 7.800781 -18.75 7.84375 -18.789062 7.84375 -18.875 Z M 4.53125 -36.515625 C 4.125 -36.753906 3.960938 -37.039062 4.046875 -37.375 C 4.535156 -37.207031 4.695312 -36.921875 4.53125 -36.515625 Z M 9.5625 -63.46875 C 9.476562 -63.632812 9.394531 -63.757812 9.3125 -63.84375 C 9.632812 -64 9.71875 -63.875 9.5625 -63.46875 Z M 8.8125 -58.8125 C 8.570312 -59.0625 8.535156 -59.265625 8.703125 -59.421875 C 8.773438 -59.347656 8.8125 -59.144531 8.8125 -58.8125 Z M 30.015625 -7.59375 L 30.015625 -7.71875 L 30.140625 -7.59375 Z M 7.46875 -58.5625 L 7.59375 -58.5625 Z M 30.265625 -7.109375 L 30.265625 -6.984375 Z M 11.640625 -68 L 11.515625 -68 L 11.515625 -68.125 Z M 11.640625 -68 "/></g></g><g style="fill:#f1e2c2;fill-opacity:1;"><g transform="translate(232.562649, 314.906263)"><path style="stroke:none" d="M 52.078125 -0.25 L 51.34375 -3.1875 L 50.96875 -4.40625 L 50.734375 -5.140625 L 50.359375 -9.796875 L 50.359375 -11.265625 L 50.234375 -12.75 C 50.234375 -13.394531 50.191406 -13.800781 50.109375 -13.96875 C 50.035156 -15.84375 50.160156 -17.765625 50.484375 -19.734375 L 50.96875 -25.484375 C 51.132812 -26.796875 51.21875 -27.816406 51.21875 -28.546875 L 51.21875 -28.921875 L 50.96875 -31.984375 C 50.882812 -32.140625 50.882812 -32.425781 50.96875 -32.84375 L 50.96875 -35.28125 C 50.882812 -35.363281 50.84375 -35.445312 50.84375 -35.53125 C 50.769531 -36.425781 50.734375 -37.613281 50.734375 -39.09375 L 50.734375 -39.828125 L 50.609375 -40.4375 C 50.441406 -42.394531 50.359375 -43.90625 50.359375 -44.96875 L 50 -49.140625 C 49.914062 -49.953125 49.75 -50.929688 49.5 -52.078125 L 48.765625 -54.890625 C 48.523438 -55.460938 48.320312 -56.320312 48.15625 -57.46875 C 47.988281 -57.789062 47.863281 -58.195312 47.78125 -58.6875 L 47.671875 -59.921875 L 47.296875 -60.65625 L 46.921875 -60.65625 L 46.1875 -60.046875 L 45.578125 -59.3125 L 43.75 -56.125 L 43.375 -55.75 C 42.96875 -55.425781 42.5625 -54.851562 42.15625 -54.03125 C 41.820312 -53.300781 41.164062 -52.9375 40.1875 -52.9375 L 39.9375 -52.9375 L 39.828125 -53.0625 L 39.703125 -53.0625 C 39.367188 -53.21875 39 -53.253906 38.59375 -53.171875 L 37.984375 -53.0625 L 37.375 -52.9375 C 35.820312 -52.9375 34.675781 -52.976562 33.9375 -53.0625 L 33.8125 -53.0625 L 32.59375 -53.671875 L 31.484375 -54.15625 C 30.503906 -54.488281 29.769531 -54.859375 29.28125 -55.265625 C 27.320312 -56.566406 26.015625 -57.628906 25.359375 -58.453125 L 24.015625 -60.15625 C 23.691406 -60.570312 23.320312 -61.101562 22.90625 -61.75 L 22.421875 -62.609375 L 21.8125 -63.59375 C 21.8125 -63.675781 21.726562 -63.800781 21.5625 -63.96875 C 21.070312 -63.96875 20.664062 -63.800781 20.34375 -63.46875 L 19.96875 -62.984375 L 19.609375 -62.484375 C 19.523438 -62.242188 19.398438 -61.878906 19.234375 -61.390625 C 19.148438 -60.984375 19.03125 -60.613281 18.875 -60.28125 L 18.5 -59.1875 L 18.5 -58.5625 C 18.582031 -57.914062 18.460938 -57.179688 18.140625 -56.359375 L 17.890625 -54.65625 C 17.890625 -54.15625 17.847656 -53.867188 17.765625 -53.796875 C 17.597656 -52.816406 17.554688 -52.242188 17.640625 -52.078125 C 17.640625 -51.671875 17.597656 -51.425781 17.515625 -51.34375 C 17.273438 -51.007812 17.238281 -50.519531 17.40625 -49.875 L 17.40625 -48.765625 C 17.320312 -48.191406 17.28125 -47.5 17.28125 -46.6875 C 17.195312 -46.28125 17.15625 -45.582031 17.15625 -44.59375 L 17.15625 -43.5 C 17.238281 -43.007812 17.238281 -42.597656 17.15625 -42.265625 C 17.15625 -42.023438 17.070312 -41.5 16.90625 -40.6875 C 16.75 -40.269531 16.832031 -39.859375 17.15625 -39.453125 C 17.320312 -39.128906 17.40625 -38.765625 17.40625 -38.359375 L 17.40625 -37.5 C 17.320312 -37.007812 17.484375 -36.394531 17.890625 -35.65625 L 17.515625 -32.84375 C 17.515625 -32.757812 17.4375 -32.472656 17.28125 -31.984375 L 17.03125 -30.75 L 16.78125 -29.40625 C 16.625 -29.082031 16.546875 -28.71875 16.546875 -28.3125 L 16.421875 -27.6875 L 16.421875 -26.34375 L 16.296875 -25.609375 C 16.460938 -25.035156 16.503906 -24.34375 16.421875 -23.53125 L 16.421875 -21.328125 C 16.421875 -20.992188 16.335938 -20.582031 16.171875 -20.09375 L 15.921875 -18.875 L 15.5625 -16.90625 C 15.476562 -16.582031 15.394531 -16.21875 15.3125 -15.8125 L 15.078125 -14.953125 C 14.660156 -14.210938 14.578125 -13.640625 14.828125 -13.234375 C 14.992188 -12.660156 14.910156 -12.210938 14.578125 -11.890625 C 14.492188 -11.804688 14.453125 -11.597656 14.453125 -11.265625 L 13.484375 -10.296875 C 12.992188 -10.128906 12.421875 -10.207031 11.765625 -10.53125 C 10.703125 -11.101562 9.679688 -11.269531 8.703125 -11.03125 L 8.09375 -11.640625 C 7.601562 -12.128906 7.109375 -12.414062 6.609375 -12.5 C 6.367188 -12.582031 6.085938 -12.703125 5.765625 -12.859375 L 4.90625 -13.484375 L 4.90625 -13.71875 C 5.0625 -13.96875 5.140625 -14.296875 5.140625 -14.703125 L 5.140625 -17.40625 C 5.140625 -18.789062 5.179688 -19.929688 5.265625 -20.828125 C 5.265625 -21.566406 5.347656 -22.671875 5.515625 -24.140625 L 5.765625 -26.59375 C 5.835938 -27.488281 5.835938 -28.265625 5.765625 -28.921875 L 5.765625 -32.21875 L 5.640625 -32.59375 L 5.265625 -38.84375 C 5.109375 -41.050781 5.191406 -42.929688 5.515625 -44.484375 L 5.875 -49.25 L 6 -52.203125 C 6.082031 -53.335938 6.207031 -54.316406 6.375 -55.140625 L 7.46875 -60.046875 C 7.632812 -60.859375 7.71875 -61.347656 7.71875 -61.515625 L 8.453125 -65.1875 C 8.773438 -66.570312 9.101562 -67.753906 9.4375 -68.734375 L 9.6875 -69.46875 L 9.921875 -70.09375 L 10.171875 -70.703125 C 10.335938 -71.191406 10.457031 -71.476562 10.53125 -71.5625 L 11.515625 -73.390625 L 12.5 -75.234375 L 13.484375 -76.578125 L 13.96875 -77.5625 L 14.34375 -78.546875 C 14.832031 -79.691406 15.441406 -80.382812 16.171875 -80.625 C 16.335938 -80.625 16.503906 -80.664062 16.671875 -80.75 L 17.03125 -81 C 17.03125 -81.488281 17.070312 -81.8125 17.15625 -81.96875 L 17.640625 -82.09375 L 20.578125 -82.09375 C 20.910156 -81.925781 21.363281 -81.84375 21.9375 -81.84375 L 23.15625 -81.84375 L 24.140625 -81.734375 C 24.546875 -81.648438 24.832031 -81.609375 25 -81.609375 C 25.570312 -80.867188 26.222656 -80.210938 26.953125 -79.640625 L 28.671875 -78.171875 L 29.046875 -77.8125 C 29.453125 -77.476562 29.898438 -76.988281 30.390625 -76.34375 L 30.875 -75.609375 L 31.484375 -74.859375 L 32.109375 -74.125 L 32.59375 -73.390625 C 33 -72.742188 33.367188 -72.253906 33.703125 -71.921875 C 33.859375 -71.765625 34.0625 -71.476562 34.3125 -71.0625 L 34.796875 -70.09375 L 35.65625 -68.625 C 36.0625 -68.457031 36.46875 -68.578125 36.875 -68.984375 L 38.84375 -71.1875 L 40.6875 -73.390625 C 41.007812 -73.722656 41.742188 -74.296875 42.890625 -75.109375 C 43.703125 -75.929688 44.640625 -76.585938 45.703125 -77.078125 L 46.3125 -77.5625 L 46.921875 -78.171875 L 47.421875 -78.296875 L 47.78125 -78.421875 L 49.5 -78.421875 C 50.15625 -78.421875 50.726562 -78.335938 51.21875 -78.171875 C 51.457031 -78.015625 51.785156 -77.9375 52.203125 -77.9375 L 53.0625 -77.8125 L 54.03125 -77.5625 L 55.015625 -77.3125 C 55.753906 -77.070312 56.410156 -76.75 56.984375 -76.34375 L 57.21875 -75.71875 L 57.46875 -75.234375 C 57.632812 -74.910156 57.796875 -74.625 57.953125 -74.375 C 58.285156 -74.050781 58.613281 -73.5625 58.9375 -72.90625 L 59.421875 -72.171875 L 59.796875 -71.4375 L 60.40625 -70.203125 L 60.890625 -68.859375 L 61.015625 -68.734375 L 61.015625 -68.5 C 60.859375 -68.332031 60.816406 -68.085938 60.890625 -67.765625 L 61.015625 -67.390625 L 61.140625 -67.03125 L 61.140625 -66.53125 L 61.390625 -64.8125 L 61.390625 -62.609375 L 61.875 -61.140625 L 62.25 -59.671875 L 62.375 -59.421875 L 62.375 -59.1875 C 62.375 -58.28125 62.535156 -57.546875 62.859375 -56.984375 L 62.859375 -54.890625 L 62.984375 -54.03125 C 63.066406 -53.707031 63.1875 -53.421875 63.34375 -53.171875 L 63.59375 -52.4375 C 64.082031 -52.113281 64.242188 -51.460938 64.078125 -50.484375 C 64.078125 -49.992188 64.203125 -49.546875 64.453125 -49.140625 C 64.617188 -48.972656 64.703125 -48.765625 64.703125 -48.515625 C 64.773438 -48.441406 64.8125 -48.320312 64.8125 -48.15625 C 65.144531 -47.832031 65.3125 -47.257812 65.3125 -46.4375 L 65.4375 -45.453125 L 65.4375 -44.484375 C 65.4375 -43.828125 65.394531 -43.414062 65.3125 -43.25 C 65.3125 -43.09375 65.351562 -42.972656 65.4375 -42.890625 C 65.59375 -42.554688 65.710938 -42.144531 65.796875 -41.65625 L 65.921875 -40.3125 L 65.921875 -39.703125 L 66.046875 -38.96875 C 66.128906 -38.394531 66.085938 -37.941406 65.921875 -37.609375 L 65.921875 -37.5 L 66.171875 -36.515625 L 66.296875 -35.53125 C 66.296875 -34.632812 66.414062 -33.941406 66.65625 -33.453125 C 66.90625 -32.796875 66.988281 -32.179688 66.90625 -31.609375 L 66.90625 -31.375 C 67.0625 -30.957031 67.0625 -30.382812 66.90625 -29.65625 C 66.90625 -29.164062 66.945312 -28.835938 67.03125 -28.671875 C 67.269531 -27.929688 67.304688 -27.28125 67.140625 -26.71875 L 67.515625 -24.75 C 67.679688 -23.9375 67.765625 -23.363281 67.765625 -23.03125 L 67.765625 -21.4375 L 67.390625 -20.21875 L 67.390625 -19.609375 L 66.90625 -19 L 67.265625 -18.140625 C 67.023438 -17.890625 66.90625 -17.601562 66.90625 -17.28125 L 66.90625 -16.78125 L 67.03125 -16.296875 C 67.1875 -15.890625 67.144531 -15.398438 66.90625 -14.828125 C 66.738281 -14.335938 66.695312 -13.96875 66.78125 -13.71875 L 66.78125 -13.359375 C 66.695312 -13.273438 66.65625 -13.148438 66.65625 -12.984375 L 66.171875 -12.75 C 66.003906 -12.664062 65.878906 -12.582031 65.796875 -12.5 C 65.628906 -12.332031 65.546875 -12.128906 65.546875 -11.890625 L 64.9375 -11.390625 L 64.9375 -11.265625 C 64.851562 -11.191406 64.8125 -11.070312 64.8125 -10.90625 C 64.8125 -10.582031 64.773438 -10.378906 64.703125 -10.296875 C 64.453125 -9.960938 64.242188 -9.507812 64.078125 -8.9375 L 63.59375 -7.46875 C 63.507812 -7.144531 63.222656 -6.820312 62.734375 -6.5 C 62.410156 -6.414062 62.046875 -6.171875 61.640625 -5.765625 L 60.65625 -5.765625 C 60.25 -5.765625 59.921875 -5.640625 59.671875 -5.390625 L 59.421875 -4.78125 L 59.1875 -4.28125 C 59.101562 -4.363281 59.019531 -4.445312 58.9375 -4.53125 C 58.851562 -4.613281 58.726562 -4.65625 58.5625 -4.65625 C 58 -4.488281 57.675781 -4.160156 57.59375 -3.671875 C 57.507812 -3.429688 57.179688 -3.023438 56.609375 -2.453125 L 56 -1.84375 C 55.664062 -1.351562 55.132812 -0.898438 54.40625 -0.484375 Z M 52.078125 -0.25 "/></g></g><g style="fill:#f1e2c2;fill-opacity:1;"><g transform="translate(310.370118, 314.906263)"><path style="stroke:none" d="M 5.265625 -11.890625 L 5.265625 -12.015625 L 4.90625 -12.25 C 4.90625 -12.414062 4.984375 -13.070312 5.140625 -14.21875 C 4.734375 -14.863281 4.53125 -15.394531 4.53125 -15.8125 C 4.695312 -15.96875 4.820312 -16.128906 4.90625 -16.296875 C 4.976562 -16.546875 5.054688 -16.707031 5.140625 -16.78125 L 4.65625 -17.890625 C 4.820312 -17.890625 4.941406 -17.929688 5.015625 -18.015625 L 5.015625 -18.375 C 4.941406 -18.457031 4.90625 -18.539062 4.90625 -18.625 C 4.65625 -19.113281 4.53125 -19.601562 4.53125 -20.09375 C 4.53125 -20.257812 4.445312 -20.75 4.28125 -21.5625 C 4.53125 -22.382812 4.816406 -23.039062 5.140625 -23.53125 C 5.140625 -24.019531 5.019531 -24.425781 4.78125 -24.75 L 4.78125 -25.234375 C 5.1875 -26.054688 5.144531 -27.082031 4.65625 -28.3125 C 4.65625 -28.632812 4.695312 -28.835938 4.78125 -28.921875 C 4.613281 -29.078125 4.488281 -29.28125 4.40625 -29.53125 C 4.894531 -30.1875 5.019531 -30.757812 4.78125 -31.25 L 5.140625 -32.109375 C 5.054688 -32.265625 5.015625 -32.628906 5.015625 -33.203125 L 5.015625 -33.578125 L 4.90625 -33.8125 C 4.820312 -34.0625 4.859375 -34.269531 5.015625 -34.4375 L 5.265625 -34.4375 L 5.390625 -34.3125 L 5.515625 -34.796875 L 5.515625 -35.40625 L 5.390625 -35.65625 L 5.640625 -35.90625 C 5.878906 -36.550781 5.796875 -37.445312 5.390625 -38.59375 L 5.75 -38.59375 C 5.914062 -38.507812 6.039062 -38.46875 6.125 -38.46875 L 6.125 -39.203125 L 6 -39.828125 L 6.484375 -40.1875 C 6.410156 -40.59375 6.25 -40.878906 6 -41.046875 C 6.164062 -41.296875 6.410156 -41.421875 6.734375 -41.421875 L 6.484375 -42.15625 L 7.109375 -42.890625 C 6.941406 -43.210938 6.898438 -43.617188 6.984375 -44.109375 L 6.984375 -45.953125 C 7.148438 -46.109375 7.234375 -46.226562 7.234375 -46.3125 L 7.46875 -48.40625 C 7.46875 -49.21875 7.265625 -49.785156 6.859375 -50.109375 L 7.34375 -50.234375 L 7.71875 -50.234375 C 7.882812 -50.398438 7.800781 -50.601562 7.46875 -50.84375 C 7.71875 -51.09375 7.84375 -51.335938 7.84375 -51.578125 C 7.757812 -51.828125 7.757812 -52.078125 7.84375 -52.328125 L 7.84375 -53.296875 L 7.46875 -53.671875 C 7.632812 -54.078125 7.71875 -54.8125 7.71875 -55.875 C 7.71875 -56.53125 7.921875 -57.179688 8.328125 -57.828125 L 8.8125 -58.8125 L 9.0625 -58.9375 L 9.1875 -58.9375 C 9.351562 -59.257812 9.351562 -59.546875 9.1875 -59.796875 L 8.8125 -60.046875 L 8.703125 -60.28125 C 8.703125 -60.445312 8.78125 -60.570312 8.9375 -60.65625 L 9.1875 -60.78125 L 9.4375 -60.890625 L 10.90625 -65.1875 L 10.296875 -65.796875 C 10.367188 -65.710938 10.570312 -65.671875 10.90625 -65.671875 C 10.988281 -65.753906 11.066406 -65.960938 11.140625 -66.296875 L 10.90625 -66.40625 L 10.90625 -66.53125 C 10.820312 -66.613281 10.695312 -66.65625 10.53125 -66.65625 L 11.140625 -67.265625 C 11.140625 -67.023438 11.179688 -66.863281 11.265625 -66.78125 C 11.597656 -66.863281 11.882812 -67.148438 12.125 -67.640625 L 11.515625 -68.125 L 11.640625 -68 C 11.390625 -68.082031 11.222656 -68.164062 11.140625 -68.25 C 11.140625 -68.414062 11.222656 -68.5 11.390625 -68.5 L 11.640625 -68.5 L 11.890625 -68.625 L 11.890625 -69.109375 L 11.765625 -69.59375 C 11.765625 -70 11.84375 -70.328125 12 -70.578125 L 12.734375 -71.1875 L 12.984375 -72.046875 C 13.234375 -72.535156 13.5625 -72.984375 13.96875 -73.390625 L 14.09375 -73.515625 L 14.09375 -73.640625 C 14.414062 -73.722656 14.738281 -74.007812 15.0625 -74.5 L 18.125 -77.4375 L 18.984375 -78.171875 L 19.84375 -78.78125 C 21.15625 -79.925781 22.34375 -80.703125 23.40625 -81.109375 C 23.5625 -81.191406 23.847656 -81.4375 24.265625 -81.84375 L 25 -82.34375 L 25.859375 -82.703125 C 26.179688 -83.035156 26.671875 -83.078125 27.328125 -82.828125 L 27.8125 -82.59375 L 28.296875 -82.34375 C 28.628906 -82.007812 28.875 -81.679688 29.03125 -81.359375 C 29.601562 -81.273438 30.132812 -81.316406 30.625 -81.484375 C 30.957031 -80.992188 31.367188 -80.585938 31.859375 -80.265625 L 32.46875 -80.265625 L 33.078125 -80.140625 C 33.160156 -79.890625 33.363281 -79.601562 33.6875 -79.28125 L 34.671875 -79.28125 C 35.328125 -78.945312 36.101562 -78.332031 37 -77.4375 C 37.40625 -77.03125 37.566406 -76.582031 37.484375 -76.09375 C 37.734375 -75.601562 38.0625 -74.988281 38.46875 -74.25 L 38.34375 -74.25 L 38.84375 -72.421875 L 38.71875 -72.171875 L 38.59375 -71.796875 C 38.757812 -71.640625 38.84375 -71.476562 38.84375 -71.3125 C 39 -71.070312 39.117188 -70.785156 39.203125 -70.453125 L 39.453125 -69.84375 L 39.8125 -66.40625 L 39.9375 -65.671875 C 39.9375 -65.347656 40.019531 -65.101562 40.1875 -64.9375 C 40.351562 -64.78125 40.4375 -64.535156 40.4375 -64.203125 L 40.5625 -63.84375 L 40.5625 -63.59375 C 40.71875 -63.269531 40.835938 -62.695312 40.921875 -61.875 C 41.003906 -61.144531 41.085938 -60.570312 41.171875 -60.15625 C 41.003906 -59.664062 41.003906 -59.015625 41.171875 -58.203125 L 41.40625 -57.09375 L 41.53125 -56.125 C 41.613281 -56.125 41.65625 -56.082031 41.65625 -56 L 42.03125 -56.234375 C 42.1875 -56.078125 42.222656 -55.914062 42.140625 -55.75 L 42.03125 -55.5 L 42.03125 -55.265625 C 41.945312 -55.097656 41.90625 -54.726562 41.90625 -54.15625 L 41.78125 -54.15625 L 42.03125 -53.421875 C 42.03125 -53.335938 41.988281 -53.253906 41.90625 -53.171875 C 41.820312 -53.097656 41.738281 -52.976562 41.65625 -52.8125 C 42.144531 -50.9375 41.984375 -49.140625 41.171875 -47.421875 C 41.578125 -47.085938 41.78125 -46.597656 41.78125 -45.953125 L 41.90625 -45.21875 L 42.03125 -44.359375 C 42.03125 -44.273438 41.945312 -44.148438 41.78125 -43.984375 L 42.03125 -43.015625 L 41.78125 -42.390625 C 41.863281 -42.148438 41.945312 -41.988281 42.03125 -41.90625 L 42.03125 -41.296875 C 41.945312 -41.128906 41.945312 -40.960938 42.03125 -40.796875 C 42.03125 -40.722656 42.066406 -40.601562 42.140625 -40.4375 L 42.140625 -40.0625 L 42.390625 -38.46875 L 42.390625 -35.53125 C 42.390625 -35.363281 42.472656 -34.957031 42.640625 -34.3125 L 42.640625 -31.484375 L 43 -31 L 43 -29.65625 C 43 -29.488281 43.039062 -29.363281 43.125 -29.28125 C 43.039062 -29.195312 42.960938 -29.035156 42.890625 -28.796875 L 43.25 -28.3125 L 43 -27.078125 C 43.570312 -26.179688 43.65625 -25.078125 43.25 -23.765625 C 43.25 -23.609375 43.332031 -23.117188 43.5 -22.296875 L 43.125 -21.9375 C 43.289062 -21.769531 43.414062 -21.566406 43.5 -21.328125 C 43.09375 -21.160156 42.925781 -20.910156 43 -20.578125 C 43.488281 -19.523438 43.488281 -18.425781 43 -17.28125 C 43 -16.625 42.960938 -16.171875 42.890625 -15.921875 L 42.640625 -14.34375 C 42.554688 -13.601562 42.472656 -12.988281 42.390625 -12.5 L 42.515625 -12.015625 L 42.515625 -11.390625 L 41.53125 -10.90625 L 41.53125 -10.171875 L 40.0625 -9.0625 L 40.0625 -8.9375 L 39.328125 -8.703125 L 39.328125 -7.84375 L 38.96875 -7.59375 L 38.46875 -7.359375 L 38.234375 -7.46875 L 37.859375 -7.59375 C 37.691406 -7.675781 37.488281 -7.632812 37.25 -7.46875 L 37.484375 -6.734375 L 37.484375 -6.609375 L 37.375 -6.375 C 37.375 -5.476562 37.410156 -4.90625 37.484375 -4.65625 L 37 -4.65625 L 36.75 -4.53125 C 36.675781 -4.445312 36.554688 -4.117188 36.390625 -3.546875 L 35.90625 -4.78125 C 35.738281 -5.1875 35.613281 -5.515625 35.53125 -5.765625 C 35.363281 -5.921875 35.160156 -6.039062 34.921875 -6.125 C 34.753906 -5.957031 34.753906 -5.628906 34.921875 -5.140625 C 34.753906 -4.898438 34.585938 -4.820312 34.421875 -4.90625 L 34.1875 -5.03125 L 33.9375 -5.140625 L 33.578125 -6 C 33.410156 -5.84375 33.328125 -5.679688 33.328125 -5.515625 L 33.453125 -5.390625 L 33.453125 -5.265625 C 33.367188 -5.023438 33.160156 -4.945312 32.828125 -5.03125 C 32.753906 -5.101562 32.632812 -5.179688 32.46875 -5.265625 C 32.382812 -5.429688 32.257812 -5.515625 32.09375 -5.515625 L 31.359375 -6.25 C 31.609375 -6.570312 31.648438 -6.898438 31.484375 -7.234375 L 31.125 -7.46875 L 30.875 -7.71875 L 30.875 -8.453125 C 30.707031 -8.773438 30.503906 -9.144531 30.265625 -9.5625 L 29.53125 -10.65625 L 29.53125 -11.390625 C 29.53125 -11.640625 29.445312 -11.882812 29.28125 -12.125 L 29.28125 -12.25 C 29.363281 -13.3125 29.203125 -14.457031 28.796875 -15.6875 L 28.796875 -17.40625 C 28.628906 -18.539062 28.546875 -19.351562 28.546875 -19.84375 C 28.460938 -19.925781 28.421875 -20.171875 28.421875 -20.578125 L 28.421875 -21.078125 C 28.335938 -21.398438 28.335938 -21.804688 28.421875 -22.296875 L 28.421875 -27.203125 C 28.335938 -27.523438 28.21875 -27.8125 28.0625 -28.0625 C 28.382812 -28.46875 28.460938 -29.203125 28.296875 -30.265625 C 28.296875 -31.566406 28.257812 -32.503906 28.1875 -33.078125 C 28.1875 -33.410156 28.101562 -33.984375 27.9375 -34.796875 L 27.5625 -35.171875 L 26.703125 -33.9375 C 26.210938 -34.019531 25.804688 -33.898438 25.484375 -33.578125 C 25.078125 -33.242188 24.671875 -33.160156 24.265625 -33.328125 C 24.097656 -33.078125 23.769531 -32.875 23.28125 -32.71875 L 22.78125 -32.59375 L 22.296875 -32.34375 L 19.71875 -33.078125 L 18.75 -32.21875 L 17.640625 -33.578125 L 17.640625 -33.703125 L 17.390625 -33.8125 L 17.15625 -33.8125 C 16.988281 -33.65625 16.90625 -33.492188 16.90625 -33.328125 L 16.90625 -32.71875 L 16.546875 -32.21875 C 16.617188 -32.144531 16.695312 -31.984375 16.78125 -31.734375 C 16.625 -31.078125 16.546875 -30.179688 16.546875 -29.046875 L 16.421875 -27.6875 L 16.171875 -26.21875 C 15.765625 -25.8125 15.804688 -25.40625 16.296875 -25 C 16.128906 -23.53125 16.046875 -22.507812 16.046875 -21.9375 L 15.796875 -20.46875 C 15.640625 -19.8125 15.5625 -19.28125 15.5625 -18.875 C 15.71875 -18.707031 15.878906 -18.175781 16.046875 -17.28125 C 16.128906 -16.539062 16.171875 -15.882812 16.171875 -15.3125 C 16.253906 -15.070312 16.414062 -14.828125 16.65625 -14.578125 C 16.582031 -14.085938 16.582031 -13.351562 16.65625 -12.375 L 16.65625 -11.15625 C 16.65625 -10.664062 16.617188 -10.210938 16.546875 -9.796875 L 16.78125 -6.859375 C 16.945312 -5.472656 17.148438 -4.453125 17.390625 -3.796875 L 16.78125 -3.3125 L 16.546875 -1.953125 C 16.378906 -1.796875 16.171875 -1.675781 15.921875 -1.59375 L 15.6875 -1.21875 L 15.5625 -0.734375 C 15.394531 -0.410156 15.148438 -0.207031 14.828125 -0.125 C 13.515625 -0.9375 11.921875 -1.34375 10.046875 -1.34375 C 9.878906 -1.507812 9.796875 -1.632812 9.796875 -1.71875 L 9.671875 -1.953125 L 8.703125 -2.203125 C 8.285156 -2.285156 8 -2.488281 7.84375 -2.8125 L 7.109375 -2.203125 L 6.609375 -2.703125 L 6.859375 -3.1875 L 7.109375 -3.546875 L 6.859375 -4.046875 L 6.609375 -4.28125 C 6.453125 -4.207031 6.25 -4.128906 6 -4.046875 C 5.675781 -3.960938 5.429688 -3.835938 5.265625 -3.671875 L 4.90625 -4.171875 L 5.515625 -4.40625 L 5.515625 -5.03125 C 6.160156 -5.519531 6.28125 -6.210938 5.875 -7.109375 L 5.875 -7.46875 L 5.75 -7.96875 C 5.75 -8.289062 5.671875 -8.613281 5.515625 -8.9375 L 5.265625 -9.1875 L 5.015625 -9.3125 C 4.773438 -9.394531 4.613281 -9.597656 4.53125 -9.921875 C 4.78125 -9.921875 4.941406 -9.878906 5.015625 -9.796875 L 5.390625 -10.296875 L 5.015625 -11.03125 C 5.097656 -11.113281 5.140625 -11.359375 5.140625 -11.765625 Z M 12.734375 -69.59375 Z M 19.109375 -45.703125 C 19.191406 -45.617188 19.273438 -45.578125 19.359375 -45.578125 L 20.703125 -45.828125 C 21.035156 -46.066406 21.445312 -46.109375 21.9375 -45.953125 L 22.046875 -46.078125 L 22.171875 -46.078125 C 22.578125 -45.992188 23.03125 -45.992188 23.53125 -46.078125 L 24.875 -46.1875 C 25.28125 -46.1875 25.523438 -46.148438 25.609375 -46.078125 L 26.09375 -46.4375 L 26.59375 -46.5625 L 26.953125 -46.5625 C 27.035156 -46.800781 27.160156 -47.003906 27.328125 -47.171875 L 27.203125 -48.765625 L 27.203125 -52.4375 C 27.285156 -53.09375 27.328125 -54.113281 27.328125 -55.5 L 27.328125 -56.609375 C 27.242188 -56.929688 27.242188 -57.257812 27.328125 -57.59375 C 27.484375 -57.914062 27.5625 -58.320312 27.5625 -58.8125 L 27.5625 -64.453125 L 27.328125 -68 L 26.953125 -69.71875 C 26.867188 -70.125 26.75 -70.25 26.59375 -70.09375 L 25.96875 -69.109375 C 24.988281 -68.128906 24.296875 -67.226562 23.890625 -66.40625 L 22.78125 -64.328125 L 22.78125 -64.078125 C 22.78125 -63.835938 22.660156 -63.515625 22.421875 -63.109375 C 22.253906 -62.941406 22.171875 -62.816406 22.171875 -62.734375 C 22.085938 -62.492188 22.007812 -62.289062 21.9375 -62.125 L 21.6875 -61.875 L 21.5625 -61.640625 L 21.203125 -60.78125 L 20.828125 -59.546875 C 20.660156 -59.222656 20.535156 -58.773438 20.453125 -58.203125 L 20.34375 -56.859375 L 19.96875 -55.875 L 19.71875 -54.65625 C 19.5625 -54.15625 19.484375 -53.742188 19.484375 -53.421875 C 19.316406 -52.117188 19.113281 -51.140625 18.875 -50.484375 L 18.875 -50.109375 C 18.789062 -50.035156 18.75 -49.914062 18.75 -49.75 L 18.75 -48.890625 L 18.625 -47.90625 C 18.539062 -47.414062 18.539062 -46.882812 18.625 -46.3125 C 18.707031 -46.226562 18.75 -46.023438 18.75 -45.703125 Z M 13.234375 -70.09375 C 13.640625 -70.332031 13.71875 -70.78125 13.46875 -71.4375 L 12.984375 -70.953125 C 12.984375 -70.535156 13.066406 -70.25 13.234375 -70.09375 Z M 40.0625 -9.921875 L 40.0625 -10.046875 L 39.8125 -10.046875 L 39.8125 -9.921875 Z M 36.875 -6.25 C 36.875 -6.332031 36.796875 -6.375 36.640625 -6.375 L 36.640625 -6.25 C 36.710938 -6.25 36.789062 -6.207031 36.875 -6.125 Z M 7.84375 -18.875 C 7.757812 -18.875 7.71875 -18.832031 7.71875 -18.75 C 7.800781 -18.75 7.84375 -18.789062 7.84375 -18.875 Z M 4.53125 -36.515625 C 4.125 -36.753906 3.960938 -37.039062 4.046875 -37.375 C 4.535156 -37.207031 4.695312 -36.921875 4.53125 -36.515625 Z M 9.5625 -63.46875 C 9.476562 -63.632812 9.394531 -63.757812 9.3125 -63.84375 C 9.632812 -64 9.71875 -63.875 9.5625 -63.46875 Z M 8.8125 -58.8125 C 8.570312 -59.0625 8.535156 -59.265625 8.703125 -59.421875 C 8.773438 -59.347656 8.8125 -59.144531 8.8125 -58.8125 Z M 30.015625 -7.59375 L 30.015625 -7.71875 L 30.140625 -7.59375 Z M 7.46875 -58.5625 L 7.59375 -58.5625 Z M 30.265625 -7.109375 L 30.265625 -6.984375 Z M 11.640625 -68 L 11.515625 -68 L 11.515625 -68.125 Z M 11.640625 -68 "/></g></g></g></svg>