<?xml version="1.0" encoding="utf-8" ?><svg xmlns="http://www.w3.org/2000/svg" xmlns:xlink="http://www.w3.org/1999/xlink" width="500" height="142" viewBox="0 0 500 142"><path fill="#252525" transform="scale(0.138658 0.138672)" d="M683.5 43.5344C621.258 19.0377 519.763 1.98303 452.134 7.98291C416.143 10.3555 377.181 15.1437 342.867 26.5087C274.427 49.1881 207.121 107.39 159.616 161.489C48.9328 287.535 -1.31512 464.103 8.40696 630.106C14.9675 742.119 69.5272 853.966 153.1 929.165C211.467 981.684 290.941 1021.81 371.513 1015.36C482.211 1006.49 600.584 964.557 674.364 878.181C745.887 794.451 761.566 682.676 750.531 576.014C740.153 473.391 742.836 359.316 656.25 286.388C614.289 251.046 546.274 235.924 492.725 240.813C329.358 255.704 214.203 454.908 234.577 607.665C242.348 665.917 260.523 732.989 309.421 770.661C380.883 825.539 473.701 803.227 526.087 733.285C562.449 688.575 568.997 631.181 564.753 575.661C562.417 545.1 530.556 510.796 500.826 517.286C440.559 530.454 439.561 646.605 387.863 664.338C357.887 674.621 332.615 586.817 333.256 566.863C322.089 464.254 379.599 327.557 495.583 317.7C526.848 315.104 559.66 317.887 588.799 329.829C632.638 351.794 653.999 379.954 670.058 426.489C680.79 457.591 683.624 486.09 688.426 517.892C701.324 603.316 702.662 670.576 662.596 749.986C628.762 817.044 562.966 875.844 490.937 898.178C422.565 919.379 360.238 912.608 297.523 878.65C210.626 831.596 146.758 765.765 116.194 670.049C76.5013 545.749 112.052 395.697 169.636 281.961C216.01 190.37 297.936 116.375 397.223 86.9967C494.329 58.2598 620.337 76.8722 709.082 123.81C810.506 177.13 878.025 270.855 907.839 380.531C939.5 496.993 951.09 629.919 891.367 739.595C858.949 799.131 819.903 833.565 770.638 876.508C765.143 881.296 762.669 897.385 765.886 903.911C787.657 952.359 832.345 912.876 856.043 891.938L856.98 891.111C904.587 849.076 940.755 802.499 964.425 743.619C1011.35 617.977 985.238 410.999 933.269 289.107C884.653 175.068 798.404 88.7563 683.5 43.5344Z"/><path fill="#F1E2C3" transform="scale(0.138658 0.138672)" d="M2931 158.309C2906.87 132.81 2887.14 129.118 2853.73 130.106C2831.55 139.394 2802.66 193.608 2794.69 216.518C2767.34 295.049 2756.6 385.183 2760.85 468.119C2762.96 496.655 2761.66 523.939 2760.37 551.088C2759.17 576.494 2757.97 601.781 2759.56 627.863C2760.38 641.24 2811.48 654.502 2824.35 657.48L2825.28 655.151C2840.79 615.345 2841.24 570.895 2845.61 529.098C2847.33 512.663 2850.65 495.984 2851.43 479.506C2851.93 468.736 2851.18 457.837 2850.42 446.947C2849.87 439.149 2849.33 431.355 2849.25 423.619C2848.99 396.627 2852.35 277.699 2873.53 266.254C2874.03 265.98 2874.6 265.858 2875.14 265.663C2887.55 271.49 2889.63 280.951 2897.62 291.775C2933.49 340.401 2968.14 345.326 3022.15 344.259C3039.79 323.159 3050.12 306.133 3065.35 283.345C3071.45 317.224 3084.45 354.888 3086.24 388.99C3086.84 401.415 3087.78 415.504 3088.76 430.07C3090.69 458.684 3092.73 489.141 3092.51 512.447C3092.31 532.49 3090.9 552.272 3089.5 571.922C3085.71 625.092 3081.99 677.306 3102.6 731.165C3113.67 726.55 3172.19 685.056 3180.59 675.927C3224.41 624.988 3216.86 561.244 3209.51 499.161C3207.43 481.563 3205.36 464.1 3204.49 447.099C3201.68 392.639 3189.65 370.573 3180.1 315.911C3178.66 307.648 3177.37 298.765 3176.03 289.578C3166.03 220.813 3153.55 134.989 3056.09 164.359C3036.14 170.374 2998.12 213.893 2984.95 232.852C2971.94 204.562 2952.21 180.722 2931 158.309Z"/><path fill="#F1E2C3" transform="scale(0.138658 0.138672)" d="M1705.33 139.141C1696.41 134.634 1675.07 123.962 1665.86 124.034C1639.57 136.791 1599.52 167.236 1579.99 190.529C1556.77 218.242 1544.02 283.915 1533.48 319.928C1526.94 342.261 1531.39 384.368 1524.72 408.691C1509.19 487.482 1505.09 566.359 1512.56 646.36C1513.17 652.929 1514.2 658.435 1515.17 663.636C1517.01 673.48 1518.64 682.23 1516.89 695.022C1522.86 712.185 1572.61 723.658 1588.54 729.629L1597.76 711.42C1605.16 696.501 1601.03 660.012 1597.53 629.063C1595.67 612.576 1593.99 597.661 1594.31 588.418C1594.98 569.56 1595.48 499.741 1602.33 486.523C1605.72 486.526 1607.48 487.986 1608.99 489.242C1610.81 490.744 1612.27 491.955 1615.73 490.034C1625.64 490.669 1628.64 490.885 1638.13 493.489C1654.06 487.568 1666.08 483.876 1680.4 474.336C1680.47 481.581 1680.43 489.624 1680.4 498.249C1680.16 557.101 1679.8 643.005 1709.28 686.736C1713.28 692.669 1717.93 691.918 1722.84 691.124C1728.55 690.203 1734.61 689.223 1740.43 698.584C1746.47 696.154 1748.72 691.885 1751.23 685.547C1757.43 669.927 1782.78 654.985 1786.07 639.192C1798.11 581.274 1792.41 519.669 1786.85 459.611C1785.03 439.949 1783.23 420.453 1782.06 401.307C1781.31 388.844 1781.49 375.496 1781.68 362.019C1781.96 342.286 1782.23 322.277 1779.57 304.366C1773.7 264.884 1766.68 222.605 1755.47 184.486C1748.42 160.544 1726.2 149.684 1705.33 139.141ZM1674.93 389.459C1654.38 392.567 1639.56 390.512 1617.51 395.25C1615.59 394.817 1615.12 394.254 1613.32 393.194C1611.44 383.027 1614.59 366.817 1616.96 354.573C1617.39 352.341 1617.8 350.241 1618.15 348.333C1626.28 303.652 1639.34 255.849 1670.17 221.148C1676.4 228.788 1675.36 275.659 1674.4 318.98C1673.74 348.815 1673.11 376.966 1674.93 389.459Z"/><path fill="#F1E2C3" transform="scale(0.138658 0.138672)" d="M2512.61 124.111C2512.53 124.12 2512.45 124.128 2512.37 124.135C2478.01 141.759 2416.71 185.863 2406.85 224.689C2398.98 255.099 2387.4 285.963 2379.76 316.178C2373.66 341.85 2377.02 372.145 2372.21 397.536C2356.76 479.297 2349.54 559.53 2358.1 642.697C2358.67 648.269 2359.7 653.743 2360.72 659.154C2362.87 670.654 2364.98 681.868 2362.57 693.133C2367.69 713.093 2416.43 723.485 2434.47 729.448C2434.91 728.586 2435.52 727.433 2436.24 726.079C2440.24 718.517 2447.55 704.699 2447.41 700.308C2446.45 669.465 2444.99 635.204 2440.69 605.17C2438.43 589.456 2441.97 496.337 2446.66 486.487L2448.81 486.025L2455.79 490.59C2461.22 490.499 2466.1 490.594 2470.62 490.682C2490.79 491.075 2503.63 491.326 2525.04 474.242C2525.14 478.775 2525.17 484.818 2525.2 491.999C2525.49 549.059 2526.13 677.957 2564.58 691.683C2571.08 691.171 2571.26 691.063 2577.49 688.986C2583.35 691.352 2582.33 693.124 2581.6 694.396C2580.88 695.646 2580.44 696.414 2587.06 696.789C2594.5 689.181 2628.38 648.545 2632.04 639.841C2638.51 624.416 2639.23 576.44 2639.14 558.953C2638.86 508.726 2631.95 457.497 2628.29 407.321C2627.29 393.5 2627.56 379.762 2627.84 366.032C2628.09 353.556 2628.34 341.087 2627.63 328.567C2626.04 300.659 2609.03 183.462 2590.87 165.455C2578.89 153.571 2528.62 124.156 2513.17 124.077C2512.98 124.072 2512.79 124.092 2512.61 124.111ZM2519.89 389.942C2499.9 392.408 2484.07 390.685 2463.07 395.3L2458.97 393.995C2456.72 385.87 2460.18 367.792 2462.49 355.729C2462.97 353.187 2463.41 350.913 2463.73 349.054C2472.27 299.592 2483.67 261.423 2515.03 221.134C2515.29 221.328 2515.56 221.487 2515.78 221.71C2521.71 227.636 2520.69 284.431 2519.84 331.154C2519.36 357.782 2518.94 381.138 2519.89 389.942Z"/><path fill="#F1E2C3" transform="scale(0.138658 0.138672)" d="M2191.73 182.737C2181 166.078 2169.58 148.354 2148.39 151.761C2133.01 156.268 2121.13 162.448 2105.47 168.239C2059.4 185.265 2026.89 208.983 1998.02 251.479C1916.39 372.347 1851.97 606.597 2005.59 700.048C2043.82 723.297 2118.44 733.552 2162.6 719.793C2233.53 697.69 2214.53 653.781 2240.65 604.239C2237.28 560.229 2232.62 505.777 2189.61 480.162C2162.84 461.665 2130.17 431.479 2106.07 417.323C2076.49 433.376 2064.03 450.25 2053.44 481.604C2075.29 496.034 2119.92 513.702 2123.88 540.751C2126.19 556.638 2125.58 610.297 2117.48 621.107C2086.79 662.088 1994.25 612.475 1990.63 569.25C1988.85 538.234 1994.15 506.089 1999.27 475.083C2000.05 470.333 2000.83 465.611 2001.58 460.923C2002.18 457.116 2001.34 453.419 2000.46 449.546C1999.39 444.834 1998.25 439.861 1999.6 434.111C2018.31 354.153 2097.95 270.112 2177.91 247.354C2183.34 248.797 2187.19 250.855 2190.5 252.625C2196.05 255.593 2200.08 257.747 2207.5 254.81C2213.61 244.491 2218.47 223.636 2218.73 211.615C2218.76 210.11 2214.3 207.16 2210.23 204.474C2207.6 202.731 2205.13 201.1 2204.17 200.048C2199.79 195.243 2195.81 189.067 2191.73 182.737ZM1974.61 546.729C1963.16 518.656 1967.09 502.726 1977.31 474.631C1981.76 452.291 1988.66 429.28 1994.79 407.256C1998.27 395.718 1999.04 392.257 2005.35 381.873C2010.22 373.205 2014.7 365.2 2020.03 356.785L2022.83 356.821L2023.13 356.049L2021.55 354.715L2024.21 352.588C2021.09 364.313 2014.39 375.527 2009.28 386.87C2005.64 395.091 2002.27 402.973 1998.85 411.28C1994.36 435.489 1984.8 455.86 1980.27 481.071C1979.54 484.678 1978.86 487.952 1978.23 490.978C1973.85 512.008 1971.96 521.072 1974.61 546.729Z"/><path fill="#F1E2C3" fill-opacity="0.21568628" transform="scale(0.138658 0.138672)" d="M1998.85 411.28L1994.79 407.256C1988.66 429.28 1981.76 452.291 1977.31 474.631L1980.27 481.071C1984.8 455.86 1994.36 435.489 1998.85 411.28Z"/><path fill="#F1E2C3" fill-opacity="0.054901961" transform="scale(0.138658 0.138672)" d="M1980.27 481.071L1977.31 474.631C1967.09 502.726 1963.16 518.656 1974.61 546.729C1971.96 521.072 1973.85 512.008 1978.23 490.978C1978.86 487.952 1979.54 484.678 1980.27 481.071Z"/><path fill="#F1E2C3" fill-opacity="0.58039218" transform="scale(0.138658 0.138672)" d="M2020.03 356.785C2014.7 365.2 2010.22 373.205 2005.35 381.873L2009.28 386.87C2014.39 375.527 2021.09 364.313 2024.21 352.588L2021.55 354.715L2023.13 356.049L2022.83 356.821L2020.03 356.785Z"/><path fill="#F1E2C3" fill-opacity="0.086274512" transform="scale(0.138658 0.138672)" d="M2009.28 386.87L2005.35 381.873C1999.04 392.257 1998.27 395.718 1994.79 407.256L1998.85 411.28C2002.27 402.973 2005.64 395.091 2009.28 386.87Z"/><path fill="#F1E2C3" transform="scale(0.138658 0.138672)" d="M1352.65 168.015C1354.64 158.367 1326.18 131.079 1313.51 128.793C1297.59 151.934 1270.91 187.868 1256.86 209.228C1239.53 235.571 1212.78 308.974 1207.14 339.636C1183.42 340.797 1159.47 343.22 1135.73 344.706C1131.33 344.981 1127.55 343.858 1124.02 342.814C1119.69 341.528 1115.75 340.36 1111.55 342.059C1103.35 359.2 1141.15 375.673 1168.63 387.647C1180.53 392.837 1190.5 397.182 1193.95 400.37C1196.01 410.775 1194.1 430.518 1192.33 448.897C1191.25 460.132 1190.22 470.856 1190.17 478.626C1189.45 590.898 1263.71 753.448 1400.39 723.773C1424.06 716.656 1426.55 709.733 1440.92 689.426C1443.48 685.813 1444.01 681.941 1443.94 677.535L1440.96 673.049C1439.1 674.055 1437.34 675.059 1435.64 676.026C1427.29 680.788 1420.46 684.678 1409.79 683.708C1385.87 681.53 1358.84 675.71 1342.59 656.434C1296.69 600.417 1289.35 512.317 1291.69 442.339C1292.02 432.604 1293.72 421.037 1296.23 412.211C1310.45 408.825 1323.69 408.568 1336.23 408.324C1362.52 407.814 1385.72 407.363 1408.43 378.253C1399.18 360.571 1392.34 350.179 1381.29 333.788C1361.65 326.735 1348.94 324.586 1327.78 324.63C1326.12 324.632 1324.3 324.777 1322.46 324.924C1317.13 325.349 1311.64 325.787 1309.43 322.791C1312.02 293.535 1329.14 256.108 1333.66 226.239C1336.08 210.324 1350.18 179.914 1352.65 168.015Z"/><path fill="#F79168" transform="scale(0.138658 0.138672)" d="M2185.61 827.097C2182.6 827.141 2179.73 827.184 2177.04 827.198C2172.93 838.137 2174.48 961.889 2176.15 980.985C2178.91 981.077 2181.93 981.204 2185.07 981.337C2194.73 981.744 2205.58 982.202 2213.78 981.843C2212.68 963.858 2211.93 943.695 2209.26 926.057C2218.06 939.419 2237.88 973.096 2249.34 980.552L2257.18 981.136C2260.53 981.138 2263.91 981.152 2267.29 981.167C2275.63 981.201 2284.03 981.237 2292.27 981.093C2276.94 964.118 2260.76 940.075 2247.53 926.136C2262.89 917.396 2276.12 907.971 2279.79 889.64C2292.6 825.528 2226.43 826.498 2185.61 827.097ZM2214.44 899.672C2213.11 899.684 2211.7 899.698 2210.18 899.721C2211.99 888.247 2211.79 880.759 2211.59 873.15C2211.44 867.498 2211.28 861.78 2211.95 854.312C2238.38 857.146 2260.83 865.085 2240.3 895.921C2229.55 899.527 2224.23 899.578 2214.44 899.672Z"/><path fill="#F79168" transform="scale(0.138658 0.138672)" d="M2668.13 865.114C2657.82 838.555 2626.31 824.298 2600.11 826.152C2568.37 831.942 2542 844.988 2548.32 882.09C2554.51 918.348 2628.07 917.273 2636.8 939.419C2632.91 955.284 2613.03 958.94 2599.28 954.988C2581.76 949.948 2583.48 933.585 2566.09 929.9C2561.78 929.245 2552.39 929.756 2545.49 930.131C2543.5 930.239 2541.73 930.336 2540.33 930.391C2547.78 967.485 2569.05 983.357 2606.88 984.807C2649.47 982.55 2685.98 961.594 2667.27 913.718L2665.56 912.088C2657.66 904.668 2649.31 898.387 2639.14 894.024C2624.55 887.765 2589.93 886.834 2584.2 870.674C2586.15 855.963 2605.23 851.297 2614.3 854.304C2620.61 856.395 2624.84 861.415 2629.03 866.394C2636.83 875.652 2644.51 884.767 2665.21 874.633C2665.45 874.282 2665.69 873.936 2665.94 873.593C2667.76 871.021 2669.48 868.601 2668.13 865.114Z"/><path fill="#F79168" transform="scale(0.138658 0.138672)" d="M1474.85 827.118C1474.46 827.145 1474.08 827.172 1473.7 827.198C1462.34 840.214 1416.39 958.536 1408.05 981.389C1409.81 981.452 1411.5 981.516 1413.1 981.577C1445.49 982.807 1446.39 982.842 1457.7 949.746C1473.08 950.409 1486.97 950.748 1502.35 950.654C1506.76 950.318 1507.89 949.824 1508.86 950.044C1509.72 950.24 1510.45 950.997 1513.22 952.926C1519.63 964.608 1518.78 969.879 1523.18 980.191C1537.61 981.107 1549.89 981.691 1564.32 981.699C1540.71 935.006 1526.01 881.606 1501.92 835.108C1496.98 825.57 1484.62 826.435 1474.85 827.118ZM1485.4 922.466L1464.93 921.888C1473.38 906.738 1478.27 889.856 1483.69 873.385C1489.06 878.08 1500.13 911.973 1501.86 919.927C1498.48 922.037 1493 922.208 1488.31 922.354C1487.29 922.386 1486.31 922.417 1485.4 922.466Z"/><path fill="#F79168" transform="scale(0.138658 0.138672)" d="M2081.97 827.489C2081.09 826.839 2080.8 826.626 2079.34 826.656C2075.02 826.873 2067.13 826.928 2057.84 826.992C2033.76 827.159 2000.25 827.392 1994.95 830.68C1991.81 841.901 1992.09 857.102 1992.55 868.821C1993.35 889.021 1993.12 909.246 1992.9 929.46C1992.7 946.793 1992.5 964.117 1992.96 981.41C1998.95 981.365 2005.27 981.278 2011.76 981.189C2036.24 980.852 2063.25 980.48 2085.31 982.167L2084.41 955.046L2083.46 949.847C2073.77 946.371 2040.64 948.664 2029.89 949.976C2029.93 948.992 2029.97 948.037 2030 947.106C2030.4 937.157 2030.69 930.03 2029.52 919.545C2049.62 921.131 2064.58 921.218 2084.67 920.857L2084.49 888.551C2080.78 888.552 2076.88 888.529 2072.88 888.504C2058.43 888.416 2042.68 888.32 2029.51 889.387C2029.57 888.149 2029.63 886.93 2029.68 885.727C2030.13 876.751 2030.52 868.627 2029.77 859.381L2084.59 860.86C2084.61 859.016 2084.66 857.106 2084.72 855.155C2084.95 846.283 2085.21 836.575 2083.52 828.553C2082.81 828.112 2082.34 827.762 2081.97 827.489Z"/><path fill="#F79168" transform="scale(0.138658 0.138672)" d="M2415.13 827.197C2397.02 827.313 2378.09 827.435 2368.92 825.495C2364.15 836.751 2365.42 870.158 2366.61 901.506C2367.48 924.444 2368.31 946.28 2366.7 957.527C2366.13 961.514 2366.47 977.523 2366.62 981.872C2372.3 981.778 2378.52 981.633 2385.05 981.48C2410.04 980.897 2439.53 980.209 2460.47 981.879L2458.81 948.491C2455.42 948.484 2451.88 948.455 2448.27 948.426C2433.17 948.303 2416.64 948.168 2402.75 949.565C2402.23 940.119 2401.89 931.227 2401.68 921.766C2404.39 920.291 2419.21 920.479 2433.5 920.661C2443.8 920.791 2453.82 920.919 2458.84 920.417L2457.73 889.221C2456.19 889.176 2454.66 889.13 2453.15 889.085C2435.45 888.553 2419.97 888.087 2401.86 889.33L2401.77 859.028C2417.15 861.472 2442.77 861.09 2458.97 860.629C2459.02 858.82 2459.09 857 2459.16 855.174C2459.49 846.581 2459.83 837.873 2457.97 829.671C2454.41 826.944 2435.28 827.067 2415.13 827.197Z"/><path fill="#F79168" transform="scale(0.138658 0.138672)" d="M1338.13 826.639C1337.85 826.539 1337.51 826.604 1336.48 826.664C1307.41 828.041 1247.16 829.195 1219.12 826.419C1219.09 827.555 1219.05 828.678 1219.02 829.789C1218.69 840.278 1218.39 849.766 1219.09 860.499C1233.83 860.225 1248.71 860.066 1263.43 859.482C1262.42 882.254 1262.35 905.89 1262.28 929.1C1262.26 935.49 1262.24 941.847 1262.2 948.145L1262.33 981.713C1264.52 981.708 1267.01 981.682 1269.66 981.654C1279.48 981.551 1291.59 981.424 1299.18 982.276C1298.48 968.291 1298.55 950.74 1298.63 932.73C1298.74 905.484 1298.86 877.188 1296.29 858.602C1314.6 860.535 1323.42 860.578 1341.68 860.117C1341.72 858.298 1341.78 856.431 1341.85 854.535C1342.13 845.834 1342.43 836.522 1340.73 828.517C1338.8 827.249 1338.53 826.781 1338.13 826.639Z"/><path fill="#F79168" transform="scale(0.138658 0.138672)" d="M1853.39 826.462C1840.01 826.173 1832.71 826.26 1819.83 823.116C1816.12 834.357 1816.77 913.386 1817.13 957.101C1817.22 968.182 1817.29 976.994 1817.27 981.857C1823.01 981.778 1828.76 981.69 1834.51 981.602C1860.12 981.209 1885.86 980.815 1911.37 981.18C1910.6 969.18 1909.96 960.151 1908.09 948.303C1903.87 948.34 1899.34 948.342 1894.66 948.344C1880.07 948.35 1863.98 948.357 1851.19 949.421C1854.39 931.687 1853.86 877.613 1853.53 844.444C1853.46 837.284 1853.4 831.098 1853.39 826.462Z"/><path fill="#F79168" transform="scale(0.138658 0.138672)" d="M1665.99 826.248C1665.29 826.312 1664.53 826.38 1663.7 826.44C1662.44 826.453 1661.27 826.441 1660.19 826.429C1654.7 826.37 1651.14 826.331 1646.13 829.707C1640.04 838.533 1640.05 963.793 1641.86 981.216L1722.31 981.028C1724.39 980.898 1725.89 980.888 1727.02 980.88C1730.54 980.857 1730.62 980.857 1733.99 977.379C1737.02 966.779 1738.82 956.697 1728.55 949.45C1723.09 948.5 1714.93 948.691 1706.71 948.884C1693.78 949.186 1680.69 949.493 1677.73 945.361C1677.78 943.097 1677.88 939.41 1678.02 934.71C1678.87 905.194 1680.87 835.754 1676.69 828.257C1672.55 825.659 1670.19 825.871 1665.99 826.248Z"/><path fill="#F1E2C3" transform="scale(0.138658 0.138672)" d="M3606 597.973L3606 535.942C3595.28 506.628 3599.72 425.27 3593.21 390.569C3591.79 383.045 3592.52 371.67 3593.31 359.337C3594.22 345.156 3595.2 329.708 3593.11 317.39C3586.53 278.578 3578.47 201.057 3559.38 167.749C3551.17 153.441 3498.49 130.769 3481.92 122.83C3443.95 141.327 3389.94 180.044 3374.13 222.006C3368.98 235.686 3366.21 254.515 3361.03 266.867C3341.61 312.609 3342.62 356.438 3337.75 404.667C3334.8 433.779 3325.87 464.809 3323.84 494.159C3320.39 544.141 3319.94 594.309 3324.65 644.226C3325.21 650.172 3326.31 655.736 3327.39 661.153C3329.5 671.804 3331.5 681.888 3329.03 693.198C3334.18 713.129 3382.96 723.506 3400.91 729.448C3403.47 724.422 3412.98 706.445 3413.23 702.515C3415.06 673.907 3411.06 640.817 3407.52 611.536C3406.79 605.528 3406.08 599.68 3405.45 594.064C3404.25 583.493 3411.02 491.801 3414.67 487.085L3417 487.541C3447.13 493.435 3463.94 496.723 3491.43 474.249C3491.52 478.203 3491.56 483.61 3491.6 490.132C3491.98 545.388 3492.9 680.732 3530.25 691.503C3531.82 691.261 3533.33 690.946 3534.8 690.643C3539.3 689.708 3543.3 688.878 3546.87 690.587L3549.52 696.58C3551.85 697.198 3552.54 697.521 3553.15 697.419C3553.87 697.301 3554.49 696.616 3557.44 695.166C3560.23 690.998 3561.11 689.722 3562.54 684.818C3566.79 670.201 3586.75 662.442 3593.96 649.238C3602.39 633.827 3598.93 613.441 3606 597.973ZM3486.3 389.928C3466.31 392.416 3450.52 390.67 3429.48 395.307L3425.38 393.995C3423.13 385.845 3426.61 367.703 3428.92 355.641C3429.4 353.135 3429.82 350.891 3430.14 349.054C3438.68 299.635 3450.08 261.372 3481.46 221.141C3481.7 221.335 3481.98 221.494 3482.2 221.718C3488.12 227.651 3487.09 284.407 3486.24 331.115C3485.76 357.749 3485.34 381.116 3486.3 389.928Z"/></svg>