<?xml version="1.0" encoding="utf-8" ?><svg xmlns="http://www.w3.org/2000/svg" xmlns:xlink="http://www.w3.org/1999/xlink" width="500" height="142" viewBox="0 0 500 142"><clipPath id="cl_3"><rect width="500" height="142"/></clipPath><g clip-path="url(#cl_3)"><path fill="#7A7C6F" transform="translate(0 -171)" d="M62.6919 172.107C72.0692 171.275 86.1422 173.64 94.7726 177.037C110.705 183.308 122.664 195.277 129.405 211.091C136.611 227.994 140.232 256.696 133.725 274.119C130.443 282.284 125.428 288.743 118.827 294.572C115.577 297.442 109.255 303.155 106.196 296.347C105.75 295.442 106.093 293.211 106.855 292.547C113.686 286.592 119.1 281.817 123.595 273.561C131.876 258.352 130.269 239.919 125.879 223.769C121.745 208.56 112.383 195.563 98.3198 188.169C86.0146 181.66 68.5425 179.079 55.078 183.064C41.3111 187.138 29.9514 197.399 23.5214 210.1C15.5369 225.872 10.6075 246.68 16.1112 263.917C20.3491 277.19 29.205 286.319 41.2539 292.844C49.9498 297.553 58.592 298.492 68.0723 295.552C78.0596 292.455 87.1827 284.301 91.8741 275.002C97.4296 263.99 97.244 254.663 95.4556 242.817C94.7898 238.407 94.3968 234.455 92.9087 230.142C90.682 223.689 87.7202 219.784 81.6416 216.738C77.6012 215.082 73.0516 214.696 68.7164 215.056C52.6344 216.423 44.6602 235.379 46.2085 249.608C46.1196 252.375 49.6238 264.551 53.7802 263.125C60.9485 260.666 61.087 244.559 69.4434 242.733C73.5657 241.833 77.9835 246.59 78.3074 250.828C78.8959 258.527 77.988 266.486 72.9461 272.686C65.6824 282.385 52.8124 285.479 42.9037 277.869C36.1235 272.645 33.6034 263.344 32.5259 255.266C29.7009 234.083 45.668 206.459 68.3202 204.394C75.7452 203.716 85.176 205.813 90.9942 210.714C103 220.827 102.628 236.646 104.067 250.877C105.597 265.668 103.423 281.168 93.5058 292.779C83.2756 304.757 66.8623 310.572 51.5132 311.802C40.3412 312.697 29.3215 307.132 21.2285 299.849C9.64049 289.421 2.07536 273.911 1.16569 258.378C-0.182351 235.358 6.78491 210.873 22.132 193.394C28.7189 185.892 38.0515 177.821 47.5412 174.676C52.2991 173.1 57.7015 172.436 62.6919 172.107Z"/><path fill="#F1E2C3" transform="translate(0 -171)" d="M395.692 189.042C400.325 188.905 403.06 189.417 406.406 192.953C409.347 196.061 412.083 199.367 413.887 203.29C415.713 200.661 420.985 194.626 423.751 193.792C439.07 189.175 439.247 205.086 440.946 214.808C442.27 222.388 443.938 225.448 444.327 233C444.878 243.675 448.812 255.666 441.014 264.732C439.849 265.998 431.734 271.752 430.199 272.392C426.286 262.163 428.7 252.362 428.8 242.062C428.848 237.185 428.177 230.05 427.931 224.942C427.683 220.213 425.88 214.99 425.035 210.292C422.923 213.452 421.49 215.813 419.045 218.739C411.556 218.887 406.751 218.204 401.777 211.461C400.67 209.96 400.382 208.648 398.661 207.84C398.586 207.867 398.507 207.884 398.437 207.922C395.501 209.509 395.034 226.001 395.071 229.744C395.097 232.315 395.493 234.931 395.373 237.494C395.265 239.779 394.804 242.092 394.566 244.371C393.96 250.167 393.897 256.331 391.747 261.851L391.618 262.174C389.833 261.761 382.748 259.922 382.635 258.067C382.177 250.585 383.379 243.575 382.814 235.915C382.224 224.414 383.713 211.915 387.505 201.025C388.611 197.848 392.616 190.33 395.692 189.042Z"/><path fill="#F1E2C3" transform="translate(0 -171)" d="M230.985 188.2C232.262 188.19 235.221 189.67 236.458 190.295C239.351 191.757 242.432 193.263 243.409 196.583C244.964 201.869 245.938 207.732 246.751 213.207C247.373 217.387 246.839 222.391 247.097 226.65C247.75 237.415 249.868 248.977 247.653 259.638C247.197 261.828 243.682 263.9 242.822 266.066C242.474 266.945 242.162 267.537 241.324 267.874C239.823 265.458 238.203 268.009 237.005 266.231C232.319 259.278 233.07 244.637 233.001 236.777C231.015 238.1 229.348 238.612 227.14 239.433C225.823 239.072 225.408 239.042 224.034 238.954C223.151 239.443 223.207 238.468 222.176 238.467C221.226 240.3 221.156 249.982 221.064 252.597C220.933 256.285 223.114 266.483 221.542 269.654L220.263 272.179C218.055 271.351 211.156 269.76 210.329 267.38C210.7 264.669 209.975 263.267 209.728 260.632C208.692 249.538 209.261 238.6 211.414 227.674C212.339 224.301 211.722 218.462 212.629 215.365C214.091 210.371 215.858 201.264 219.078 197.421C221.786 194.191 227.339 189.969 230.985 188.2ZM224.28 225.81C227.338 225.153 229.393 225.438 232.242 225.007C231.625 220.759 233.042 203.456 231.582 201.667C227.307 206.479 225.497 213.108 224.369 219.304C224.057 221.02 223.391 223.858 223.7 225.525C223.949 225.672 224.014 225.75 224.28 225.81Z"/><path fill="#F1E2C3" transform="translate(0 -171)" d="M348.359 188.214C348.396 188.211 348.433 188.205 348.47 188.206C350.613 188.217 357.583 192.296 359.244 193.944C361.762 196.441 364.121 212.693 364.341 216.563C364.548 220.21 364.167 223.826 364.433 227.484C364.94 234.442 365.899 241.546 365.937 248.511C365.95 250.936 365.85 257.589 364.953 259.728C364.446 260.935 359.748 266.57 358.716 267.625C356.864 267.52 359 267.193 357.389 266.543C356.525 266.831 356.5 266.846 355.599 266.917C349.597 264.774 350.239 242.387 350.116 236.764C346.483 239.664 344.628 238.962 340.514 239.031L339.546 238.398L339.248 238.462C338.598 239.828 338.107 252.741 338.42 254.92C339.017 259.085 339.22 263.836 339.353 268.113C339.375 268.831 337.962 271.366 337.558 272.154C335.057 271.327 328.298 269.886 327.589 267.118C328.079 264.821 327.218 262.539 326.969 260.124C325.782 248.591 326.783 237.465 328.926 226.127C329.592 222.606 329.126 218.405 329.972 214.845C331.032 210.655 332.637 206.375 333.728 202.158C335.095 196.774 343.595 190.658 348.359 188.214ZM341.524 225.817C344.436 225.177 346.631 225.416 349.403 225.074C349.037 221.711 350.124 203.035 348.833 201.745C348.802 201.714 348.764 201.692 348.729 201.665C344.38 207.252 342.8 212.545 341.615 219.404C341.36 220.885 340.577 224.272 340.956 225.636L341.524 225.817Z"/><path fill="#F1E2C3" transform="translate(0 -171)" d="M297.891 192.045C301.945 191.393 303.42 196.321 305.625 198.741C305.964 199.112 307.652 200.001 307.644 200.345C307.608 202.012 306.934 204.904 306.087 206.335C304.445 206.985 304.001 205.837 301.984 205.301C290.897 208.457 279.854 220.111 277.26 231.199C276.92 232.652 277.721 233.747 277.534 234.917C276.753 239.811 275.732 244.979 276.017 249.939C276.518 255.933 289.35 262.813 293.605 257.13C294.728 255.631 294.813 248.19 294.492 245.987C293.944 242.236 287.755 239.786 284.726 237.785C286.194 233.437 287.921 231.097 292.023 228.871C295.364 230.834 299.895 235.02 303.607 237.585C309.57 241.137 310.216 248.688 310.683 254.791C307.062 261.661 309.696 267.75 299.862 270.815C293.738 272.723 283.391 271.301 278.091 268.077C256.79 255.118 265.722 222.634 277.041 205.873C281.044 199.98 285.552 196.691 291.94 194.33C294.111 193.527 295.758 192.67 297.891 192.045ZM274.169 236.818C272.753 240.714 272.208 242.923 273.795 246.816C273.375 242.746 273.778 241.687 274.58 237.711C275.208 234.215 276.534 231.39 277.156 228.033C277.63 226.881 278.097 225.788 278.603 224.648C279.311 223.075 280.24 221.52 280.673 219.894L280.303 220.189L280.523 220.374L280.481 220.481L280.093 220.476C279.354 221.643 278.732 222.753 278.057 223.955C277.182 225.395 277.076 225.875 276.593 227.475C275.743 230.529 274.786 233.72 274.169 236.818Z"/><path fill="#F1E2C3" fill-opacity="0.21568628" transform="translate(0 -171)" d="M276.593 227.475L277.156 228.033C276.534 231.39 275.208 234.215 274.58 237.711L274.169 236.818C274.786 233.72 275.743 230.529 276.593 227.475Z"/><path fill="#F1E2C3" fill-opacity="0.054901961" transform="translate(0 -171)" d="M274.169 236.818L274.58 237.711C273.778 241.687 273.375 242.746 273.795 246.816C272.208 242.923 272.753 240.714 274.169 236.818Z"/><path fill="#F1E2C3" fill-opacity="0.58039218" transform="translate(0 -171)" d="M278.057 223.955C278.732 222.753 279.354 221.643 280.093 220.476L280.481 220.481L280.523 220.374L280.303 220.189L280.673 219.894C280.24 221.52 279.311 223.075 278.603 224.648L278.057 223.955Z"/><path fill="#F1E2C3" fill-opacity="0.086274512" transform="translate(0 -171)" d="M278.057 223.955L278.603 224.648C278.097 225.788 277.63 226.881 277.156 228.033L276.593 227.475C277.076 225.875 277.182 225.395 278.057 223.955Z"/><path fill="#F1E2C3" transform="translate(0 -171)" d="M182.129 188.86C183.885 189.177 187.832 192.961 187.555 194.299C187.213 195.949 185.258 200.166 184.923 202.373C184.295 206.515 181.922 211.705 181.563 215.762C181.974 216.321 183.21 216.018 184.107 216.017C187.041 216.011 188.804 216.309 191.527 217.287C193.059 219.56 194.007 221.001 195.29 223.453C190.639 229.415 185.839 226.708 179.732 228.162C179.385 229.386 179.148 230.99 179.103 232.34C178.779 242.044 179.796 254.261 186.16 262.029C188.414 264.702 192.162 265.509 195.478 265.811C197.259 265.973 198.267 265.159 199.801 264.333L200.213 264.955C200.223 265.566 200.15 266.103 199.795 266.604C197.802 269.42 197.457 270.38 194.175 271.367C175.223 275.482 164.927 252.941 165.026 237.372C165.044 234.532 166.01 228.845 165.55 226.52C163.97 225.058 152.496 221.841 154.125 218.434C155.181 218.007 156.117 218.886 157.478 218.801C160.769 218.595 164.09 218.259 167.38 218.098C168.162 213.846 171.87 203.667 174.273 200.014C176.221 197.052 179.921 192.069 182.129 188.86Z"/><path fill="#F79168" transform="translate(0 -171)" d="M301.863 285.709C307.299 285.681 318.018 284.822 316.11 294.368C315.602 296.91 313.768 298.217 311.638 299.429C313.472 301.362 315.715 304.696 317.841 307.05C316.236 307.078 314.586 307.057 312.976 307.056L311.889 306.975C310.3 305.941 307.551 301.271 306.331 299.418C306.702 301.864 306.805 304.66 306.958 307.154C305.45 307.22 303.298 307.087 301.74 307.035C301.509 304.387 301.293 287.226 301.863 285.709ZM306.459 295.766C308.22 295.739 308.942 295.807 310.635 295.239C313.482 290.963 310.369 289.862 306.704 289.469C306.487 291.899 306.896 292.993 306.459 295.766Z"/><path fill="#F79168" transform="translate(0 -171)" d="M360.526 285.564C364.158 285.307 368.528 287.284 369.957 290.967C370.169 291.515 369.835 291.873 369.552 292.287C365.139 294.448 364.994 290.297 362.493 289.468C361.235 289.051 358.59 289.698 358.32 291.738C359.114 293.979 363.914 294.108 365.937 294.976C367.348 295.581 368.505 296.452 369.601 297.481L369.838 297.707C372.432 304.346 367.369 307.252 361.464 307.565C356.219 307.364 353.27 305.163 352.237 300.019C353.103 299.985 355.04 299.834 355.808 299.951C358.219 300.462 357.981 302.731 360.411 303.43C362.317 303.978 365.073 303.471 365.613 301.271C364.403 298.2 354.203 298.349 353.345 293.321C352.468 288.176 356.124 286.367 360.526 285.564Z"/><path fill="#F79168" transform="translate(0 -171)" d="M204.34 285.709C205.717 285.615 207.541 285.431 208.253 286.806C211.593 293.254 213.632 300.659 216.905 307.134C214.904 307.133 213.201 307.052 211.201 306.925C210.59 305.495 210.708 304.764 209.82 303.144C209.001 302.575 209.467 302.741 208.313 302.829C206.18 302.842 204.254 302.795 202.122 302.703C200.475 307.52 200.419 307.276 195.237 307.091C196.393 303.922 202.765 287.514 204.34 285.709ZM203.124 298.84L205.962 298.92C206.672 298.882 207.675 298.924 208.244 298.568C208.005 297.465 206.47 292.765 205.725 292.114C204.973 294.398 204.295 296.739 203.124 298.84Z"/><path fill="#F79168" transform="translate(0 -171)" d="M288.317 285.634C288.604 285.628 288.564 285.69 288.896 285.897C289.182 287.254 289.066 288.959 289.044 290.377L281.444 290.172C281.562 291.626 281.475 292.88 281.407 294.333C283.738 294.144 286.651 294.218 289.031 294.217L289.056 298.697C286.27 298.747 284.196 298.735 281.409 298.515C281.586 300.105 281.522 301.138 281.46 302.735C282.95 302.553 287.545 302.235 288.888 302.717L289.02 303.438L289.144 307.199C285.274 306.903 280.305 307.064 276.339 307.094C276.203 301.899 276.489 296.684 276.283 291.481C276.219 289.856 276.18 287.748 276.616 286.192C277.633 285.56 286.165 285.742 288.317 285.634Z"/><path fill="#F79168" transform="translate(0 -171)" d="M328.469 285.473C331.154 286.041 339.88 285.334 340.817 286.052C341.129 287.431 340.994 288.913 340.955 290.345C338.709 290.409 335.157 290.462 333.024 290.123L333.036 294.325C335.763 294.138 338.058 294.23 340.784 294.31L340.937 298.636C339.277 298.802 333.659 298.471 333.011 298.823C333.041 300.135 333.088 301.368 333.16 302.678C335.547 302.438 338.494 302.524 340.933 302.529L341.164 307.159C337.502 306.867 331.954 307.095 328.151 307.158C328.129 306.555 328.082 304.335 328.161 303.782C328.689 300.091 327.324 288.176 328.469 285.473Z"/><path fill="#F79168" transform="translate(0 -171)" d="M185.313 285.635C185.658 285.615 185.446 285.591 185.902 285.892C186.19 287.244 186.065 288.865 186.035 290.274C183.503 290.338 182.279 290.332 179.741 290.064C180.333 294.345 179.896 302.341 180.142 307.214C178.804 307.064 176.458 307.133 175.032 307.136L175.014 302.481C175.039 298.435 175.006 294.213 175.185 290.186C173.144 290.267 171.08 290.289 169.036 290.327C168.929 288.681 168.991 287.246 169.041 285.601C172.928 285.986 181.283 285.826 185.313 285.635Z"/><path fill="#F79168" transform="translate(0 -171)" d="M252.334 285.143C254.119 285.579 255.132 285.567 256.987 285.607C256.996 289.228 257.221 299.668 256.682 302.658C259.024 302.463 262.167 302.524 264.571 302.503C264.831 304.146 264.92 305.398 265.027 307.062C260.695 307 256.315 307.096 251.979 307.156C251.994 303.821 251.688 287.097 252.334 285.143Z"/><path fill="#F79168" transform="translate(0 -171)" d="M230.685 285.604C231.482 285.546 231.815 285.435 232.486 285.856C233.158 287.061 232.678 299.809 232.63 302.095C233.302 303.032 237.728 302.323 239.677 302.662C241.101 303.667 240.851 305.065 240.431 306.535C239.814 307.173 239.993 306.967 238.812 307.041L227.656 307.067C227.406 304.651 227.405 287.281 228.249 286.057C229.081 285.496 229.626 285.615 230.685 285.604Z"/><path fill="#F1E2C3" transform="translate(0 -171)" d="M482.796 188.033C485.093 189.134 492.398 192.278 493.536 194.262C496.183 198.881 497.3 209.631 498.213 215.013C498.755 218.207 497.805 222.918 498.226 225.161C499.129 229.973 498.514 241.255 500 245.32L500 253.922C499.019 256.067 499.5 258.894 498.331 261.031C497.331 262.862 494.563 263.938 493.974 265.965C493.776 266.645 493.653 266.822 493.267 267.4C492.504 267.775 492.864 267.781 492.169 267.596L491.801 266.765C491.146 266.451 490.385 266.755 489.496 266.892C483.707 265.222 484.23 241.958 484.114 236.765C480.205 239.961 477.854 239.4 473.471 238.545C472.964 239.199 472.026 251.914 472.192 253.38C472.708 257.954 473.577 263.638 473.271 268.419C473.236 268.964 471.917 271.457 471.563 272.154C469.074 271.33 462.31 269.891 461.596 267.127C462.112 264.761 461.219 262.782 460.989 260.336C460.336 253.414 460.398 246.457 460.876 239.526C461.158 235.456 462.396 231.153 462.805 227.116C463.481 220.428 463.34 214.35 466.033 208.007C466.751 206.294 467.135 203.683 467.849 201.786C470.041 195.967 477.531 190.598 482.796 188.033ZM475.524 225.818C478.441 225.175 480.631 225.417 483.402 225.072C483.036 221.707 484.124 203.038 482.834 201.746C482.803 201.715 482.765 201.693 482.731 201.666C478.38 207.245 476.8 212.551 475.616 219.404C475.36 220.885 474.579 224.271 474.956 225.636L475.524 225.818Z"/></g></svg>