<?xml version="1.0" encoding="utf-8" ?><svg xmlns="http://www.w3.org/2000/svg" xmlns:xlink="http://www.w3.org/1999/xlink" width="500" height="142" viewBox="0 0 500 142"><path fill="#797B6E" d="M62.1662 1.10329C74.6956 0.139414 88.5975 2.72826 99.8371 8.23887C115.86 16.095 126.323 30.063 132.013 46.7134C136.257 59.1306 138.488 80.2403 136.477 93.2384C135.742 97.9946 134.286 102.52 132.163 106.836C129.049 113.166 118.909 126.045 112.06 128.315C110.837 128.72 109.433 128.618 108.283 128.038C107.182 127.481 106.301 126.49 105.93 125.307C105.493 123.908 105.874 122.607 106.704 121.445C107.997 119.636 110.549 118.094 112.237 116.608C117.106 112.323 121.11 107.144 124.069 101.373C131.774 86.3427 130.261 66.5943 125.182 50.8913C120.336 35.9112 111.391 23.9198 97.18 16.6837C85.4653 10.7188 67.4863 8.02591 54.8444 12.1689C40.5098 16.8666 29.9344 26.6578 23.1673 40.0412C15.1805 55.8369 10.6668 76.3055 16.3217 93.5084C20.5768 106.453 30.1936 116.249 42.2256 122.304C50.4077 126.421 59.5673 127.328 68.3346 124.418C78.224 121.136 87.2377 112.994 91.8898 103.724C97.3246 92.8929 97.0147 83.709 95.3789 72.0225C94.7642 67.631 94.1415 63.1929 92.7356 58.971C90.7307 52.9503 87.0741 48.5577 81.3844 45.7118C75.391 43.5501 68.0391 43.1859 62.1257 45.8122C55.2586 48.862 50.9555 55.3598 48.3482 62.1835C45.4376 69.8011 44.9654 79.4036 48.3796 86.9594C49.6537 89.7793 51.1223 91.2172 53.9519 92.2867C59.8694 89.1001 60.6611 79.417 64.9748 74.3565C67.5238 71.1728 70.8113 70.9248 74.2657 72.9495C79.4392 75.9817 78.8605 84.2223 78.2034 89.4097C76.565 102.344 64.4938 113.571 51.0651 110.785C39.3997 108.365 34.4535 97.3386 32.7621 86.6827C28.5879 64.8286 44.6768 35.3535 68.2741 33.2811C86.8089 31.6533 99.8455 43.5062 102.272 61.5252C102.954 66.5929 103.153 71.6727 103.814 76.6958C105.942 92.8948 104.086 110.194 92.7709 122.852C83.0132 133.63 66.5126 139.771 52.113 140.823C25.5305 142.764 3.47475 114.925 1.35237 90.2416C-0.904147 63.6565 7.45161 35.3206 27.3151 16.8769C38.9336 5.87925 46.1548 2.4129 62.1662 1.10329Z"/><path fill="#AD5735" d="M395.493 18.3096C397.095 18.0949 398.974 18.0536 400.562 18.3873C406.557 19.6481 410.698 27.2154 413.806 31.9956C417.862 28.6589 420.265 23.2922 425.972 22.1194C428.607 21.578 432.222 22.3526 434.435 23.8732C436.07 24.9968 437.935 28.4421 438.566 30.31C439.633 33.4725 439.592 37.1228 440.211 40.4227C441.045 44.861 442.344 49.1803 443.194 53.5878C443.865 57.0651 444.062 60.7336 444.473 64.2602C445.543 73.4272 447.621 84.7165 442.045 92.8778C440.639 94.9366 438.346 95.2805 436.485 96.7099C435.033 97.8246 433.697 100.498 431.769 100.749C431.128 100.833 430.584 100.657 430.108 100.224C426.225 96.6886 428.839 77.9007 428.817 72.2069C428.793 66.2023 428.326 60.1149 427.934 54.1233C427.302 49.1472 426.2 44.4539 424.984 39.5957C422.838 42.1631 421.578 45.8273 418.774 47.7037C416.882 47.6342 414.991 47.861 413.103 47.64C407.989 47.0413 403.404 43.4933 400.716 39.1869C400.19 38.3448 399.607 37.0806 398.655 36.6702C398.533 36.7151 398.417 36.7675 398.312 36.8442C395.5 38.8928 394.773 56.0127 394.888 60.0782C394.945 62.0856 395.62 64.155 395.497 66.1457C395.351 68.4852 394.668 70.8223 394.408 73.1615C393.877 77.9404 393.739 82.4335 392.82 87.2245C392.625 88.2411 392.318 89.8709 391.377 90.4752C390.738 90.885 389.972 90.7157 389.272 90.5517C387.413 90.1163 383.718 89.1227 382.756 87.4268C381.765 85.6801 382.969 76.1871 383.083 73.5777C383.278 69.0988 382.613 64.6856 382.559 60.2228C382.466 52.5534 384.141 41.5585 386.175 34.17C387.536 29.225 390.946 20.8918 395.493 18.3096Z"/><path fill="#AD5735" d="M231.225 17.2623C233.439 17.6066 240.117 21.0342 241.747 22.6674C244.657 25.5832 246.593 41.0829 246.922 45.4787C247.117 48.0762 246.945 50.6731 247.002 53.2727C247.069 56.3438 247.391 59.4764 247.572 62.5495C247.873 67.6546 248.553 72.7069 248.593 77.8304C248.617 80.952 248.719 88.2396 246.761 90.6977C245.742 91.9764 244.221 92.812 243.166 94.0637C242.471 94.8868 242.701 96.1094 241.969 96.7989C241.835 96.9253 241.56 96.8701 241.375 96.8657C241.125 96.47 240.876 96.12 240.553 95.7801C239.775 95.6921 239.08 95.7993 238.307 95.8461C237.774 95.8783 237.305 95.7435 236.911 95.3734C236.404 94.8965 236.05 93.8418 235.77 93.1955C232.292 85.1595 233.118 74.6703 232.939 65.9716C229.708 67.9785 227.072 68.0772 223.408 68.037C222.936 67.6903 222.766 67.5352 222.186 67.4674C221.39 68.5341 220.71 80.0145 220.831 81.8914C221.123 86.4283 222.771 93.6723 221.867 97.995C221.685 98.8681 221.325 99.9437 220.517 100.429C219.793 100.865 218.889 100.581 218.125 100.405C215.73 99.8505 211.739 98.7948 210.394 96.639C210.554 93.9188 210.013 91.6211 209.731 88.9396C209.444 86.2113 209.359 83.402 209.322 80.6585C209.273 76.9588 209.16 72.7524 209.566 69.0788C210.017 65.007 210.973 61.0458 211.505 57.0004C212.023 53.0582 211.971 49.0255 212.543 45.1117C212.976 42.1525 214.222 39.2288 215.095 36.3724C215.806 34.0462 216.302 31.5905 217.217 29.3379C219.187 24.484 226.567 19.2331 231.225 17.2623ZM224.358 54.8849C226.213 54.5523 230.405 54.6397 231.77 53.5424C232.388 51.1211 232.66 32.2885 231.731 30.9428C231.653 30.83 231.572 30.7522 231.457 30.6797C226.141 37.4162 224.177 45.9366 223.743 54.3896L223.952 54.8231L224.358 54.8849Z"/><path fill="#AD5735" d="M348.405 17.2104C348.515 17.2155 348.622 17.2262 348.731 17.2438C351.126 17.6321 358.238 21.343 359.633 23.4115C361.706 26.4857 364.185 42.26 364.379 46.3654C364.531 49.5805 364.042 52.7225 364.269 55.9888C364.984 66.2686 367.011 77.3481 365.297 87.5979C364.548 92.0811 361.016 92.2661 360.178 94.4335C360.07 94.7137 360.129 95.2139 360.06 95.5343C359.915 96.1978 359.598 96.2845 359.064 96.6369C358.096 96.7021 358.258 96.2608 357.53 95.9234C356.52 95.4552 355.667 96.1948 354.4 95.1367C349.42 90.9757 350.701 72.5458 350.095 65.9167C347.233 68.1006 344.102 68.2332 340.686 68.0103C340.294 67.7615 340 67.5756 339.523 67.5831C339.404 67.5849 339.433 67.5635 339.359 67.6465C338.816 68.2586 338.883 70.4636 338.809 71.3741C338.538 74.7104 337.98 78.3117 338.113 81.6483C338.304 86.4221 339.312 91.2128 339.326 96.0176C339.33 97.3216 339.11 98.9352 338.123 99.8887C337.603 100.391 336.892 100.612 336.177 100.596C332.988 100.524 329.623 98.5266 327.512 96.2985C328.316 94.7958 327.24 91.8865 327.081 90.1487C326.481 83.5929 326.426 76.9331 326.78 70.3622C327.028 65.7381 328.09 61.1506 328.751 56.5743C329.298 52.7924 329.285 48.9405 329.859 45.1751C330.287 42.3635 331.384 39.7278 332.184 37.0111C332.868 34.6858 333.361 32.2691 334.213 29.9991C336.151 24.8347 343.503 19.4276 348.405 17.2104ZM341.77 54.8934C344.219 54.3461 346.784 54.4764 349.197 53.8652C349.144 49.8995 350.552 32.911 348.697 30.6602C344.185 36.597 342.314 42.9448 341.355 50.2589C341.207 51.389 340.762 53.1799 340.901 54.2767C340.921 54.4334 340.987 54.5881 341.056 54.7285C341.28 54.7964 341.537 54.9037 341.77 54.8934Z"/><path fill="#AD5735" d="M292.037 58.0299C294.681 59.3272 295.355 60.4194 297.566 62.1492C302.225 65.7943 307.739 68.8318 309.431 74.9887C309.911 76.5345 311.041 83.2668 310.246 84.6064C308.545 87.4701 308.411 91.8665 307.078 94.7498C305.984 97.1136 302.224 99.1285 299.731 99.8566C292.716 101.905 284.375 100.173 277.908 97.0916C272.872 94.5649 267.655 86.6698 266.22 81.1531C262.972 68.6634 267.828 51.4854 273.686 40.1959C275.862 36.0037 281.029 29.4871 284.939 26.7742C286.49 25.8021 289.067 24.7252 290.626 23.9801C298.266 20.3293 300.465 19.2173 304.973 27.1477C305.281 27.6886 307.411 28.7209 307.653 29.5995C305.652 32.9348 309.415 36.8448 301.913 34.4401C295.827 36.6543 295.494 36.805 290.604 41.0426C285.911 45.1097 284.868 45.2942 281.255 50.6595C279.922 52.8345 279.227 54.0659 278.401 56.4748C278.197 57.0729 277.206 59.9947 277.019 60.3017C276.973 61.4101 277.357 62.4951 277.274 63.6759C276.896 69.0572 274.631 75.9743 276.885 81.0725C278.21 84.0719 280.56 86.0078 283.597 87.1522C285.866 88.0071 290.11 88.6752 292.374 87.5766C293.261 87.1463 293.813 86.2315 294.131 85.3325C294.722 83.6631 294.573 81.5246 294.678 79.7584C295.4 67.6212 287.433 71.2228 285.504 66.8996C285.174 66.1595 285.295 65.3472 285.565 64.611C286.68 61.5783 289.18 59.3672 292.037 58.0299ZM276.415 59.8188C277.264 57.7858 278.848 51.7888 280.383 50.3002C280.701 49.5894 280.868 49.5041 280.803 48.7766C277.566 50.4462 271.83 70.8364 273.092 73.6989C273.275 74.4017 273.201 74.591 273.687 75.0279C273.986 74.1403 273.784 73.5136 273.603 72.605C273.531 70.5392 275.785 61.9345 276.415 59.8188Z"/><path fill="#AD5735" fill-opacity="0.06666667" d="M273.092 73.6989C271.83 70.8364 277.566 50.4462 280.803 48.7766C280.868 49.5041 280.701 49.5894 280.383 50.3002C278.848 51.7888 277.264 57.7858 276.415 59.8188C275.785 61.9345 273.531 70.5392 273.603 72.605L273.092 73.6989Z"/><path fill="#AD5735" fill-opacity="0.26274511" d="M273.603 72.605C273.784 73.5136 273.986 74.1403 273.687 75.0279C273.201 74.591 273.275 74.4017 273.092 73.6989L273.603 72.605Z"/><path fill="#AD5735" d="M182.163 18.1607L182.247 18.161C182.494 18.1606 182.74 18.1748 182.98 18.2386C184.458 18.6316 186.278 20.7809 186.982 22.079C187.367 22.7882 187.683 23.6327 187.514 24.4494C187.273 25.6182 186.077 26.5471 185.74 27.7338C184.101 33.5136 183.037 39.4748 181.292 45.2488C184.124 45.0715 187.729 44.7506 190.326 46.0441C192.833 47.2928 194.051 50.0158 194.906 52.5338C190.871 59.1113 183.465 55.0491 180.237 57.4452C179.506 57.988 179.271 59.4746 179.155 60.3133C177.96 68.9368 179.844 82.8748 185.244 89.9875C187.586 93.0726 190.376 94.2253 194.104 94.7223C196.809 95.083 198.431 94.4056 200.528 92.7989C199.726 94.8199 198.856 96.8006 197.955 98.7794C196.573 99.5191 195.218 100.018 193.72 100.456C191.32 100.965 188.965 101.104 186.541 100.628C179.855 99.3138 175.028 94.803 171.336 89.2939C164.892 79.6755 164.003 66.4131 166.201 55.3412C165.491 55.1511 164.787 54.9256 164.092 54.6874C161.518 53.8057 155.225 51.1706 154.055 48.664C153.838 48.1991 153.854 48.1209 154.026 47.6445C155.025 47.1318 157.052 47.8427 158.259 47.8129C161.313 47.7376 164.427 47.1957 167.457 46.8119C168.619 41.4268 171.474 33.6237 174.332 28.8869C175.404 27.1102 176.83 25.5322 178.006 23.8162C179.324 21.893 180.53 19.8366 182.163 18.1607Z"/><path fill="#252425" d="M301.754 114.995C304.93 114.889 308.873 114.453 311.916 115.445C313.487 115.957 314.856 117.03 315.596 118.523C316.428 120.201 316.455 122.337 315.839 124.088C315.037 126.365 313.745 127.439 311.624 128.447C313.799 130.899 315.489 133.789 317.919 136.013L314.588 136.141C313.531 136.12 312.459 136.008 311.403 135.94C309.563 133.598 308.301 130.842 306.36 128.554C306.747 131.027 306.666 133.616 306.789 136.117C305.13 136.213 303.425 136.134 301.761 136.127C302.023 129.119 301.771 122.014 301.754 114.995ZM306.643 124.836C308.104 124.757 309.49 124.668 310.83 124.008C311.287 122.941 311.869 121.605 311.421 120.437C311.172 119.788 310.6 119.363 309.976 119.101C308.959 118.674 307.702 118.658 306.618 118.572C306.695 120.668 306.716 122.74 306.643 124.836Z"/><path fill="#252425" d="M361.161 114.594C363.077 114.652 364.775 115.015 366.429 116.012C367.883 116.888 369.332 118.123 369.751 119.831C369.619 120.455 369.599 120.704 369.086 121.132C368.28 121.805 366.496 121.478 365.491 121.406C364.709 120.163 364.08 119.188 362.571 118.818C361.446 118.543 360.151 118.62 359.161 119.268C358.537 119.676 358.436 120.066 358.313 120.74C358.948 122.877 366.803 123.704 369.139 125.939C370.048 126.808 370.486 127.887 370.497 129.14C370.51 130.662 369.898 133.102 368.798 134.197C366.927 136.06 363.744 136.613 361.226 136.625C359.526 136.481 357.678 136.06 356.185 135.214C353.702 133.81 353.039 131.708 352.323 129.142C354.042 129.024 355.718 129.028 357.436 129.16C357.708 129.851 357.984 130.717 358.503 131.261C359.36 132.16 360.845 132.552 362.052 132.549C362.98 132.547 364.242 132.3 364.886 131.57C365.233 131.175 365.385 130.717 365.328 130.198C365.053 127.709 357.221 126.772 355.067 125.108C354.027 124.306 353.423 123.234 353.274 121.932C353.089 120.323 353.471 118.692 354.487 117.416C356.151 115.327 358.664 114.878 361.161 114.594Z"/><path fill="#252425" d="M204.542 114.84C205.298 114.827 206.374 114.706 207.093 114.914C207.693 115.087 207.988 115.412 208.311 115.935C209.329 117.582 209.971 119.606 210.686 121.401C212.609 126.229 214.314 131.552 216.769 136.113C214.925 136.203 213.07 136.077 211.227 136.001C210.809 134.604 210.301 133.262 209.765 131.907L207.269 131.844L202.035 131.87L200.746 135.999C198.89 136.197 197.026 136.069 195.166 135.99C197.249 132.662 202.381 116.544 203.776 115.291C203.967 115.119 204.314 114.974 204.542 114.84ZM206.562 127.934C207.219 127.899 207.701 127.984 208.232 127.567C208.01 126.188 206.776 121.766 205.746 120.896C205.247 122.374 203.468 126.469 203.619 127.871C204.607 128.018 205.567 127.975 206.562 127.934Z"/><path fill="#252425" d="M276.448 114.984C280.663 114.883 284.871 114.931 289.086 115.003C288.968 116.467 289.001 117.828 289.119 119.287C286.569 119.18 284.012 119.259 281.46 119.303C281.57 120.601 281.54 121.833 281.459 123.128C283.896 123.262 286.348 123.225 288.788 123.235C288.695 124.776 288.693 126.23 288.84 127.768C286.929 127.702 283.246 127.147 281.639 128.308L281.551 129.437C281.487 130.153 281.356 130.887 281.641 131.569C283.805 132.111 286.789 131.765 289.038 131.795C288.952 133.295 288.993 134.719 289.111 136.214C284.876 135.916 280.555 136.063 276.308 136.053C276.563 129.077 275.915 121.916 276.448 114.984Z"/><path fill="#252425" d="M328.232 114.981C332.47 114.937 336.698 114.925 340.935 115.02C340.798 116.471 340.806 117.739 340.973 119.188C338.403 119.345 335.718 119.244 333.149 119.126L333.094 123.263L340.428 123.235C340.328 124.726 340.346 126.225 340.34 127.719C338.119 127.709 335.603 127.508 333.416 127.837L333.203 128.221L333.081 131.759C335.643 131.723 338.189 131.732 340.75 131.814C340.742 133.284 340.799 134.686 340.979 136.147C336.724 135.965 332.43 136.082 328.17 136.091C328.54 129.104 328.157 121.989 328.232 114.981Z"/><path fill="#252425" d="M169.199 114.97C174.809 115.046 180.412 114.828 186.023 115.014C185.947 116.452 186.018 117.876 186.086 119.313C184.037 119.236 181.987 119.194 179.937 119.146L179.919 131.563C179.883 133.106 179.972 134.64 180.054 136.18C178.368 136.131 176.692 136.128 175.006 136.158C175.363 130.541 174.901 124.866 175.187 119.233C173.123 119.209 171.077 119.209 169.016 119.332C169.024 117.88 168.985 116.41 169.199 114.97Z"/><path fill="#252425" d="M227.833 115.031C229.431 114.842 231.106 114.951 232.714 114.962C232.544 120.465 233.251 126.292 232.55 131.731C235.104 131.649 237.68 131.707 240.236 131.697C240.134 133.216 240.163 134.644 240.299 136.159C236.129 135.998 231.945 136.098 227.772 136.14C227.905 129.119 227.517 122.042 227.833 115.031Z"/><path fill="#252425" d="M252.122 114.965C253.704 114.84 255.389 114.967 256.981 114.985C256.409 120.512 257.28 126.206 256.772 131.757C259.362 131.671 261.974 131.734 264.566 131.727C264.551 133.18 264.624 134.618 264.708 136.067C261.414 136.527 255.745 136.029 252.008 136.159C252.27 129.11 251.729 122.008 252.122 114.965Z"/><path fill="#AD5735" d="M461.515 96.2895C461.632 96.0516 461.924 95.4816 461.876 95.2248C460.634 87.4861 460.202 79.5304 460.742 71.6462C461.365 62.5588 463.556 53.1157 464.035 43.8941C464.11 42.4567 465.81 38.5265 466.239 36.867C467.358 32.6483 468.406 27.1872 472.209 24.4716C475.473 22.1412 480.781 15.6396 485.075 18.1534C487.059 19.3144 492.405 21.1003 493.397 23.1207C496.538 29.5161 497.109 37.9908 498.111 45.051C498.649 49.3696 497.738 54.0853 498.386 58.0806C498.809 60.6883 498.924 72.8443 500 74.3142L500 82.6724C499.02 83.9493 499.323 88.0459 498.422 89.9256C497.212 92.4509 494.221 92.845 494.069 95.4087C494.025 96.1542 493.646 96.2427 493.075 96.6573C491.874 96.7031 491.753 95.8849 491.489 95.9001C490.808 95.9391 489.095 95.9305 488.399 95.1399C483.239 89.2855 484.772 73.2829 484.097 65.9156C480.997 68.0504 478.347 68.4611 474.511 68.0064C474.39 67.9921 474.068 67.4877 473.402 67.4849C472.762 68.4385 472.325 78.868 472.152 80.196C471.237 87.2004 479.016 106.577 464.201 98.6798C463.214 98.1536 462.232 97.0494 461.515 96.2895ZM475.773 54.8929C477.752 54.4598 481.429 54.728 482.967 53.5226C483.703 50.7285 483.859 34.1124 483.07 31.0992L482.697 30.661C477.343 37.7047 475.672 45.6219 474.897 54.2839L475.122 54.8L475.773 54.8929Z"/></svg>